<?xml version="1.0" encoding="utf-8"?>
<!-- Generator: Adobe Illustrator 21.1.0, SVG Export Plug-In . SVG Version: 6.00 Build 0)  -->
<svg version="1.1" xmlns="http://www.w3.org/2000/svg" xmlns:xlink="http://www.w3.org/1999/xlink" x="0px" y="0px"
	 viewBox="0 0 1920 400" style="enable-background:new 0 0 1920 400;" xml:space="preserve">
<style type="text/css">
	.st0{fill:#E45664;}
	.st1{fill:#E1DEEE;}
	.st2{fill:#FCFDFF;}
	.st3{fill:#E5E5E4;}
	.st4{fill:#151314;}
	.st5{fill:#BDBAC1;}
	.st6{fill:#B3B3B4;}
	.st7{fill:#DEDBDC;}
	.st8{fill:#9B9597;}
	.st9{fill:#FFFFFF;}
	.st10{fill:#22212C;}
	.st11{fill:#514B4D;}
	.st12{fill:#CBC9D5;}
	.st13{fill:#352623;}
	.st14{fill:#B9B7C4;}
	.st15{fill:#252527;}
	.st16{fill:#313133;}
	.st17{fill:#58575D;}
	.st18{fill:#3C4546;}
	.st19{fill:#312F33;}
	.st20{fill:#19181D;}
	.st21{fill:#373638;}
	.st22{fill:#F8F8F5;}
	.st23{fill:#050800;}
	.st24{fill:#27241F;}
	.st25{fill:#EEE9D4;}
	.st26{fill:#609E9E;}
	.st27{fill:#D5E6E2;}
	.st28{fill:#FFFFFD;}
	.st29{fill:#184C74;}
	.st30{fill:#003650;}
	.st31{fill:#B6D5DD;}
	.st32{fill:#363636;}
	.st33{fill-rule:evenodd;clip-rule:evenodd;fill:#FFFFFF;}
	.st34{fill-rule:evenodd;clip-rule:evenodd;fill:#E2E2E2;}
	.st35{fill-rule:evenodd;clip-rule:evenodd;fill:#4E556A;}
	.st36{fill-rule:evenodd;clip-rule:evenodd;fill:#D68490;}
	.st37{fill-rule:evenodd;clip-rule:evenodd;fill:#7B8090;}
	.st38{fill-rule:evenodd;clip-rule:evenodd;fill:#BDC5CF;}
	.st39{fill-rule:evenodd;clip-rule:evenodd;fill:#D07A60;}
	.st40{fill-rule:evenodd;clip-rule:evenodd;fill:#A2D4D2;}
	.st41{fill-rule:evenodd;clip-rule:evenodd;fill:#EED283;}
	.st42{fill-rule:evenodd;clip-rule:evenodd;fill:#BF6D4F;}
	.st43{fill-rule:evenodd;clip-rule:evenodd;fill:#8AAFAF;}
	.st44{fill-rule:evenodd;clip-rule:evenodd;fill:#D4BA70;}
	.st45{fill-rule:evenodd;clip-rule:evenodd;fill:#C3C4C8;}
	.st46{fill-rule:evenodd;clip-rule:evenodd;fill:#8697A7;}
	.st47{fill-rule:evenodd;clip-rule:evenodd;fill:#444546;}
	.st48{fill-rule:evenodd;clip-rule:evenodd;fill:#7D7E7F;}
	.st49{fill-rule:evenodd;clip-rule:evenodd;fill:#3E3E3F;}
</style>
<g id="Camada_2">
	<rect x="-8" y="1" class="st0" width="1926" height="398"/>
</g>
<g id="Camada_1">
	<g id="Camada_3">
	</g>
	<g>
		<g>
			<path class="st1" d="M320.8,264.7c-1.6,0-2.9-1.5-2.9-3.3c0-15.9,2.7-30.2,8-42.5c4.3-9.9,10.2-18.4,17.7-25.5
				c6.6-6.2,13.2-10.1,17.6-12.2c4.8-2.3,8.1-3.2,8.2-3.2c1.6-0.4,3.2,0.7,3.5,2.5c0.4,1.8-0.6,3.5-2.2,3.9l0,0c0,0-3,0.8-7.4,2.9
				c-4,2-10.1,5.5-16.1,11.3c-15.5,14.7-23.3,35.8-23.3,62.8C323.7,263.3,322.4,264.7,320.8,264.7z"/>
			<path class="st1" d="M477.1,264.7c1.6,0,2.9-1.5,2.9-3.3c0-15.9-2.7-30.2-8-42.5c-4.3-9.9-10.2-18.4-17.7-25.5
				c-6.6-6.2-13.2-10.1-17.6-12.2c-4.8-2.3-8.1-3.2-8.2-3.2c-1.6-0.4-3.2,0.7-3.5,2.5c-0.4,1.8,0.6,3.5,2.2,3.9l0,0
				c0,0,3,0.8,7.4,2.9c4,2,10.1,5.5,16.1,11.3c15.5,14.7,23.3,35.8,23.3,62.8C474.2,263.3,475.5,264.7,477.1,264.7z"/>
			<path class="st2" d="M400.4,125.1c-24.5,0-44.4,14.6-45.2,32.7h90.4C444.9,139.6,424.9,125.1,400.4,125.1z"/>
			<path class="st3" d="M334,169.3c5.5-1.2,48.2-3.7,48.2-3.7c0.9-0.3,34.2,0.5,36,0.3c1.8-0.3,34.7,1.3,34.7,1.3s13.8,1.5,15.8,1.8
				c2.1,0.3,44.7,5.8,50.5,6.1c3.5,0.2,8.8-0.8,12.5-1.6c0,5.4-5.7,6.2-8,6.4c-2.3,0.2-12.6,0.6-17.1-0.8c-2.2-0.7-30-2.9-32.2-2.4
				c-5.5-1-15.6-2.5-20.6-1.2c-6,1.5-7.5,2-6.7,4.3c-2.3,0.6-10.4,2.5-11.7,2.8c-1.5,0.3-4,1.5-4.4,1.5s-9,0-9,0s-1.7,2.9-2.1,4.2
				c-0.4,1.3-1,3.1-3.3,4.5v2.5l-0.1,0v-4.4h-30v1.9c-2.3-1.4-2.9-3.1-3.3-4.5c-0.4-1.3-2.1-4.2-2.1-4.2s-8.6,0-9,0
				c-0.4,0-2.9-1.1-4.4-1.5c-1.5-0.3-12.3-3-12.3-3s-17.1-0.9-20.4-1.3c-3.3-0.4-8.6-3.2-13-1.7c-4.4,1.4-14.7,1-17.1,0.8
				c-2.3-0.2-8.3-1.1-7.9-6.9C302.7,173.9,329,170.4,334,169.3z"/>
			<path class="st2" d="M302.7,164c0,0,17.8-1.7,19.6-1.8c1.8-0.1,11-0.9,11-0.9c1.8-0.7,34.6-4.8,34.6-4.8
				c3.3-5.2,12.7-8.3,12.7-8.3c4.7-9.8,7.9-10.5,7.9-10.5c-1.7,1.4-4.2,6-4.4,8c-0.2,2,0,2.6,4.6,3.8c4.7,1.2,8.1,8.4,8.1,8.4
				s1.3,3.4,5,3.8c3.7-0.4,5-3.8,5-3.8s3.4-7.2,8.1-8.4c4.7-1.2,4.8-1.8,4.6-3.8c-0.2-2-2.7-6.6-4.4-8c0,0,3.3,0.7,7.9,10.5
				c0,0,9.4,3.1,12.6,8.3c0,0,32.8,4.1,34.6,4.8c0,0,34.5,3.3,36.4,3.4c1.8,0.1,19.6,1.8,19.6,1.8s4.6-0.4,5.3,5.9
				c0,0.3,0.1,0.7,0.1,1c-3.7,0.8-9,1.8-12.5,1.6c-5.7-0.3-48.4-5.7-50.5-6c-2.1-0.3-15.9-1.5-15.9-1.5s-32.7-2-34.6-1.7
				c-1.8,0.3-35.1-0.5-36-0.3c0,0-42.8,2.4-48.2,3.7c-5,1.1-31.3,4.6-36.7,1.1c0-0.1,0-0.3,0-0.4C298.1,163.7,302.7,164,302.7,164z"
				/>
			<path class="st4" d="M419.3,231.9c0.4-3.6-19.2-3.3-19.2-3.3s-14.5,0.9-16.6,1.3c-2.1,0.3-2.5,1.8-2.5,1.8c0,4.5-1.6,3.1-1.6,3.1
				l-0.2,23.9h41.6v-23.9C419,234.7,419.3,231.9,419.3,231.9z"/>
			<path class="st5" d="M421.3,257.8c0,1.6-1.2,2.9-2.6,2.9h-37.1c-1.5,0-2.6-1.3-2.6-2.9v-22.6c0-1.6,1.2-2.9,2.6-2.9h37.1
				c1.5,0,2.6,1.3,2.6,2.9V257.8z"/>
			<path class="st3" d="M422.8,228.3c-0.2-2.7-17.1-2.6-17.1-2.6c-1.6-1-2.2-3.8-2.2-3.8l-0.3,0V221l-3.1,0.4l-3.1-0.4v0.8l-0.3,0
				c0,0-0.6,2.8-2.2,3.8c0,0-16.9-0.1-17.1,2.6c-0.2,2.7,0,33.6,0,33.6s-0.6,5,3.6,5c2.6,0,10.4,0,16,0c3.5,0,6.1,0,6.1,0
				c5.6,0,13.5,0,16,0c4.2,0,3.6-5,3.6-5S423,231,422.8,228.3z M420.7,258.7h-41.6l-0.2-23.8c0,0,2.1,1.2,2.1-3.3
				c0,0,0.5-1.4,2.5-1.8c2.1-0.3,16.6-1.3,16.6-1.3s19.6-0.3,19.2,3.3c0,0-0.3,2.8,1.4,3V258.7z"/>
			<ellipse class="st6" cx="477.3" cy="264.5" rx="8" ry="8.5"/>
			<ellipse class="st6" cx="321.7" cy="263.2" rx="8" ry="8.5"/>
			<path class="st3" d="M468.7,169.3c-5.5-1.2-48.2-3.7-48.2-3.7c-0.9-0.3-34.2,0.5-36,0.3c-1.8-0.3-34.7,1.3-34.7,1.3
				s-13.8,1.5-15.8,1.8c-2.1,0.3-44.7,5.8-50.5,6.1c-3.5,0.2-8.8-0.8-12.5-1.6c0,5.4,5.7,6.2,8,6.4c2.3,0.2,12.6,0.6,17.1-0.8
				c2.2-0.7,30-2.9,32.2-2.4c5.5-1,15.6-2.5,20.6-1.2c6,1.5,7.5,2,6.7,4.3c2.3,0.6,10.4,2.5,11.7,2.8c1.5,0.3,4,1.5,4.4,1.5
				c0.4,0,9,0,9,0s1.7,2.9,2.1,4.2c0.4,1.3,1,3.1,3.3,4.5v2.5l0.1,0v-4.4h30v1.9c2.3-1.4,2.9-3.1,3.3-4.5c0.4-1.3,2.1-4.2,2.1-4.2
				s8.6,0,9,0c0.4,0,2.9-1.1,4.4-1.5c1.5-0.3,12.3-3,12.3-3s17.1-0.9,20.4-1.3c3.3-0.4,8.6-3.2,13-1.7c4.4,1.4,14.7,1,17.1,0.8
				c2.3-0.2,11.2,3.1,10.8-2.7C503,178.1,473.7,170.4,468.7,169.3z"/>
			<path class="st2" d="M500,164c0,0-17.8-1.7-19.6-1.8c-1.8-0.1-11-0.9-11-0.9c-1.8-0.7-34.6-4.8-34.6-4.8
				c-3.3-5.2-12.7-8.3-12.7-8.3c-4.7-9.8-7.9-10.5-7.9-10.5c1.7,1.4,4.2,6,4.4,8c0.2,2,0,2.6-4.6,3.8c-4.7,1.2-8.1,8.4-8.1,8.4
				s-1.3-5.4-5-5c-3.7-0.4-5,5-5,5s-3.4-7.2-8.1-8.4c-4.7-1.2-4.8-1.8-4.6-3.8c0.2-2,2.7-6.6,4.4-8c0,0-3.3,0.7-7.9,10.5
				c0,0-9.4,3.1-12.6,8.3c0,0-32.8,4.1-34.6,4.8c0,0-34.5,3.3-36.4,3.4c-1.8,0.1-19.6,1.8-19.6,1.8s-4.6-0.4-5.3,5.9
				c0,0.3-0.1,0.7-0.1,1c3.7,0.8,9,1.8,12.5,1.6c5.7-0.3,48.4-5.7,50.5-6c2.1-0.3,15.9-1.5,15.9-1.5s32.7-2,34.6-1.7
				c1.8,0.3,35.1-0.5,36-0.3c0,0,42.8,2.4,48.2,3.7c5,1.1,31.3,4.6,36.7,1.1c0-0.1,0-0.3,0-0.4C504.6,163.7,500,164,500,164z"/>
			<path class="st7" d="M386,190.7v4.4l-0.1,0v13c0,0,1,1.5,2.1,2.2c0,0-0.1,4.2,1.2,4.2v5.1c0,0,0.1,1.2,2.6,1.5c0,0,2,1.3,3.7,1.5
				v0h0.3h10h0.3v0c1.7-0.2,3.7-1.5,3.7-1.5c2.5-0.4,2.6-1.5,2.6-1.5v-5.1c1.3,0,1.2-4.2,1.2-4.2c1.1-0.7,2.1-2.2,2.1-2.2v-15.5
				c0,0,0,0,0,0v-1.9H386z"/>
			<path class="st8" d="M348.9,175.4c-5-1.3-15.1,0.2-20.6,1.2c2.3,0.6,4.6,1.4,6.3,1.6c3.3,0.4,20.4,1.3,20.4,1.3s0.2,0.1,0.6,0.2
				C356.4,177.4,354.9,176.9,348.9,175.4z"/>
			<path class="st9" d="M280.3,144.8"/>
			<path class="st10" d="M278.6,146.8c0,0-0.7-0.4-0.7-1c0-0.6,1.5-10,5.5-10c4,0,5.5,10,5.5,10s0,1-0.7,1
				C287.5,146.8,278.6,146.8,278.6,146.8z"/>
			<path class="st10" d="M524,148.5c0,0,0.7-0.4,0.7-1c0-0.6-1.5-10-5.5-10c-4,0-5.5,10-5.5,10s0,1,0.7,1
				C515.1,148.5,524,148.5,524,148.5z"/>
			<path class="st11" d="M529.4,170.8v-8l-20.8-0.2v8.1c0,0,0.2,1.2,10.1,1.2C528.6,171.9,529.4,170.8,529.4,170.8z"/>
			<path class="st10" d="M524.1,155l0.5,0.2l4.7,3.5v4.3c0,0,0.3,0.8-10.3,0.8c-10.5,0-10.5-1-10.5-1v-4.5l5.5-3.3H524.1z"/>
			<path class="st12" d="M459.1,151c1.7,0.1,19.5-1.2,22.3-1.5c2.8-0.2,16.3-1.7,17.7-1.7c1.3,0,10.3,0.8,11.1,1
				c0.6,0.1,2.1,0.3,2.9,0.4c0.1-0.4,0.3-0.7,1-0.7h10.3c0.2,0,0.4,0.2,0.5,0.6c0.9-0.1,2.2-0.3,3.4-0.6c1.8-0.5,7.6-1.8,11.9-1.8
				c4.3,0,13.4-0.1,16-0.4c2.6-0.3,22-2.2,21.9-1.7c-0.1,0.5-2,1-8.7,2.4c-6.6,1.4-29.1,5.7-33,5.9c-3.3,0.2-9.5,0.6-11.3,0.8
				c-0.1,1.1-0.5,2.1-1.6,2.1H515c-0.6,0-1-0.3-1.3-0.7c-5.6-0.1-18,1.2-23.4,1.6c-5.7,0.4-17.2-0.7-20.4-0.9
				c-3.2-0.3-10.7-1.2-12.5-2.4C455.7,152,457.4,150.8,459.1,151z"/>
			<path class="st11" d="M273.2,169.1v-8l20.8-0.2v8.1c0,0-0.2,1.2-10.1,1.2S273.2,169.1,273.2,169.1z"/>
			<path class="st10" d="M278.5,153.2l-0.5,0.2l-4.7,3.5v4.3c0,0-0.3,0.8,10.3,0.8c10.5,0,10.5-1,10.5-1v-4.5l-5.5-3.3H278.5z"/>
			<path class="st8" d="M452.7,175.4c5-1.3,15.1,0.2,20.6,1.2c-2.3,0.6-4.6,1.4-6.3,1.6c-3.3,0.4-20.4,1.3-20.4,1.3
				s-0.2,0.1-0.6,0.2C445.2,177.4,446.7,176.9,452.7,175.4z"/>
			<path class="st13" d="M300.6,167.9c-0.2,0.7-0.6,1.3-0.9,1.1c-0.3-0.1-0.4-0.8-0.1-1.5c0.2-0.7,0.6-1.3,0.9-1.1
				C300.8,166.5,300.8,167.1,300.6,167.9z"/>
			<path class="st13" d="M303,167.7c-0.2,0.7-0.6,1.3-0.9,1.1c-0.3-0.1-0.4-0.8-0.1-1.5c0.2-0.7,0.6-1.3,0.9-1.1
				C303.2,166.3,303.2,167,303,167.7z"/>
			<path class="st13" d="M305,167.6c-0.2,0.7-0.6,1.3-0.9,1.1c-0.3-0.1-0.4-0.8-0.1-1.5c0.2-0.7,0.6-1.3,0.9-1.1
				C305.2,166.2,305.3,166.9,305,167.6z"/>
			<path class="st13" d="M307.4,167.4c-0.2,0.7-0.6,1.3-0.9,1.1c-0.3-0.1-0.4-0.8-0.1-1.5c0.2-0.7,0.6-1.3,0.9-1.1
				C307.6,166,307.6,166.7,307.4,167.4z"/>
			<path class="st13" d="M309.5,167.4c-0.2,0.7-0.6,1.3-0.9,1.1c-0.3-0.1-0.4-0.8-0.1-1.5c0.2-0.7,0.6-1.3,0.9-1.1
				C309.7,166,309.8,166.6,309.5,167.4z"/>
			<path class="st13" d="M494.6,167.5c0.2,0.7,0.6,1.3,0.9,1.1c0.3-0.1,0.4-0.8,0.1-1.5c-0.2-0.7-0.6-1.3-0.9-1.1
				C494.5,166.1,494.4,166.8,494.6,167.5z"/>
			<path class="st13" d="M492.2,167.4c0.2,0.7,0.6,1.3,0.9,1.1c0.3-0.1,0.4-0.8,0.1-1.5c-0.2-0.7-0.6-1.3-0.9-1.1
				C492.1,165.9,492,166.6,492.2,167.4z"/>
			<path class="st13" d="M490.2,167.3c0.2,0.7,0.6,1.3,0.9,1.1c0.3-0.1,0.4-0.8,0.1-1.5c-0.2-0.7-0.6-1.3-0.9-1.1
				C490,165.8,490,166.5,490.2,167.3z"/>
			<path class="st13" d="M487.8,167.1c0.2,0.7,0.6,1.3,0.9,1.1c0.3-0.1,0.4-0.8,0.1-1.5c-0.2-0.7-0.6-1.3-0.9-1.1
				C487.7,165.6,487.6,166.3,487.8,167.1z"/>
			<path class="st13" d="M485.7,167.1c0.2,0.7,0.6,1.3,0.9,1.1c0.3-0.1,0.4-0.8,0.1-1.5c-0.2-0.7-0.6-1.3-0.9-1.1
				C485.5,165.6,485.5,166.3,485.7,167.1z"/>
			<path class="st14" d="M264.6,146c-1.5-0.2-8.8,0.7-26.9-0.7c-3.8-0.3-6.6-0.6-8.8-1c1.1,0.3,2.6,0.5,4.3,0.9
				c6.6,1.4,29.1,5.7,33,5.9c3.2,0.2,9.2,0.6,11.2,0.8C276.7,149.4,266,146.3,264.6,146z"/>
			<path class="st12" d="M343.5,149.2c-1.7,0.1-19.5-1.2-22.3-1.5c-2.8-0.2-16.3-1.7-17.7-1.7c-1.3,0-10.3,0.8-11.1,1
				c-0.6,0.1-2.1,0.3-2.9,0.4c-0.1-0.4-0.3-0.7-1-0.7h-10.3c-0.2,0-0.4,0.2-0.5,0.6c-0.9-0.1-2.2-0.3-3.4-0.6
				c-1.8-0.5-7.6-1.8-11.9-1.8c-4.3,0-13.4-0.1-16-0.4c-2.6-0.3-22-2.2-21.9-1.7c0.1,0.4,1.1,0.8,4.4,1.5c2.2,0.4,5.1,0.7,8.8,1
				c18.1,1.3,25.4,0.4,26.9,0.7c1.4,0.2,12.1,3.4,12.8,5.9c0,0,0.1,0,0.1,0c0.1,1.1,0.5,2.1,1.6,2.1h8.4c0.6,0,1-0.3,1.3-0.7
				c5.6-0.1,18,1.2,23.4,1.6c5.7,0.4,17.2-0.7,20.4-0.9c3.2-0.3,10.7-1.2,12.5-2.4C346.9,150.3,345.2,149.1,343.5,149.2z"/>
			<path class="st15" d="M387.1,198.5v9.7c0,0-0.9,2,13.9,2c14.9,0,13.5-1.2,13.5-1.2v-10.4c0,0-8.7,0.5-12.3,0.5
				C398.7,199.1,387.1,198.5,387.1,198.5z"/>
			<ellipse cx="400.8" cy="204.5" rx="3.8" ry="4.2"/>
			<ellipse class="st16" cx="400.8" cy="204.5" rx="2.9" ry="3.2"/>
			<path class="st17" d="M359.4,174.9c-0.1,0-0.1,0-0.2-0.1c-0.1-0.1,0-0.3,0.1-0.3l2.3-1.9c0.1-0.1,0.2-0.1,0.3,0.1
				c0.1,0.1,0,0.3-0.1,0.3l-2.3,1.9C359.5,174.9,359.4,174.9,359.4,174.9z"/>
			<path class="st17" d="M361.4,175.6c-0.1,0-0.1,0-0.2-0.1c-0.1-0.1-0.1-0.3,0-0.3l3.5-3c0.1-0.1,0.2-0.1,0.3,0
				c0.1,0.1,0.1,0.3,0,0.3l-3.5,3C361.5,175.6,361.5,175.6,361.4,175.6z"/>
			<path class="st17" d="M363.6,176.3c0,0-0.1,0-0.1-0.1c-0.1-0.1-0.1-0.2,0-0.3c0.1-0.1,2-2.8,4.1-4c0.1-0.1,0.2,0,0.3,0.1
				c0.1,0.1,0,0.3-0.1,0.3c-2,1.1-3.9,3.8-4,3.8C363.7,176.3,363.6,176.3,363.6,176.3z"/>
			<path class="st17" d="M365.5,177.5C365.5,177.5,365.5,177.5,365.5,177.5c-0.2-0.1-0.2-0.2-0.2-0.3c0.4-1.6,4.9-5,5.4-5.4
				c0.1-0.1,0.2,0,0.3,0.1c0.1,0.1,0,0.3-0.1,0.3c-1.3,1-4.8,4-5.2,5.2C365.7,177.5,365.6,177.5,365.5,177.5z"/>
			<path class="st17" d="M367.4,178.7c0,0-0.1,0-0.1,0c-0.1-0.1-0.1-0.2-0.1-0.3c0.1-0.2,2.8-4.6,5.2-5.7c0.1-0.1,0.2,0,0.3,0.1
				c0,0.1,0,0.3-0.1,0.3c-2.3,1-5,5.5-5,5.5C367.6,178.6,367.5,178.7,367.4,178.7z"/>
			<path class="st17" d="M442.1,174.9c0.1,0,0.1,0,0.2-0.1c0.1-0.1,0-0.3-0.1-0.3l-2.3-1.9c-0.1-0.1-0.2-0.1-0.3,0.1
				c-0.1,0.1,0,0.3,0.1,0.3l2.3,1.9C442,174.9,442.1,174.9,442.1,174.9z"/>
			<path class="st17" d="M440,175.6c0.1,0,0.1,0,0.2-0.1c0.1-0.1,0.1-0.3,0-0.3l-3.5-3c-0.1-0.1-0.2-0.1-0.3,0
				c-0.1,0.1-0.1,0.3,0,0.3l3.5,3C440,175.6,440,175.6,440,175.6z"/>
			<path class="st17" d="M437.9,176.3c0,0,0.1,0,0.1-0.1c0.1-0.1,0.1-0.2,0-0.3c-0.1-0.1-2-2.8-4.1-4c-0.1-0.1-0.2,0-0.3,0.1
				c-0.1,0.1,0,0.3,0.1,0.3c2,1.1,3.9,3.8,4,3.8C437.8,176.3,437.9,176.3,437.9,176.3z"/>
			<path class="st17" d="M435.9,177.5C436,177.5,436,177.5,435.9,177.5c0.2-0.1,0.2-0.2,0.2-0.3c-0.4-1.6-4.9-5-5.4-5.4
				c-0.1-0.1-0.2,0-0.3,0.1c-0.1,0.1,0,0.3,0.1,0.3c1.3,1,4.8,4,5.2,5.2C435.8,177.5,435.8,177.5,435.9,177.5z"/>
			<path class="st17" d="M428.1,178.7C428.1,178.7,428.1,178.7,428.1,178.7c0.1-0.1,0.2-0.3,0.1-0.4c-0.1-0.2-1.8-4.6-3.4-5.7
				c-0.1-0.1-0.2,0-0.2,0.1c0,0.1,0,0.3,0.1,0.3c1.5,1,3.2,5.5,3.3,5.5C428,178.6,428,178.7,428.1,178.7z"/>
			<ellipse class="st9" cx="386.9" cy="239.5" rx="3.3" ry="3.6"/>
			<path class="st18" d="M387.7,238.1v0.4c0,0,0,0,0,0c0.4,0.3,0.7,0.8,0.7,1.4c0,0.9-0.7,1.6-1.5,1.6c-0.8,0-1.5-0.7-1.5-1.6
				c0-0.6,0.3-1.1,0.7-1.4c0,0,0,0,0,0v-0.4c-0.6,0.3-1,1-1,1.7c0,1.1,0.8,1.9,1.7,1.9c1,0,1.7-0.9,1.7-1.9
				C388.7,239,388.3,238.4,387.7,238.1z"/>
			<path class="st18" d="M387.1,239c0,0.1-0.1,0.2-0.2,0.2l0,0c-0.1,0-0.2-0.1-0.2-0.2v-1.5c0-0.1,0.1-0.2,0.2-0.2l0,0
				c0.1,0,0.2,0.1,0.2,0.2V239z"/>
			<ellipse class="st19" cx="410.4" cy="243.7" rx="9.1" ry="10.1"/>
			<ellipse class="st20" cx="410.4" cy="243.7" rx="6.9" ry="7.6"/>
			<path class="st4" d="M410.4,251.4c-3.8,0-6.9-3.4-6.9-7.7c0-4.2,3.1-7.7,6.9-7.7c3.8,0,6.9,3.4,6.9,7.7
				C417.3,247.9,414.2,251.4,410.4,251.4z M410.4,236.1c-3.8,0-6.9,3.4-6.9,7.6s3.1,7.6,6.9,7.6c3.8,0,6.9-3.4,6.9-7.6
				S414.2,236.1,410.4,236.1z"/>
			<ellipse class="st21" cx="410.4" cy="243.7" rx="5" ry="5.5"/>
			<ellipse class="st4" cx="408.1" cy="241.9" rx="1.4" ry="1.6"/>
			<path class="st21" d="M400.8,253.1c0,1.5-1.1,2.6-2.4,2.6h-14.9c-1.3,0-2.4-1.2-2.4-2.6l0,0c0-1.5,1.1-2.6,2.4-2.6h14.9
				C399.8,250.5,400.8,251.7,400.8,253.1L400.8,253.1z"/>
			<path class="st11" d="M352.6,159.4c0,0,46-6.1,91.4,0.2l-0.5-3.2c0,0-42.2-6.4-90.5,0.2C353.1,156.5,352.9,158.5,352.6,159.4z"/>
		</g>
		<g>
			<path d="M1369.5,185.1l2.6-11.4h-74.5v76.9h69c-6.2-8.7-9.8-19.4-9.8-30.9C1356.7,206.6,1361.5,194.5,1369.5,185.1z"/>
			<path d="M1464.2,219.8c0,11.5-3.7,22.1-9.8,30.9h48.2v-76.9h-54.4l2.4,10.5C1459,193.7,1464.2,206.1,1464.2,219.8z"/>
			<path class="st22" d="M1490.8,167.5c2.9,0,5.2-2.4,5.2-5.2c0-2.9-2.4-5.2-5.2-5.2c-2.9,0-5.2,2.4-5.2,5.2
				C1485.6,165.1,1487.9,167.5,1490.8,167.5z"/>
			<circle class="st22" cx="1309.1" cy="162.2" r="3.8"/>
			<path d="M1372.4,172.1h13.5c0.1-0.1,0.3-0.1,0.4-0.2h-88.4v-19.2h204.6v19.2h-67.9c0.1,0.1,0.3,0.1,0.4,0.2h12.8l0.1,0.5h55.2
				v-20.6h-206v20.6h75.1L1372.4,172.1z"/>
			<path class="st23" d="M1490.8,168.3c3.3,0,6-2.7,6-6s-2.7-6-6-6c-3.3,0-6,2.7-6,6S1487.5,168.3,1490.8,168.3z M1490.8,157
				c2.9,0,5.2,2.4,5.2,5.2c0,2.9-2.4,5.2-5.2,5.2c-2.9,0-5.2-2.4-5.2-5.2C1485.6,159.4,1487.9,157,1490.8,157z"/>
			<path class="st24" d="M1309.1,157.6c-2.5,0-4.6,2.1-4.6,4.6c0,2.5,2.1,4.6,4.6,4.6c2.5,0,4.6-2.1,4.6-4.6
				C1313.7,159.7,1311.6,157.6,1309.1,157.6z M1309.1,166.1c-2.1,0-3.8-1.7-3.8-3.8c0-2.1,1.7-3.8,3.8-3.8c2.1,0,3.8,1.7,3.8,3.8
				C1312.9,164.4,1311.2,166.1,1309.1,166.1z"/>
			<polygon points="1444.5,150.7 1436.6,142.7 1382.6,142.7 1383,142.3 1374.6,150.7 			"/>
			<polygon points="1419.1,124.7 1400.6,124.7 1383.4,141.9 1435.9,141.9 			"/>
			<polygon class="st25" points="1436.6,142.7 1436.6,142.7 1435.9,141.9 1435.9,141.9 1383.4,141.9 1383.4,141.9 1383,142.3 
				1382.6,142.7 			"/>
			<path class="st23" d="M1447.9,172.1H1435c0.5,0.3,1,0.5,1.5,0.8h10.8l2.3,10.2c0.4,0.4,0.7,0.8,1,1.2l-2.4-10.5l-0.2-1.1
				L1447.9,172.1z"/>
			<path class="st23" d="M1370.9,183.5l-0.4,0.2l2.4-10.9h11.4c0.5-0.3,1-0.5,1.5-0.8h-13.5l-0.1,0.5l-0.3,1.1l-2.6,11.4
				C1369.9,184.5,1370.4,184,1370.9,183.5z"/>
			<path class="st23" d="M1370.5,169l4.4-14.8h69.3l2.9,14.8h-19.3c0.7,0.2,1.4,0.5,2.1,0.8h18.1l-3.2-16.4h-70.5l-4.8,16.4h21.5
				c0.7-0.3,1.4-0.5,2.1-0.8H1370.5z"/>
			<path d="M1463.4,219.8c0-29.2-23.8-52.9-53-52.9c-29.2,0-53,23.7-53,52.9c0,29.2,23.8,52.9,53,52.9
				C1439.7,272.7,1463.4,249,1463.4,219.8z M1410.4,262.7c-23.7,0-43-19.3-43-43c0-23.7,19.3-43,43-43c23.7,0,43,19.3,43,43
				C1453.4,243.5,1434.1,262.7,1410.4,262.7z"/>
			<path class="st22" d="M1450.6,184.2c-0.3-0.4-0.7-0.8-1-1.2l-2.3-10.2h-10.8c-0.5-0.3-1-0.5-1.5-0.8c-0.1-0.1-0.3-0.1-0.4-0.2
				h67.9v-19.2h-204.6v19.2h88.4c-0.1,0.1-0.3,0.1-0.4,0.2c-0.5,0.3-1,0.5-1.5,0.8H1373l-2.4,10.9l0.4-0.2c-0.5,0.5-1,1-1.5,1.6
				c-8,9.4-12.8,21.5-12.8,34.7c0,11.5,3.7,22.1,9.8,30.9c0.6,0.9,1.2,1.7,1.9,2.5h-70.8c0.4,2.3-0.8,4.7,2.7,5.8
				c1,0.3,34.6,0.3,73.7,0.2c9.6,8.9,22.4,14.4,36.5,14.4c14.2,0,27.1-5.6,36.7-14.6c24.1-0.1,42.9-0.1,47.8,0
				c10,0.2,7.7-5.8,7.7-5.8h-50.1c0.7-0.8,1.3-1.7,1.9-2.5c6.2-8.7,9.8-19.4,9.8-30.9C1464.2,206.1,1459,193.7,1450.6,184.2z
				 M1410.4,272.7c-29.2,0-53-23.7-53-52.9c0-29.2,23.8-52.9,53-52.9c29.2,0,53,23.7,53,52.9C1463.4,249,1439.7,272.7,1410.4,272.7z
				 M1490.8,156.2c3.3,0,6,2.7,6,6s-2.7,6-6,6c-3.3,0-6-2.7-6-6S1487.5,156.2,1490.8,156.2z M1309.8,166.8c-2.5,0-4.6-2.1-4.6-4.6
				c0-2.5,2.1-4.6,4.6-4.6c2.5,0,4.6,2.1,4.6,4.6C1314.5,164.8,1312.4,166.8,1309.8,166.8z M1369.5,169.8l4.8-16.4h70.5l3.2,16.4
				h-18.1c-0.7-0.3-1.4-0.5-2.1-0.8h19.3l-2.9-14.8h-69.3l-4.4,14.8h22.5c-0.7,0.2-1.4,0.5-2.1,0.8H1369.5z"/>
			<path d="M1410.4,262c23.3,0,42.2-18.9,42.2-42.2c0-23.3-18.9-42.2-42.2-42.2c-23.3,0-42.2,18.9-42.2,42.2
				C1368.2,243,1387.2,262,1410.4,262z M1409.7,186c18.6,0,33.8,15.1,33.8,33.8c0,18.6-15.2,33.7-33.8,33.7
				c-18.6,0-33.8-15.1-33.8-33.7C1375.9,201.2,1391,186,1409.7,186z"/>
			<path class="st22" d="M1453.4,219.8c0-23.7-19.3-43-43-43c-23.7,0-43,19.3-43,43c0,23.7,19.3,43,43,43
				C1434.1,262.7,1453.4,243.5,1453.4,219.8z M1410.4,177.6c23.3,0,42.2,18.9,42.2,42.2c0,23.3-18.9,42.2-42.2,42.2
				c-23.3,0-42.2-18.9-42.2-42.2C1368.2,196.5,1387.2,177.6,1410.4,177.6z"/>
			<path d="M1409.7,252.8c18.2,0,33-14.8,33-33c0-18.2-14.8-33-33-33c-18.2,0-33,14.8-33,33C1376.7,238,1391.5,252.8,1409.7,252.8z
				 M1409.7,189.9c16.5,0,30,13.4,30,29.9c0,16.5-13.4,29.9-30,29.9c-16.5,0-29.9-13.4-29.9-29.9
				C1379.7,203.3,1393.2,189.9,1409.7,189.9z"/>
			<path class="st22" d="M1409.7,253.5c18.6,0,33.8-15.1,33.8-33.7c0-18.6-15.2-33.8-33.8-33.8c-18.6,0-33.8,15.1-33.8,33.8
				C1375.9,238.4,1391,253.5,1409.7,253.5z M1409.7,186.8c18.2,0,33,14.8,33,33c0,18.2-14.8,33-33,33c-18.2,0-33-14.8-33-33
				C1376.7,201.6,1391.5,186.8,1409.7,186.8z"/>
			<path d="M1409.7,248.9c16.1,0,29.2-13.1,29.2-29.2c0-16.1-13.1-29.1-29.2-29.1c-16.1,0-29.2,13.1-29.2,29.1
				C1380.5,235.9,1393.6,248.9,1409.7,248.9z M1410.4,195.6c13.3,0,24.2,10.8,24.2,24.2c0,13.3-10.9,24.2-24.2,24.2
				c-13.3,0-24.2-10.8-24.2-24.2C1386.3,206.5,1397.1,195.6,1410.4,195.6z"/>
			<path class="st22" d="M1409.7,249.7c16.5,0,30-13.4,30-29.9c0-16.5-13.4-29.9-30-29.9c-16.5,0-29.9,13.4-29.9,29.9
				C1379.7,236.3,1393.2,249.7,1409.7,249.7z M1409.7,190.6c16.1,0,29.2,13.1,29.2,29.1c0,16.1-13.1,29.2-29.2,29.2
				c-16.1,0-29.2-13.1-29.2-29.2C1380.5,203.7,1393.6,190.6,1409.7,190.6z"/>
			<path d="M1410.4,243.2c12.9,0,23.4-10.5,23.4-23.4c0-12.9-10.5-23.4-23.4-23.4c-12.9,0-23.4,10.5-23.4,23.4
				C1387,232.7,1397.5,243.2,1410.4,243.2z M1412.7,219.8c0,1.3-1,2.3-2.3,2.3c-1.3,0-2.3-1-2.3-2.3c0-1.3,1-2.3,2.3-2.3
				C1411.7,217.5,1412.7,218.5,1412.7,219.8z M1400.6,203.3c5.1,0,9.2,4.1,9.2,9.2c0,5.1-4.1,9.2-9.2,9.2c-5.1,0-9.2-4.1-9.2-9.2
				C1391.4,207.4,1395.5,203.3,1400.6,203.3z"/>
			<path class="st22" d="M1410.4,243.9c13.3,0,24.2-10.8,24.2-24.2c0-13.3-10.9-24.2-24.2-24.2c-13.3,0-24.2,10.8-24.2,24.2
				C1386.3,233.1,1397.1,243.9,1410.4,243.9z M1410.4,196.4c12.9,0,23.4,10.5,23.4,23.4c0,12.9-10.5,23.4-23.4,23.4
				c-12.9,0-23.4-10.5-23.4-23.4C1387,206.9,1397.5,196.4,1410.4,196.4z"/>
			<ellipse class="st22" cx="1400.6" cy="212.5" rx="9.2" ry="9.2"/>
			<path class="st22" d="M1408.1,219.8c0,1.3,1,2.3,2.3,2.3c1.3,0,2.3-1,2.3-2.3c0-1.3-1-2.3-2.3-2.3
				C1409.2,217.5,1408.1,218.5,1408.1,219.8z"/>
			<polygon points="1492.9,146 1462.6,146 1458.6,150.9 1496.4,150.9 			"/>
			<polygon points="1488.6,140.7 1466.8,140.7 1463.8,144.2 1491.2,144.2 			"/>
			<rect x="1347.2" y="139.6" width="22.8" height="11.1"/>
			<rect x="1303.5" y="146" width="24.3" height="4.9"/>
			<rect x="1331.1" y="141.3" width="13.6" height="9.3"/>
			<rect x="1331.1" y="136.8" width="13.6" height="3.7"/>
			<rect x="1304.2" y="143.2" width="22.9" height="1.9"/>
		</g>
		<g>
			<g>
				<path class="st26" d="M1073.8,269.2c0,2.5-1.9,4.5-4.2,4.5l0,0c-2.3,0-4.2-2-4.2-4.5v-0.1c0-2.5,1.9-4.5,4.2-4.5l0,0
					c2.3,0,4.2,2,4.2,4.5V269.2z"/>
				<path class="st26" d="M1087.5,269c0,2.8,2.1,5,4.7,5h1.6c2.6,0,4.7-2.2,4.7-5l0,0c0-2.8-2.1-5-4.7-5h-1.6
					C1089.6,264,1087.5,266.3,1087.5,269L1087.5,269z"/>
				<path class="st27" d="M1087.8,270.1c0,3.5-2.7,6.3-5.9,6.3h-2.3c-3.3,0-5.9-2.8-5.9-6.3v-2.5c0-3.5,2.7-6.3,5.9-6.3h2.3
					c3.3,0,5.9,2.8,5.9,6.3V270.1z"/>
				<g>
					<g>
						<ellipse class="st28" cx="1083.1" cy="128.2" rx="26.1" ry="5.3"/>
						<g>
							<path class="st29" d="M1080.8,275.1c-3.3,0-5.9-2.8-5.9-6.3c0-3.5,2.6-6.3,5.9-6.3c0.3,0,0.7,0,1,0.1v-3.6h-37.3V136.4h37.3
								v-6H1063c-1.3,0-2.4-1.1-2.4-2.5c0-1.4,1.1-2.5,2.4-2.5h18.8v-6h-34.2c-5.5,0-10.1,4.9-10.1,10.8v138
								c0,5.9,4.5,10.8,10.1,10.8h34.2V275C1081.5,275,1081.1,275.1,1080.8,275.1z M1070.5,271.3c-1.3,0-2.4-1.1-2.4-2.5
								c0-1.4,1.1-2.5,2.4-2.5c1.3,0,2.4,1.1,2.4,2.5C1072.9,270.2,1071.8,271.3,1070.5,271.3z"/>
							<path class="st30" d="M1114.1,119.3h-32.3v6h16.8c1.3,0,2.4,1.1,2.4,2.5c0,1.4-1.1,2.5-2.4,2.5h-16.8v6h35.3v122.5h-35.3v3.6
								c2.8,0.5,4.9,3.1,4.9,6.2c0,3.1-2.1,5.7-4.9,6.2v3.9h32.3c5.6,0,10.1-4.8,10.1-10.8v-138
								C1124.1,124.1,1119.6,119.3,1114.1,119.3z M1091.1,271.3c-1.3,0-2.4-1.1-2.4-2.5c0-1.4,1.1-2.5,2.4-2.5
								c1.3,0,2.4,1.1,2.4,2.5C1093.4,270.2,1092.4,271.3,1091.1,271.3z"/>
						</g>
					</g>
				</g>
			</g>
			<g>
				<polygon class="st27" points="1044.5,136.7 1044.5,258.3 1116.6,136.7 				"/>
				<polygon class="st31" points="1044.5,258.3 1044.5,259.2 1117.1,259.2 1117.1,136.7 1116.6,136.7 				"/>
			</g>
		</g>
		<g>
			<path class="st32" d="M864.2,237.3c0-1.4,0-2.8,0-4.2c0.1-4.2,0.1-8.5-0.7-12.6c-0.1-0.5-0.4-0.9-0.7-1.1c-1-2.8-2.9-5.5-4.6-7.8
				c-0.4-0.6-0.8-1.2-1.2-1.7l-0.9-1.3c-2-2.9-4-5.9-6.6-8.2v-5.5c0.4-13.4,0.8-27.4,1.2-43c0.1-5.7-0.3-16.1-5.3-21.2
				c-2-2-4.5-3.1-7.4-3.1c-0.7,0-1.4,0.1-2.1,0.2c-10.5-0.9-21.1-1-29.2-1c-4.2,0-8.4,0-12.6,0.1c-4.2,0-8.3,0.1-12.5,0.1
				c0,0-2.3,0-3.4,0c-5.1,0-10.2-0.1-15.2-0.2c-6-0.1-12.3-0.2-18.4-0.2c-9.1,0-16.6,0.2-23.5,0.7c-0.9-0.4-1.9-0.6-2.9-0.6
				c-2.6,0-5.3,1.2-7.5,3.4c-4.5,4.5-4.5,11.2-4.5,16.6c0.1,19.6,0.2,37,0.5,53.2c0,0.1,0,0.1,0,0.2c-2.1,2.3-3.9,5-5.6,7.6
				c-0.5,0.7-1,1.5-1.4,2.2c-0.5,0.8-1.1,1.6-1.7,2.4c-2,2.6-4,5.4-4.8,8.4c-0.1,0.5-0.1,1,0.2,1.5c0.1,0.1,0.2,0.2,0.2,0.3
				c-0.6,5.7-0.3,11.8,0,17.6c0.1,2.9,0.3,5.6,0.3,8.2c0,1-0.1,2.1-0.1,3.4c-0.2,3.2-0.4,7.3,0.6,10.4c0,0.1,0.1,0.2,0.1,0.4
				c0.5,1.4,1.2,2.5,2.1,3.3c0.3,0.2,0.6,0.4,0.9,0.4c0,0,0,0,0,0c0,0,0.3,0.3,0.3,0.3c0.1,0.1,0.2,0.2,0.3,0.2
				c5.2,4.2,12.7,4.7,18.7,4.7c1.9,0,3.8-0.1,5.6-0.1c1.4,0,2.8-0.1,4.1-0.1l115.6-0.8c0.9,0,1.8,0,2.7,0.1c1,0,2,0.1,2.9,0.1
				c2.3,0,5.2-0.1,7.8-1.1c6.5-1.3,8.5-10.4,8.6-15.1c0.1-3.9,0-7.9,0-11.8C864.3,240.8,864.3,239,864.2,237.3z"/>
			<g>
				<g>
					<path class="st33" d="M720.4,129.2h116.7c6.3,0,11.5,5.2,11.5,11.5V201c3.5,5.4,13.5,19.7,13.5,19.7v37.8
						c0,5.3-4.3,9.6-9.6,9.6H705c-5.3,0-9.6-4.3-9.6-9.6v-37.8c0,0,10-14.4,13.5-19.7v-60.3C708.9,134.3,714,129.2,720.4,129.2z"/>
					<path class="st34" d="M862,220.7v37.8c0,5.3-4.3,9.6-9.6,9.6H705c-5.3,0-9.6-4.3-9.6-9.6v-37.8H862z"/>
					<path class="st34" d="M845.7,199.9v-56.7c0-4.7-3.9-8.6-8.6-8.6H720.4c-4.7,0-8.6,3.9-8.6,8.6v56.7H845.7z"/>
					<g>
						<g>
							<path class="st33" d="M828.2,192.2c5.2,0,9.4-4.2,9.4-9.4c0-5.2-4.2-9.4-9.4-9.4c-5.2,0-9.4,4.2-9.4,9.4
								C818.8,187.9,823,192.2,828.2,192.2z"/>
							<path class="st35" d="M828.2,188.2c3,0,5.5-2.5,5.5-5.5c0-3-2.5-5.5-5.5-5.5c-3,0-5.5,2.5-5.5,5.5
								C822.7,185.8,825.2,188.2,828.2,188.2z"/>
						</g>
						<g>
							<path class="st33" d="M729.2,192.2c5.2,0,9.4-4.2,9.4-9.4c0-5.2-4.2-9.4-9.4-9.4c-5.2,0-9.4,4.2-9.4,9.4
								C719.8,187.9,724,192.2,729.2,192.2z"/>
							<path class="st36" d="M729.2,188.2c3,0,5.5-2.5,5.5-5.5c0-3-2.5-5.5-5.5-5.5c-3,0-5.5,2.5-5.5,5.5
								C723.7,185.8,726.2,188.2,729.2,188.2z"/>
						</g>
					</g>
					<g>
						<path class="st33" d="M717.6,146.8h23.9c1.1,0,1.9,0.9,1.9,1.9v8.3c0,1.1-0.9,1.9-1.9,1.9h-23.9c-1.1,0-1.9-0.9-1.9-1.9v-8.3
							C715.7,147.6,716.6,146.8,717.6,146.8z"/>
						<rect x="717.6" y="148.7" class="st35" width="23.9" height="8.3"/>
					</g>
					<path class="st33" d="M818.4,138.2h19.1c3,0,5.5,2.5,5.5,5.5v14.8c0,3-2.5,5.5-5.5,5.5h-19.1c-3,0-5.5-2.5-5.5-5.5v-14.8
						C812.9,140.7,815.4,138.2,818.4,138.2z"/>
					<path class="st35" d="M820.9,140.2h14c3.4,0,6.2,2.8,6.2,6.2v9.7c0,3.4-2.8,6.2-6.2,6.2h-14c-3.4,0-6.2-2.8-6.2-6.2v-9.7
						C814.8,142.9,817.6,140.2,820.9,140.2z"/>
					<g>
						<path class="st37" d="M828,160.4c5.1,0,9.2-4.1,9.2-9.2S833,142,828,142c-5.1,0-9.2,4.1-9.2,9.2S822.9,160.4,828,160.4z"/>
						<circle class="st38" cx="825.9" cy="148.9" r="4.2"/>
					</g>
					<g>
						<polygon class="st39" points="767.5,241.5 745.8,241.5 745.8,220.7 756.8,199.9 756.8,199.9 756.8,189.4 771.2,189.4 
							771.2,199.9 771.3,199.9 767.5,220.7 						"/>
						<polygon class="st40" points="811.6,220.7 811.6,241.5 789.9,241.5 789.9,220.7 786.1,199.9 786.2,199.9 786.2,189.4 
							800.7,189.4 800.7,199.9 800.6,199.9 						"/>
						<polygon class="st41" points="789.9,220.7 789.9,241.5 767.5,241.5 767.5,220.7 771.3,199.9 771.2,199.9 771.2,189.4 
							786.2,189.4 786.2,199.9 786.1,199.9 						"/>
					</g>
					<g>
						<polygon class="st42" points="756.8,199.9 756.8,199.9 756.8,189.4 771.2,189.4 771.2,199.9 						"/>
						<polygon class="st43" points="786.2,199.9 786.2,189.4 800.7,189.4 800.7,199.9 800.6,199.9 						"/>
						<polygon class="st41" points="771.3,199.9 771.2,199.9 771.2,189.4 786.2,189.4 786.2,199.9 786.1,199.9 						"/>
					</g>
					<rect x="745.8" y="220.7" class="st42" width="21.7" height="20.8"/>
					<rect x="789.9" y="220.7" class="st43" width="21.7" height="20.8"/>
					<rect x="767.5" y="220.7" class="st44" width="22.3" height="20.8"/>
					<rect x="756.1" y="129.2" class="st35" width="45.1" height="3.5"/>
					<path class="st45" d="M779.3,204.1c17.9,0,32.4-14.6,32.4-32.4c0-17.9-14.6-32.4-32.4-32.4c-17.9,0-32.4,14.6-32.4,32.4
						C746.9,189.6,761.5,204.1,779.3,204.1z"/>
					<path class="st36" d="M779.3,199.6c15.4,0,27.9-12.5,27.9-27.9s-12.5-27.9-27.9-27.9c-15.4,0-27.9,12.5-27.9,27.9
						S764,199.6,779.3,199.6z"/>
					<circle class="st35" cx="779.3" cy="171.7" r="24.3"/>
					<path class="st46" d="M779.3,187.5c8.7,0,15.8-7.1,15.8-15.8s-7.1-15.8-15.8-15.8c-8.7,0-15.8,7.1-15.8,15.8
						S770.6,187.5,779.3,187.5z"/>
					<path class="st38" d="M775.8,175.1c4,0,7.3-3.3,7.3-7.3c0-4-3.3-7.3-7.3-7.3c-4,0-7.3,3.3-7.3,7.3
						C768.5,171.8,771.8,175.1,775.8,175.1z"/>
					<path class="st47" d="M862,238.6v19.9c0,5.3-4.3,9.6-9.6,9.6H705c-5.3,0-9.6-4.3-9.6-9.6v-19.9H862z"/>
					<rect x="742" y="243.4" class="st48" width="73.3" height="4.6"/>
				</g>
				<g>
					<path class="st49" d="M863.2,237.3c0-5.5,0.4-11.2-0.6-16.6c-0.1-0.3-0.3-0.5-0.5-0.5c-1.1-3.5-3.8-6.9-5.8-9.8
						c-2.3-3.3-4.7-7.1-7.8-9.7c0.5-16.3,1-32.6,1.4-48.9c0.2-8.6-1.1-25-13.7-22.9c-19.1-1.6-38.6-0.7-57.7-0.8
						c-19-0.1-38.3-1-57.3,0.3c-3.3-1.4-7,0-9.5,2.5c-4.1,4.1-4.2,10.4-4.1,15.9c0,17.7,0.2,35.5,0.5,53.2c0,0.2,0.1,0.4,0.2,0.5
						c-2.9,3-5.1,6.7-7.4,10.1c-2.2,3.2-5.4,6.7-6.3,10.5c-0.1,0.5,0.2,0.9,0.5,1c-0.9,8.6,0.1,17.8,0.2,26.4
						c0,3.5-0.9,9.4,0.4,13.6c0,0.1,0,0.1,0.1,0.2c0,0,0,0,0,0c0.4,1.2,1,2.2,1.8,3c0.2,0.2,0.4,0.1,0.5-0.1
						c7,6.8,19.8,5.2,28.7,5.2l46.3-0.3c15.1-0.1,30.2-0.2,45.3-0.3c7.9-0.1,15.8-0.1,23.7-0.2c4.3,0,9.3,0.6,13.4-1
						c5.6-1,7.7-9,7.8-14.1C863.4,248.7,863.2,243,863.2,237.3z M860.9,237.6c-23.7,0.7-47.3,0.8-70.9,0.8c0.6-5.2,0.4-10.7,0.5-16
						c0.2,0,0.3-0.1,0.3-0.3c0-0.3-0.1-0.6-0.1-0.9c1.9,0,3.8,0,5.7,0c5,0,10,0.1,15,0.1c0,0.1,0.1,0.1,0.1,0.2
						c-0.4,2.8-0.2,5.8-0.2,8.6c0,2.6-0.1,5.3,0.3,7.9c0,0.3,0.5,0.3,0.5,0c0.4-3,0.1-6.1,0-9.1c0-2.2,0-4.5-0.3-6.7
						c0.3,0.3,0.9,0,0.7-0.5c-0.1-0.1-0.1-0.3-0.2-0.4c16.2,0.1,32.4,0.3,48.6,0.5c0.1,0.1,0.2,0.2,0.3,0.3
						C860.5,227.2,860.7,232.4,860.9,237.6z M696.9,220.7c0.4,0,0.7,0,1.1,0c-0.5,1-1.1,2.1-1.7,3.1c-0.1-0.8-0.2-1.6-0.3-2.3
						C696.3,221.2,696.6,221,696.9,220.7z M696.3,224.3c0.7-1.2,1.4-2.4,2.1-3.5c15.8,0.4,31.6,0.4,47.4,0.4
						c-0.2,5.7-0.2,11.4-0.1,17c-16.3-0.1-32.7-0.3-49.1-0.4c-0.1,0-0.2,0-0.3,0.1C696.5,233.3,696.7,228.7,696.3,224.3z
						 M707.3,204.4c0.7-1.2,1.4-2.4,2-3.7c0-0.1,0-0.1,0-0.2c0-0.1,0.1-0.2,0.1-0.3c15.6,0.4,31.2,0.3,46.8,0.2
						c-3.7,6.4-6.9,13-9.8,19.8c0-0.3-0.5-0.3-0.5,0c0,0,0,0,0,0.1c-15.8-0.1-31.5-0.2-47.3,0.1
						C701.8,215.2,704.8,209.8,707.3,204.4z M758.7,148.6c5.8-4.4,13.4-7.9,20.7-8.3c4.3,0.5,8.6,1.8,12.7,3.5
						c2.8,1.1,5.3,2.7,7.6,4.7c11.4,12.7,13,29.6,4.3,44.1c-0.2,0.3-0.4,0.6-0.7,0.9c-2.1,2.6-4.6,4.6-7.3,6.2c0,0-0.1,0-0.1,0
						c-0.1,0-0.1,0.1-0.1,0.1c-5.7,3.1-12.6,3.9-19.3,2.9c0-0.1-0.1-0.2-0.2-0.2c-17.4-2.2-29.4-19.1-26.2-36.3
						C751.2,159.7,754.3,153.5,758.7,148.6z M759.4,147.9c1.2-1.3,2.6-2.5,4-3.6c3.9-3,8.3-4.1,12.9-4.1
						C770.3,141.3,764.2,144.4,759.4,147.9z M846.8,200.8c-0.1-0.3-0.2-0.6-0.3-0.9c0.1,0,0.2,0,0.3,0
						C846.8,200.2,846.8,200.5,846.8,200.8z M846.9,202.8c0,0.2,0,0.4,0,0.6c0,0.5,0.4,0.8,0.8,0.8c0.3,0.5,0.7,0.9,1.1,1.3
						c3.3,4.9,6.9,9.7,10.5,14.4c-15.8,0.3-31.6,0.6-47.4,0.9c-3.5-6.9-7-14-11.1-20.6c15,0.6,29.9,0.4,44.9-0.3
						C846,200.9,846.4,201.9,846.9,202.8z M747.1,220.3c3-6.7,6.2-13.4,9.6-19.9c0.2,0.1,0.4,0,0.5-0.1c2.2,0,4.4,0,6.6-0.1
						c0.1,0,0.1,0,0.2-0.1c2.1,1.1,4.3,2.1,6.6,2.8c-1.5,5.5-3,11.4-3.6,16.9c0,0,0,0,0,0c-5-0.2-10-0.1-15,0.4
						C750.3,220.3,748.7,220.3,747.1,220.3z M767.4,220.2c0,0.1,0,0.2,0,0.3c-4.7,0-9.4-0.1-14.1-0.1C758,220,762.7,220,767.4,220.2
						z M768,220.3c1.7,0.1,3.4,0.2,5.1,0.3c-1.7,0-3.4,0-5.1,0C768,220.4,768,220.4,768,220.3z M774.1,220.3c-2-0.1-4.1-0.2-6.1-0.3
						c0-0.2,0-0.4,0-0.5c0-0.2-0.1-0.2-0.2-0.3c1.7-5,2.8-10.7,3.4-16c5,1.5,10.3,2,15.3,1.3c1.1,5.4,2,10.8,3.3,16.1
						c-3.6,0-7.3-0.1-10.9-0.1C777.3,220.5,775.7,220.4,774.1,220.3z M798.5,200.1c0.6,0,1.2,0.1,1.8,0.1c3,7,6.9,13.9,10.7,20.6
						c-0.8,0-1.6,0-2.4,0c-6,0-12-0.1-18-0.1c-0.7-5.4-2.1-10.9-3.5-16.2C791.1,203.8,795,202.4,798.5,200.1z M860.4,221.3
						c-13.3-0.1-26.6-0.3-39.9-0.4c13-0.2,26.1-0.5,39.1-0.7C859.9,220.6,860.2,220.9,860.4,221.3z M800.1,199.3
						c-0.1,0.1-0.1,0.2-0.1,0.3c0,0.1,0.1,0.1,0.1,0.2c-0.4,0-0.8,0-1.2,0c0.3-0.2,0.6-0.4,0.9-0.6c0.1-0.1,0.2-0.2,0.3-0.3
						C800.1,199,800.1,199.2,800.1,199.3z M804.9,154.3c1.9,2.7,3.5,5.6,4.7,8.6c2.3,6,1.8,13.1-0.4,19.5
						C811.6,172.9,810,162.6,804.9,154.3z M759.5,195.3c-1.7-1.4-3.3-3-4.7-4.7c-8-10.2-8.1-22.7-3-33.1
						C746.1,170.9,749.6,186.2,759.5,195.3z M763.1,199.7c-1.9,0-3.8,0-5.7,0c-0.1-1.5-0.2-3-0.4-4.4
						C758.8,197,760.9,198.4,763.1,199.7z M746.5,221.5c0.1,0,0.2-0.1,0.2-0.2c0-0.1,0.1-0.1,0.1-0.2c0.1,0,0.1,0,0.2,0c0,0,0,0,0,0
						c0.1,0,0.1,0,0.2,0c6.7,0,13.5,0,20.2,0c0,3.6-0.1,7.2-0.1,10.8c0,1.9-0.4,4.3-0.2,6.4c-6.8,0-13.7-0.1-20.5-0.2
						C746.7,232.6,746.7,227,746.5,221.5z M768.5,238.3c0.2-2.6-0.3-7.8-0.3-8.7c0-2.8,0-5.7-0.1-8.5c3.5,0,7,0,10.4,0
						c2.9,0,5.8,0,8.7,0.1c0.9,0,1.8,0,2.7,0.1c-0.7,5.5-1.3,11.6-0.7,17.1C782.3,238.4,775.4,238.3,768.5,238.3z M854.2,211.1
						c1,1.5,2,3.2,2.9,4.9c-2.5-3.4-5.1-6.8-7.7-10.2c0,0,0-0.1,0-0.1c-0.5-0.6-0.9-1.2-1.3-1.8c0.1-0.1,0.1-0.2,0.1-0.4
						c0-0.2,0-0.4,0-0.6C850,205.8,852.4,208.4,854.2,211.1z M847.8,165.4c-0.2,6.4-0.3,12.8-0.5,19.2c0-8.8,0-17.6,0.1-26.4
						c0-6.9,1.6-16.5-1.7-23.2C850.3,143,848,157.6,847.8,165.4z M801.6,131.8c-0.1,0-0.2,0-0.3,0c0-0.2-0.1-0.3-0.1-0.5
						c0-0.2,0-0.4,0-0.6c0.1,0,0.2,0,0.3,0C801.6,131.2,801.6,131.5,801.6,131.8z M780.3,130.5c6.8,0,13.6,0.2,20.4,0.3
						c-0.1,0.4-0.1,0.7,0,1c-8-0.1-16-0.1-24,0c-4.3,0-8.6,0.1-12.9,0.2c-2.7,0.1-5.8,1.1-6.9-1.4
						C764.8,130.6,772.5,130.4,780.3,130.5z M721.4,129.8c0.1,0,0.3,0,0.4-0.1c11.2,0.9,22.6,1,33.9,0.9c-0.2,0.8-0.2,0.9-0.3,2.4
						c0,0.4,0.3,0.9,0.7,0.9c0.1,0,0.2,0,0.2,0c0,0,0,0,0,0c0.1,0,0.3,0.1,0.4,0.1c-11-0.2-22,0.1-33,0.2c-0.1,0-0.1,0.2,0,0.2
						c11.5,0.1,23.1,0.4,34.6,0.2c0.1,0,0.1,0,0.2-0.1c5.2,1.1,11.3,0.3,16.5,0.3c7.6,0,15.2,0,22.7-0.1c6.5-0.1,13-0.3,19.5-0.5
						c7.7-0.3,18.2-2,24.6,3.4c0.1,0.1,0.3-0.1,0.2-0.2c-3.3-3.6-9-3.9-13.6-4c-7.7-0.1-15.4,0.5-23.1,0.7
						c-7.9,0.2-15.9,0.3-23.8,0.3c-3.6,0-7.2,0-10.8,0c-3.8,0-8.2,0.4-12.1-0.2c0-0.1-0.1-0.2-0.2-0.2c-0.3,0-0.6,0-0.9,0
						c-0.2-0.1-0.5-0.1-0.7-0.2c15.5-0.2,31-0.7,46.5-0.6c0.8,0,1.2-1.2,0.3-1.4c-0.3-0.4-0.6-0.7-0.9-1.1
						c12.1,0.2,24.3,0.2,36.3-0.9c0.1,0,0.2-0.1,0.2-0.1c1.9,0.5,3.4,1.5,4.6,2.7c3.4,4.4,3.2,10.5,3.2,16c0,6-0.1,12.1-0.1,18.1
						c-0.1,10.9-0.1,21.7-0.1,32.6c-0.1,0-0.3,0-0.4,0c-0.6-2.9-0.5-6-0.4-9.1c0.1-5.2,0.3-10.4,0.3-15.7
						c0.1-10.1,0.2-20.2-0.3-30.3c0,0,0,0,0,0c-0.3,12.9-0.1,25.8-0.3,38.6c-0.1,4.7-1.2,11.2,0,16.5c-14.9,0.7-29.8,0.8-44.7,0.5
						c0-0.3-0.1-0.7-0.1-1c0-0.1,0-0.3,0-0.4c7.5-6.4,12.1-17.7,11.9-27.4c-0.1-9.1-6.2-19.2-13.3-24.8c-3.2-2.5-7-4-10.8-5.1
						c-1.7-0.8-3.4-1.2-5.3-1.4c-4.4-1.1-8.9-1.9-13.3-0.6c-2.7,0.8-5.3,2.3-7.6,4.2c-14.1,9.3-20.3,27.8-12,43.5
						c1.5,2.9,3.6,5.6,6.1,7.9c0,1.7,0,3.3,0.1,5c-15.7,0.1-31.4-0.1-47.1,0c0-12.6-0.2-25.2-0.3-37.8
						C709.1,152.1,705.1,127.3,721.4,129.8z M702.2,212.5c-1.4,2.7-2.7,5.3-4.1,8c-0.4,0-0.7,0-1.1,0
						C699.1,218.2,700.7,215.1,702.2,212.5z M853.8,266.6c-5.6,0.8-11.3,0.5-17,0.6c-6.8,0-13.7,0.1-20.5,0.1
						c-13.7,0.1-27.3,0.2-41,0.3c-13.3,0.1-26.6,0.2-39.9,0.3c-12.7,0.1-27.4,2.5-38.1-5.4c-1.6-6.8-0.8-14.4-0.9-21.3
						c0-0.8,0-1.7,0-2.6c0.1,0,0.1,0.1,0.2,0.1c16.4,1,32.9,1.5,49.4,1.8c0.1,0,0.1,0,0.2,0c38.2,0.7,76.5-0.2,114.6-1.3
						c0.1,1.7,0.1,3.4,0.1,5.1C861.1,252.3,862.8,263.3,853.8,266.6z"/>
					<path class="st49" d="M765,192.1c18.8,13.6,50.1-9,36.4-30.4c-4.8-7.5-11.5-13.5-19.5-14.4c0-0.1-0.1-0.2-0.3-0.2
						c-10.9-1-21.6,5.3-25.7,15.6C751.7,173.1,756.1,185.7,765,192.1z M756.9,167.4c2.4-6.7,7.7-12.3,14.5-15.1
						c12.2-5.1,24,1.7,28.8,13.5c4.3,10.5-1.9,22.4-12.2,26.3c-10.5,4-22.3-0.8-28.1-10.2C757,177.2,756.1,172.1,756.9,167.4z
						 M756.2,176c3.1,11.1,14.3,19.3,25.9,18.3c11.5-1.1,20.8-10.7,20.2-22.5c-0.6-12.3-12.7-23.8-25.2-21.9
						c-7.5,1.1-14.5,5.9-18.6,12.3c1.9-4.2,5.3-7.8,9.7-10.4c11-6.4,21.7-2.6,29.2,6.9c3.6,4.5,6.4,9.1,5.6,15.1
						c-0.8,5.7-3.6,11.3-7.9,15.2c-6.6,5.9-16.7,7.9-24.9,4.5c-7.5-3.1-12.8-10.4-14.2-18.3C756.1,175.4,756.1,175.7,756.2,176z"/>
					<path class="st49" d="M724.6,174.4c-7.8,3.2-7.5,15,0.6,18.4c8.3,3.6,17.5-5.8,13.5-13.9C736,173.7,729.3,172.1,724.6,174.4z
						 M737.3,179.2c-0.3-0.6-0.7-1.2-1.2-1.7c-1.2-1.3-3.3-2.5-5.5-3.1C734,174.7,736.2,176.7,737.3,179.2z M720.2,184.6
						c1.2,4.3,5.6,7.5,10,7.6C724.4,193.1,720.8,189.1,720.2,184.6z M738,184.7c-0.4,2.5-1.9,4.8-4.3,6.3c-0.6,0.3-1.2,0.5-1.9,0.6
						c-5,0.9-10.4-2.8-11.2-7.9c-0.8-4.9,2.7-8.6,7.2-9.2c3.7,0.2,7.8,2.3,9.3,5.1C737.9,181.1,738.2,183,738,184.7z"/>
					<path class="st49" d="M731.5,177.5c-1.1-0.5-2.2-0.5-3.3-0.3c0,0-0.1-0.1-0.1,0c-3.3,0.9-5.2,4.8-3.5,7.9
						c1.6,2.9,6.2,3.7,8.6,1.3C735.9,183.6,734.9,179,731.5,177.5z M731.6,185.7c-1.9,1.4-5.1,0.6-6.2-1.5c-0.5-0.9-0.6-1.8-0.4-2.7
						c1-2.3,3.5-3.9,6-2.7C733.7,180.1,734.1,183.9,731.6,185.7z"/>
					<path class="st49" d="M816.7,165.5c2.4,0.5,5.4-0.2,7.8-0.3c3.8-0.2,7.6-0.5,11.4-0.8c3.2-0.3,6.5,0,7.7-3.6
						c1.5-4.4,0.9-12.8-0.1-17.4c-2-9.5-19.9-5.9-26.5-5.6c-0.3,0-0.5,0.3-0.5,0.6c-6.2,2.1-4.1,16.3-3.5,20.7
						C813.4,162,813.6,164.7,816.7,165.5z M817.3,139.1c6.2-0.2,14.3-2,20.1,0.3c4.7,1.9,5,5.4,5.1,9.9c0.2,4.3,1.7,11.5-3.7,13.5
						c-2.6,1-6.5,0.5-9.3,0.7c-2.9,0.2-6.4,1-9.3,0.6c-6.8-0.9-6.2-6-6.5-11C813.5,149.1,812.6,141.3,817.3,139.1z"/>
					<path class="st49" d="M831.6,161.3c12.6-3.3,4.3-25.8-6.3-18.8c-4.7,1.5-8.4,6.8-7,11.8C819.7,159.8,826.3,162.7,831.6,161.3z
						 M835.1,147.1c0.5,1.5,0.5,3.1,0,4.9c-1.2,4.1-4.3,6.7-8.6,6.2c-4.2-0.6-7.3-3.7-5.7-8.1c0.5-1.3,1.2-2.5,2.1-3.6
						c0.6-0.7,1.2-1.3,2-1.9c0.2-0.2,0.4-0.4,0.7-0.5c0.1,0,0.2,0,0.2-0.1c0.4-0.3,0.8-0.4,1.2-0.6c0.2-0.1,0.4-0.1,0.6-0.1
						c0,0.1,0.1,0.2,0.1,0.1l0.1-0.1c0,0,0,0,0-0.1C831,142.3,833.7,144.3,835.1,147.1z M824.7,143.7c0,0,0,0.1,0.1,0.1
						c-1.9,1.5-3.8,4.3-4.2,5.2c-1.9,4.2-0.4,8,4,9.5c4.3,1.4,8.5,0,10.5-4.1c0.6-1.2,1-2.7,1.1-4.2c0.8,4.3-0.8,9.1-6,9.8
						c-4.6,0.6-10-2.1-10.8-7C818.8,148.7,821.4,145.7,824.7,143.7z"/>
					<path class="st49" d="M824.5,173.9c-2.6,1.3-4.4,3.5-5.2,6c-0.2,0.4-0.3,0.7-0.4,1c-1.1,3.5,0.1,7.3,2.8,9.8
						c5.6,5.2,15,1.5,16.4-5.8C839.6,177,832.1,170.2,824.5,173.9z M833.2,189.7c-3.6,3-8.9,2.1-11-2.2c-1.7-3.6-0.6-7.6,1.2-10.9
						c3.7-1.4,7.9-1.3,10.7,1.9C836.9,181.7,836.6,186.8,833.2,189.7z M819.9,184.2c-0.3-2.4,1-5.6,2.9-7.7c0.1,0,0.1-0.1,0.2-0.1
						c0,0.1,0.1,0.2,0.2,0.2c-2.1,3.7-3.4,8.4-0.8,12.3c0.7,1.1,1.7,1.9,2.8,2.4c-0.1,0-0.1,0-0.2-0.1
						C822.3,189.9,820.2,187.1,819.9,184.2z M836.3,185.8c1.7-6.3-5.2-13.3-12-10.4c5.9-3.3,12.7,0.9,12.5,7.8
						C836.8,184.1,836.6,185,836.3,185.8z"/>
					<path class="st49" d="M827.1,177.3c0,0-0.1,0-0.1,0.1c-1.4,0-2.5,1-3.1,2.4c-1.5,2.2-1.7,5.2,0.3,7.4c0.2,0.2,0.4,0,0.3-0.2
						c0,0,0-0.1-0.1-0.1c2.5,2.6,6.9,2,8.6-1.4c1-2,0.4-4.5-0.6-6.4C831.3,177,829.2,176.6,827.1,177.3z M832.2,183.6
						c-0.3,3-3.9,4.6-6.3,2.9c-1.6-1.1-2.1-2.8-1.7-4.6c0-0.1,0.1-0.2,0.1-0.3c0.3-0.8,0.9-1.5,1.7-2.1c1.4-1,3-1.5,4.4-0.5
						C831.6,179.9,832.3,181.9,832.2,183.6z"/>
					<path class="st49" d="M711.3,199.2c0,0.1,0.1,0.1,0.1,0c0.1-10.4,0.6-20.7,0.8-31.1c0.1-5,0.2-10,0.3-15
						c0.1-5-1.7-15.2,4.2-17.5c0.1,0,0.1-0.2-0.1-0.2c-2.4,0.6-3.6,2.3-4.1,4.7c-1.3,5.7-0.4,12.5-0.6,18.3
						C711.7,172,711.7,185.6,711.3,199.2z"/>
					<path class="st49" d="M718.7,135c0.4-0.2,0.9-0.3,1.1-0.7c0.1-0.1,0-0.3-0.2-0.3c-0.4,0-0.8,0.3-1.2,0.5
						C718.2,134.8,718.4,135.2,718.7,135z"/>
					<path class="st49" d="M722.4,134.4c0.1,0,0.2-0.1,0.1-0.2c-0.2-0.2-0.3-0.3-0.5-0.4c-0.3-0.1-0.5,0.2-0.2,0.4
						C722,134.3,722.2,134.4,722.4,134.4z"/>
					<path class="st49" d="M843.1,138.8c0.1,0,0.2,0,0.3-0.1c0.1,0,0.1-0.1,0-0.1c-0.1,0-0.2,0-0.3-0.1
						C842.9,138.5,842.9,138.8,843.1,138.8z"/>
					<path class="st49" d="M844.1,140.7c0.1,0,0.2-0.1,0.2-0.2c0.3,0.2,0.6,0.5,0.8,0.8c0.1,0.3,0.2,0.6,0.3,0.9
						c0.1,0.1,0.3,0.1,0.3,0c0.3-0.8-0.5-1.8-1.2-2.1c-0.2-0.1-0.4,0.1-0.3,0.3c0,0,0,0-0.1,0C844,140.4,843.9,140.7,844.1,140.7z"
						/>
					<path class="st49" d="M772.6,186.8c8.5,4.4,17.4-0.4,20.8-7.8c2.5-4.4,2.8-9.9,0.8-14.7c-3-7-10.6-9.5-17.8-8.5
						c0.2-0.1,0.4-0.2,0.6-0.2c0.3-0.1,0.1-0.5-0.1-0.5c-3.2,0.6-5.9,2.1-8,4.1c-2.8,1.8-4.9,4.6-5.8,8.4c-1.2,5.1,0.2,9.6,3,13
						C767.6,183.2,769.7,185.3,772.6,186.8z M784.1,186.4c-3.5,1.3-7.2,1-10.4-0.5c3.4,1.2,7.3,1.4,10.8,0.3
						C784.4,186.2,784.3,186.3,784.1,186.4z M773.6,157.1c7.5-2,16.7-0.1,20,7.5c1.1,2.4,1.4,5,1.2,7.4c-0.1-1.9-0.5-3.9-1.4-5.9
						c-3.5-7.6-12.9-10.8-20.4-8.7C773.2,157.4,773.4,157.2,773.6,157.1z M768.3,161.8c2.1-1.9,4.7-3.2,7.8-3.7
						c13.7-2.3,21.2,13.3,15.1,22.8c-1.5,1.8-3.4,3.3-5.7,4.3c-6,2.6-12.6,1.2-17-3.1c-1.6-1.8-2.8-3.9-3.3-6.3
						C764,170.7,765.3,165.6,768.3,161.8z"/>
					<path class="st49" d="M715.7,146.8c-0.1,0-0.1,0-0.2,0c-0.4,0-0.4,0.6,0,0.7c-0.1,1.6-0.6,4.3-0.6,6.7
						c-0.2,1.4-0.3,2.8-0.4,4.2c0,0.1,0.1,0.3,0.2,0.3c0.6,0.1,1.2,0.1,1.8,0.1c1.2,0.5,2.8,0.2,4,0.2c3.7,0,7.4,0,11.1-0.1
						c2.5-0.1,5-0.1,7.5-0.2c1.3,0,3.5,0.5,4.6-0.3c2.5-1.8,0.2-9-0.1-11.5c0-0.2-0.2-0.4-0.4-0.4c-9.1-0.3-18.1-0.2-27.2,0.3
						C715.9,146.7,715.8,146.7,715.7,146.8z M715,156.4c0.1,0.6,0.3,1.2,0.5,1.6C715.1,157.7,715,157.1,715,156.4z M742.8,149
						c0.7,1.4,0.8,4.1,0.3,6.2c-0.2-2.4-0.6-4.7-1-7.1C742.3,148.3,742.6,148.6,742.8,149z M716.2,147.5c6.1-0.3,12.2-0.4,18.3-0.3
						c1.9,0,5.2-0.5,7.1,0.6c0.4,2.8,0.8,5.6,1.1,8.5c-0.3,0.7-0.7,1.2-1.1,1.4c-2,0.8-5.9,0.2-8,0.2c-3,0.1-5.9,0.2-8.9,0.2
						c-1.3,0-2.7,0-4,0c0,0,0,0-0.1,0c0.2-0.1,0.1-0.4-0.1-0.4c-0.6,0.1-1.2,0.2-1.8,0.4c-0.6-0.1-1-0.4-1.6-1.6
						C715.6,154.1,716.2,150.3,716.2,147.5z"/>
					<path class="st49" d="M717.2,156.4c0,0.1,0.1,0.3,0.3,0.4c3.4,0.9,7.9,0.1,11.4,0c4.3-0.1,8.6-0.3,12.9-0.5
						c0.3,0,0.4-0.3,0.4-0.6c-0.4-2.3-0.6-4.5-0.7-6.8c0-0.2-0.2-0.4-0.4-0.4c-7.6-1.3-15.4-0.7-23-0.1c0,0-0.1,0-0.1,0
						c-0.2,0-0.4,0-0.5,0c-0.6,0.1-0.5,1,0.2,1c0,0,0,0,0,0C717.2,151.7,716.6,154.4,717.2,156.4z M718.1,149.5
						c4.8-0.2,9.7-0.8,14.5-0.7c1.6,0,5.2-0.4,6.6,0.5c1.5,1,2.2,4.3,1.1,5.6c-1.1,1.3-4.4,0.8-6,0.8c-3,0.1-6,0.2-9,0.2
						c-1.1,0-6.5,0.8-7.3,0.1C717.2,155.2,717.9,151.3,718.1,149.5z"/>
				</g>
			</g>
		</g>
	</g>
</g>
</svg>
