<?xml version="1.0" encoding="utf-8"?>
<!-- Generator: Adobe Illustrator 21.1.0, SVG Export Plug-In . SVG Version: 6.00 Build 0)  -->
<svg version="1.1" id="Camada_1" xmlns="http://www.w3.org/2000/svg" xmlns:xlink="http://www.w3.org/1999/xlink" x="0px" y="0px"
	 viewBox="0 0 300 200" style="enable-background:new 0 0 300 200;" xml:space="preserve">
<style type="text/css">
	.st0{fill:#F5FBEF;}
	.st1{fill:#383838;}
	.st2{fill:#FFFFFF;}
	.st3{fill:#CA939A;}
	.st4{fill:#89A585;}
	.st5{fill:#567A7C;}
	.st6{fill:#D0B69B;}
	.st7{fill:#E4D0B5;}
	.st8{fill:#E5D1B5;}
	.st9{fill:#D2B89B;}
	.st10{fill:#5D3A22;}
	.st11{fill:#F3EDE3;}
	.st12{fill:#4A4544;}
	.st13{fill:#C3435C;}
	.st14{fill:#DC9299;}
	.st15{fill:#AC906F;}
	.st16{fill:#C5A991;}
	.st17{fill:#FBFCFF;}
	.st18{opacity:0.11;fill:#0E0E0E;}
	.st19{fill:#BA553F;}
	.st20{fill:#1A1C1F;}
	.st21{fill:#414650;}
	.st22{fill:#BEBEBC;}
	.st23{fill:#9A4B5D;}
	.st24{fill:#D1B79C;}
	.st25{fill:#E6D2B6;}
	.st26{fill:#C6AB93;}
	.st27{fill:#E5E3D0;}
	.st28{fill:#F4EFE4;}
	.st29{fill:#6E5438;}
	.st30{fill:#F9F7EB;}
</style>
<rect x="-2.1" y="0.5" class="st0" width="300" height="200"/>
<rect x="271" y="288" class="st0" width="1" height="8"/>
<g>
	<path class="st1" d="M110.9,160.5c0,6.3,5.4,11.5,12.2,11.5l49.5,0.1c6.7,0,12.2-5.1,12.2-11.5l0.2-120.2c0-6.3-5.4-11.5-12.2-11.5
		l-49.5-0.1c-6.7,0-12.2,5.1-12.2,11.5L110.9,160.5z"/>
	<path class="st2" d="M138.2,36.9c0,1,0.7,1.8,1.6,1.8l15.3,0c0.9,0,1.6-0.8,1.6-1.8l0,0c0-1-0.7-1.8-1.6-1.8l-15.3,0
		C138.9,35.2,138.2,36,138.2,36.9L138.2,36.9z"/>
	
		<ellipse transform="matrix(1.420923e-03 -1 1 1.420923e-03 131.0482 205.6201)" class="st2" cx="168.5" cy="37.2" rx="1.7" ry="1.7"/>
	
		<rect x="91.6" y="65.5" transform="matrix(1.421161e-03 -1 1 1.421161e-03 48.308 247.1438)" class="st2" width="112.6" height="67.8"/>
	<circle class="st2" cx="146.8" cy="163.7" r="5.9"/>
	<path class="st3" d="M156.5,73.7c0.6-0.9,1-2.1,1-3.4c0-2.9-1.8-5.3-3.9-5.3h-28.5c-2.2,0-3.9,2.4-3.9,5.3c0,2.9,1.8,5.3,3.9,5.3
		h28.5c0.4,0,0.7,0,1-0.2l0,0c2.6,2.1,3.5-0.7,3.5-0.7C157.3,74.7,156.6,74.3,156.5,73.7z"/>
	<path class="st3" d="M156.5,110.4c0.6-0.9,1-2.1,1-3.4c0-2.9-1.8-5.3-3.9-5.3h-28.5c-2.2,0-3.9,2.4-3.9,5.3c0,2.9,1.8,5.3,3.9,5.3
		h28.5c0.4,0,0.7,0,1-0.2l0,0c2.6,2.1,3.5-0.7,3.5-0.7C157.3,111.5,156.6,111,156.5,110.4z"/>
	<path class="st3" d="M156.5,146.4c0.6-0.9,1-2.1,1-3.4c0-2.9-1.8-5.3-3.9-5.3h-28.5c-2.2,0-3.9,2.4-3.9,5.3c0,2.9,1.8,5.3,3.9,5.3
		h28.5c0.4,0,0.7,0,1-0.2l0,0c2.6,2.1,3.5-0.7,3.5-0.7C157.3,147.4,156.6,147,156.5,146.4z"/>
	<path class="st4" d="M138.1,58.8c-0.6-0.9-1-2.1-1-3.4c0-2.9,1.8-5.3,3.9-5.3h28.5c2.2,0,3.9,2.4,3.9,5.3c0,2.9-1.8,5.3-3.9,5.3
		h-28.5c-0.4,0-0.7,0-1-0.2l0,0c-2.6,2.1-3.5-0.7-3.5-0.7C137.4,59.8,138,59.3,138.1,58.8z"/>
	<path class="st4" d="M138.1,93.2c-0.6-0.9-1-2.1-1-3.4c0-2.9,1.8-5.3,3.9-5.3h28.5c2.2,0,3.9,2.4,3.9,5.3c0,2.9-1.8,5.3-3.9,5.3
		h-28.5c-0.4,0-0.7,0-1-0.2l0,0c-2.6,2.1-3.5-0.7-3.5-0.7C137.4,94.3,138,93.8,138.1,93.2z"/>
	<path class="st4" d="M138.1,127.7c-0.6-0.9-1-2.1-1-3.4c0-2.9,1.8-5.3,3.9-5.3h28.5c2.2,0,3.9,2.4,3.9,5.3c0,2.9-1.8,5.3-3.9,5.3
		h-28.5c-0.4,0-0.7,0-1-0.2l0,0c-2.6,2.1-3.5-0.7-3.5-0.7C137.4,128.7,138,128.3,138.1,127.7z"/>
	<path class="st5" d="M132,55.6c0,1.7-0.7,3.2-1.7,4.4c-0.5,0.5-1,0.9-1.6,1.2c-0.3,0.2-0.7,0.3-1.1,0.5c-0.2,0.1-0.4,0.1-0.6,0.2
		c-0.1,0-0.1,0-0.2,0c0,0-0.1,0-0.1,0c-0.1,0-0.3,0-0.4,0.1c-0.2,0-0.4,0-0.7,0c-0.1,0-0.1,0-0.2,0c-0.1,0-0.3,0-0.4,0
		c-0.1,0-0.1,0-0.2,0c-0.1,0-0.1,0-0.2,0c0,0,0,0,0,0c0,0,0,0,0,0c-0.1,0-0.3,0-0.4-0.1c0,0,0,0-0.1,0c-0.4-0.1-0.8-0.2-1.2-0.4
		c-0.8-0.4-1.5-0.9-2-1.5c0,0,0,0,0,0c-1.1-1.1-1.7-2.7-1.7-4.3c0-3.5,2.9-6.4,6.4-6.4C129.1,49.2,132,52.1,132,55.6z"/>
	<path class="st6" d="M128.3,59.4l-1.1-0.5c-0.8-0.4-0.6-1-0.6-1h-0.8h0H125c0,0,0.2,0.6-0.6,1l-0.9,0.5l2.3,0L128.3,59.4z"/>
	<path class="st6" d="M123.3,54.4c0,0.4-0.1,0.7-0.2,0.7c-0.2,0-0.3-0.3-0.3-0.6c0-0.4,0.1-0.7,0.3-0.7S123.3,54,123.3,54.4z"/>
	<path class="st7" d="M128.1,54.3c0,0.4,0.1,0.7,0.2,0.7c0.2,0,0.3-0.3,0.3-0.6c0-0.4-0.1-0.7-0.3-0.7
		C128.2,53.7,128.2,53.9,128.1,54.3z"/>
	<ellipse class="st8" cx="125.8" cy="54.5" rx="2.5" ry="3.6"/>
	<path class="st9" d="M125.8,50.9V58c-1.4,0-2.5-1.6-2.5-3.5C123.2,52.5,124.3,50.9,125.8,50.9z"/>
	<path class="st10" d="M125.1,53.8l-0.6-0.1c-0.1,0-0.2,0-0.3,0l-0.6,0.1c0,0-0.1,0-0.1,0c0,0,0,0,0-0.1v0c0-0.1,0.4-0.2,0.4-0.2
		c0.1,0,0.3-0.1,0.7,0c0,0,0.6,0.1,0.6,0.2v0C125.2,53.7,125.2,53.7,125.1,53.8C125.2,53.8,125.1,53.8,125.1,53.8z"/>
	<path class="st10" d="M127.8,53.8l-0.6-0.1c-0.1,0-0.2,0-0.3,0l-0.6,0.1c0,0-0.1,0-0.1,0c0,0,0,0,0-0.1v0c0-0.1,0.4-0.2,0.4-0.2
		c0.1,0,0.3-0.1,0.7,0c0,0,0.6,0.1,0.6,0.2v0C127.9,53.7,127.9,53.7,127.8,53.8C127.9,53.8,127.9,53.8,127.8,53.8z"/>
	<path class="st11" d="M125,54.4c0,0-0.3,0.3-0.6,0.3c-0.3,0-0.6-0.3-0.6-0.3s0.3-0.3,0.6-0.3C124.7,54.1,125,54.4,125,54.4z"/>
	<circle class="st12" cx="124.4" cy="54.4" r="0.2"/>
	<circle class="st2" cx="124.5" cy="54.3" r="0.1"/>
	<path class="st2" d="M125.7,57.3c0.5,0,0.6-0.4,0.7-0.6H125C125.2,57,125.5,57.3,125.7,57.3z"/>
	<path class="st13" d="M126.5,56.6C126.5,56.6,126.5,56.6,126.5,56.6l-1.4,0c0,0,0,0,0,0c0,0,0,0,0,0c0.1,0.4,0.5,0.7,0.7,0.7
		C126,57.3,126.4,57.1,126.5,56.6C126.5,56.7,126.5,56.7,126.5,56.6z M125.7,57.3c-0.2,0-0.6-0.2-0.7-0.6h1.4
		C126.3,57.1,126,57.3,125.7,57.3z"/>
	<g>
		<path class="st14" d="M126.4,56.8h-1.3c0.1,0.2,0.2,0.3,0.3,0.4h0.7C126.2,57.1,126.3,57,126.4,56.8z"/>
	</g>
	<path class="st15" d="M125.9,55.6c0,0,0,0-0.1,0c-0.1,0-0.1,0-0.1,0c-0.1-0.1-0.2,0-0.2,0c0,0.1,0.2,0,0.2,0c0,0,0.1,0,0.1,0
		C125.8,55.7,125.8,55.7,125.9,55.6c0,0.1,0.2,0.1,0.2,0C126,55.7,126,55.5,125.9,55.6z"/>
	<path class="st10" d="M123.4,55.6c0,0-0.6-2.2,0.7-3.2c0,0,0.9,0.7,2,0.5c0,0,0.4-0.1,0.8-0.4c0,0,0.9-0.4,1.2,0.5
		c0.3,0.9,0.2,1.8,0.2,2.4c0,0,0.4-0.9,0.4-2.3c0,0,0.1,0.2,0.1,0.6c0,0,0.2-1.1-0.1-1.7c0,0-0.2-0.7-1-1c0,0-0.5-0.7-2.3-0.6
		c0,0,0-0.1,0.3-0.2c0,0-1.4-0.1-1.7,0.9c0,0-1.2,0.3-1,2.3l0.1-0.4C122.9,52.8,122.7,54.7,123.4,55.6z"/>
	<path class="st11" d="M126.5,54.4c0,0,0.3,0.3,0.6,0.3c0.3,0,0.6-0.3,0.6-0.3s-0.3-0.3-0.6-0.3C126.7,54,126.5,54.4,126.5,54.4z"/>
	<circle class="st12" cx="127.1" cy="54.4" r="0.2"/>
	<circle class="st2" cx="127.1" cy="54.3" r="0.1"/>
	<path class="st16" d="M125,58l2,0.7c0,0-0.5-0.3-0.4-0.9c0,0-0.7,0.4-1.6,0C125,57.8,125,57.9,125,58z"/>
	<path class="st17" d="M127.4,59.4l-0.3,1.2l0,0l0,0l0,0.1l0,0v0l-0.3,1.2c0,0-0.1,0-0.1,0c-0.1,0-0.3,0-0.4,0.1c-0.2,0-0.4,0-0.7,0
		c-0.1,0-0.1,0-0.2,0c-0.1,0-0.3,0-0.4,0c-0.1,0-0.1,0-0.1,0l-0.3-1.3v0l0,0l0-0.1v0l-0.3-1.2l0.2,0h0l0.9-0.1h0l0.4,0l0,0l0,0h0.1
		l0,0l0,0l0,0l0,0h0.1h0.4h0l0.9,0.1v0h0L127.4,59.4z"/>
	<polygon class="st18" points="125.8,59.4 124.4,60.8 123.9,58.8 124.6,58.6 	"/>
	<polygon class="st18" points="125.8,59.4 127.2,60.8 127.7,58.8 127,58.6 	"/>
	<path class="st19" d="M126.1,59.8c0,0-0.1,0-0.1,0h-0.3c-0.1,0-0.1,0-0.1,0l-0.2-0.4c0-0.1,0-0.1,0.1-0.1h0.7
		c0.1,0,0.2,0.1,0.1,0.1L126.1,59.8z"/>
	<path class="st19" d="M125.6,62c-0.1,0-0.1,0-0.2,0l0.2-2.2v0l0,0h0.6l0,0v0l0.2,2.1C126,62,125.8,62,125.6,62z"/>
	<path class="st20" d="M120.9,60c1-0.9,2.3-1.2,2.4-1.2c0,0,0,0,0,0l0.3,0.5l0,0.1L124,60l0.6,2c-0.1,0-0.3,0-0.4-0.1c0,0,0,0-0.1,0
		c-0.4-0.1-0.8-0.2-1.2-0.4C122.1,61.1,121.5,60.6,120.9,60z"/>
	<path class="st21" d="M127,61.9l0.6-1.9l0-0.6v0l0-0.4l0-0.2v0l0,0h0c0,0,0.3,0.1,0.7,0.2c0,0,0,0,0,0c0.5,0.2,1.2,0.5,1.8,0.9
		c0.1,0.1,0.1,0.1,0.2,0.2c-0.5,0.5-1,0.9-1.6,1.2c-0.3,0.2-0.7,0.3-1.1,0.5C127.3,61.8,127.1,61.8,127,61.9z"/>
	<polygon class="st17" points="125.8,59.3 127.2,60.7 127.7,58.8 126.8,58.5 	"/>
	<path class="st22" d="M128.3,58.9l0,0.4v0l0,0l-0.2,2h-0.8l0.2,0.4c-0.2,0.1-0.4,0.1-0.6,0.2c-0.1,0-0.1,0-0.2,0c0,0-0.1,0-0.1,0
		l0.3-1.4l0-0.1l0.2-1.1l0,0l0,0l0,0l0,0l0.1-0.5v0l0-0.1l0,0c0,0,0,0,0,0c0,0,0,0,0,0C127.4,58.7,128,58.9,128.3,58.9
		C128.3,58.9,128.3,58.9,128.3,58.9z"/>
	<polygon class="st17" points="125.8,59.3 124.4,60.7 123.9,58.6 124.7,58.6 	"/>
	<path class="st21" d="M120.9,60C120.9,60,120.9,60,120.9,60c1.1-0.9,2.5-1.2,2.5-1.2l0,0l0.3,0.5l0,0.1L124,60l0.6,2c0,0,0,0,0,0
		c-0.1,0-0.3,0-0.4-0.1c0,0,0,0-0.1,0c-0.4-0.1-0.8-0.2-1.2-0.4C122.1,61.1,121.5,60.6,120.9,60z"/>
	<path class="st22" d="M124.8,62c-0.1,0-0.1,0-0.2,0c0,0,0,0,0,0c0,0,0,0,0,0c-0.1,0-0.3,0-0.4-0.1c0,0,0,0-0.1,0l-0.1-0.2l0.3-0.4
		h-0.8l-0.2-2.5v0c0,0,0,0,0,0c0,0,0,0,0.1,0c0.4-0.1,0.8-0.1,0.8-0.1c0,0,0,0,0,0l0,0.1l0,0.1v0l0.1,0.4l0,0.1v0l0,0.1v0l0,0l0.2,1
		l0,0.1L125,62C124.9,62,124.9,62,124.8,62z"/>
	<path class="st5" d="M131.9,88.7c0,1.7-0.7,3.2-1.7,4.4c-0.5,0.5-1,0.9-1.6,1.2c-0.3,0.2-0.7,0.3-1.1,0.5c-0.2,0.1-0.4,0.1-0.6,0.2
		c-0.1,0-0.1,0-0.2,0c0,0-0.1,0-0.1,0c-0.1,0-0.3,0-0.4,0.1c-0.2,0-0.4,0-0.7,0c-0.1,0-0.1,0-0.2,0c-0.1,0-0.3,0-0.4,0
		c-0.1,0-0.1,0-0.2,0c-0.1,0-0.1,0-0.2,0c0,0,0,0,0,0c0,0,0,0,0,0c-0.1,0-0.3,0-0.4-0.1c0,0,0,0-0.1,0c-0.4-0.1-0.8-0.2-1.2-0.4
		c-0.8-0.4-1.5-0.9-2-1.5c0,0,0,0,0,0c-1.1-1.1-1.7-2.7-1.7-4.3c0-3.5,2.9-6.4,6.4-6.4C129,82.3,131.9,85.2,131.9,88.7z"/>
	<path class="st6" d="M128.2,92.4l-1.1-0.5c-0.8-0.4-0.6-1-0.6-1h-0.8h0h-0.8c0,0,0.2,0.6-0.6,1l-0.9,0.5l2.3,0L128.2,92.4z"/>
	<path class="st6" d="M123.2,87.4c0,0.4-0.1,0.7-0.2,0.7s-0.3-0.3-0.3-0.6c0-0.4,0.1-0.7,0.3-0.7C123.2,86.8,123.2,87.1,123.2,87.4z
		"/>
	<path class="st7" d="M128.1,87.4c0,0.4,0.1,0.7,0.2,0.7s0.3-0.3,0.3-0.6c0-0.4-0.1-0.7-0.3-0.7C128.2,86.7,128.1,87,128.1,87.4z"/>
	<ellipse class="st8" cx="125.7" cy="87.5" rx="2.5" ry="3.6"/>
	<path class="st9" d="M125.7,83.9v7.2c-1.4,0-2.5-1.6-2.5-3.5C123.2,85.6,124.2,84,125.7,83.9z"/>
	<path class="st10" d="M125,86.8l-0.6-0.1c-0.1,0-0.2,0-0.3,0l-0.6,0.1c0,0-0.1,0-0.1,0c0,0,0,0,0-0.1l0,0c0-0.1,0.4-0.2,0.4-0.2
		c0.1,0,0.3-0.1,0.7,0c0,0,0.6,0.1,0.6,0.2l0,0C125.1,86.8,125.1,86.8,125,86.8C125.1,86.8,125.1,86.9,125,86.8z"/>
	<path class="st10" d="M127.8,86.8l-0.6-0.1c-0.1,0-0.2,0-0.3,0l-0.6,0.1c0,0-0.1,0-0.1,0c0,0,0,0,0-0.1l0,0c0-0.1,0.4-0.2,0.4-0.2
		c0.1,0,0.3-0.1,0.7,0c0,0,0.6,0.1,0.6,0.2l0,0C127.9,86.8,127.9,86.8,127.8,86.8C127.8,86.8,127.8,86.9,127.8,86.8z"/>
	<path class="st11" d="M124.9,87.4c0,0-0.3,0.3-0.6,0.3c-0.3,0-0.6-0.3-0.6-0.3s0.3-0.3,0.6-0.3C124.7,87.1,124.9,87.4,124.9,87.4z"
		/>
	<circle class="st12" cx="124.4" cy="87.4" r="0.2"/>
	<circle class="st2" cx="124.4" cy="87.4" r="0.1"/>
	<path class="st2" d="M125.7,90.4c0.5,0,0.6-0.4,0.7-0.6H125C125.1,90,125.4,90.4,125.7,90.4z"/>
	<path class="st13" d="M126.4,89.7C126.4,89.7,126.4,89.7,126.4,89.7l-1.4,0c0,0,0,0,0,0c0,0,0,0,0,0c0.1,0.4,0.5,0.7,0.7,0.7
		C126,90.4,126.3,90.2,126.4,89.7C126.4,89.7,126.4,89.7,126.4,89.7z M125.7,90.4c-0.2,0-0.6-0.2-0.7-0.6h1.4
		C126.2,90.1,125.9,90.4,125.7,90.4z"/>
	<g>
		<path class="st14" d="M126.3,89.9H125c0.1,0.2,0.2,0.3,0.3,0.4h0.7C126.1,90.2,126.2,90,126.3,89.9z"/>
	</g>
	<path class="st15" d="M125.8,88.7c0,0,0,0-0.1,0c-0.1,0-0.1,0-0.1,0c-0.1-0.1-0.2,0-0.2,0c0,0.1,0.2,0,0.2,0c0,0,0.1,0,0.1,0
		C125.7,88.8,125.7,88.8,125.8,88.7c0,0.1,0.2,0.1,0.2,0C125.9,88.7,125.9,88.6,125.8,88.7z"/>
	<path class="st10" d="M123.3,88.7c0,0-0.6-2.2,0.7-3.2c0,0,0.9,0.7,2,0.5c0,0,0.4-0.1,0.8-0.4c0,0,0.9-0.4,1.2,0.5
		c0.3,0.9,0.2,1.8,0.2,2.4c0,0,0.4-0.9,0.4-2.3c0,0,0.1,0.2,0.1,0.6c0,0,0.2-1.1-0.1-1.7c0,0-0.2-0.7-1-1c0,0-0.5-0.7-2.3-0.6
		c0,0,0-0.1,0.3-0.2c0,0-1.4-0.1-1.7,0.9c0,0-1.2,0.3-1,2.3l0.1-0.4C122.8,85.9,122.6,87.7,123.3,88.7z"/>
	<path class="st11" d="M126.4,87.4c0,0,0.3,0.3,0.6,0.3c0.3,0,0.6-0.3,0.6-0.3s-0.3-0.3-0.6-0.3C126.7,87.1,126.4,87.4,126.4,87.4z"
		/>
	<circle class="st12" cx="127" cy="87.4" r="0.2"/>
	<circle class="st2" cx="127.1" cy="87.4" r="0.1"/>
	<path class="st16" d="M124.9,91.1l2,0.7c0,0-0.5-0.3-0.4-0.9c0,0-0.7,0.4-1.6,0C124.9,90.9,124.9,91,124.9,91.1z"/>
	<path class="st17" d="M127.3,92.5l-0.3,1.2l0,0l0,0l0,0.1l0,0v0l-0.3,1.2c0,0-0.1,0-0.1,0c-0.1,0-0.3,0-0.4,0.1c-0.2,0-0.4,0-0.7,0
		c-0.1,0-0.1,0-0.2,0c-0.1,0-0.3,0-0.4,0c-0.1,0-0.1,0-0.1,0l-0.3-1.3v0l0,0l0-0.1v0l-0.3-1.2l0.2,0h0l0.9-0.1h0l0.4,0l0,0l0,0h0.1
		l0,0l0,0l0,0l0,0h0.1h0.4h0l0.9,0v0h0L127.3,92.5z"/>
	<polygon class="st18" points="125.7,92.5 124.3,93.9 123.8,91.9 124.5,91.7 	"/>
	<polygon class="st18" points="125.7,92.5 127.1,93.9 127.6,91.9 126.9,91.7 	"/>
	<path class="st19" d="M126,92.9c0,0-0.1,0-0.1,0h-0.3c-0.1,0-0.1,0-0.1,0l-0.2-0.4c0-0.1,0-0.1,0.1-0.1h0.7c0.1,0,0.2,0.1,0.1,0.1
		L126,92.9z"/>
	<path class="st19" d="M125.5,95.1c-0.1,0-0.1,0-0.2,0l0.2-2.2v0l0,0h0.6l0,0v0l0.2,2.1C126,95.1,125.7,95.1,125.5,95.1z"/>
	<path class="st20" d="M120.8,93.1c1-0.9,2.3-1.2,2.4-1.2c0,0,0,0,0,0l0.3,0.5l0,0.1l0.3,0.6l0.6,2c-0.1,0-0.3,0-0.4-0.1
		c0,0,0,0-0.1,0c-0.4-0.1-0.8-0.2-1.2-0.4C122.1,94.2,121.4,93.7,120.8,93.1z"/>
	<path class="st21" d="M126.9,94.9l0.6-1.9l0-0.6v0l0-0.4l0-0.2v0l0,0h0c0,0,0.3,0.1,0.7,0.2c0,0,0,0,0,0c0.5,0.2,1.2,0.5,1.8,0.9
		c0.1,0.1,0.1,0.1,0.2,0.2c-0.5,0.5-1,0.9-1.6,1.2c-0.3,0.2-0.7,0.3-1.1,0.5C127.3,94.9,127.1,94.9,126.9,94.9z"/>
	<polygon class="st17" points="125.7,92.4 127.1,93.8 127.6,91.9 126.8,91.6 	"/>
	<path class="st22" d="M128.2,92l0,0.4v0l0,0l-0.2,2h-0.8l0.2,0.4c-0.2,0.1-0.4,0.1-0.6,0.2c-0.1,0-0.1,0-0.2,0c0,0-0.1,0-0.1,0
		l0.3-1.4l0-0.1l0.2-1.1l0,0l0,0l0,0l0,0l0.1-0.5v0l0-0.1l0,0c0,0,0,0,0,0c0,0,0,0,0,0C127.4,91.8,128,91.9,128.2,92
		C128.2,92,128.2,92,128.2,92z"/>
	<polygon class="st17" points="125.7,92.4 124.3,93.8 123.8,91.7 124.7,91.6 	"/>
	<path class="st21" d="M120.8,93.1C120.8,93,120.8,93,120.8,93.1c1.1-0.9,2.5-1.2,2.5-1.2l0,0l0.3,0.5l0,0.1l0.3,0.6l0.6,2
		c0,0,0,0,0,0c-0.1,0-0.3,0-0.4-0.1c0,0,0,0-0.1,0c-0.4-0.1-0.8-0.2-1.2-0.4C122.1,94.2,121.4,93.7,120.8,93.1z"/>
	<path class="st22" d="M124.7,95c-0.1,0-0.1,0-0.2,0c0,0,0,0,0,0c0,0,0,0,0,0c-0.1,0-0.3,0-0.4-0.1c0,0,0,0-0.1,0l-0.1-0.2l0.3-0.4
		h-0.8l-0.2-2.5v0c0,0,0,0,0,0c0,0,0,0,0.1,0c0.4-0.1,0.8-0.1,0.8-0.1c0,0,0,0,0,0l0,0.1l0,0.1v0l0.1,0.4l0,0.1v0l0,0.1v0l0,0l0.2,1
		l0,0.1l0.3,1.5C124.9,95.1,124.8,95.1,124.7,95z"/>
	<path class="st5" d="M131.9,124.3c0,1.7-0.7,3.2-1.7,4.4c-0.5,0.5-1,0.9-1.6,1.2c-0.3,0.2-0.7,0.3-1.1,0.5
		c-0.2,0.1-0.4,0.1-0.6,0.2c-0.1,0-0.1,0-0.2,0c0,0-0.1,0-0.1,0c-0.1,0-0.3,0-0.4,0.1c-0.2,0-0.4,0-0.7,0c-0.1,0-0.1,0-0.2,0
		c-0.1,0-0.3,0-0.4,0c-0.1,0-0.1,0-0.2,0c-0.1,0-0.1,0-0.2,0c0,0,0,0,0,0c0,0,0,0,0,0c-0.1,0-0.3,0-0.4-0.1c0,0,0,0-0.1,0
		c-0.4-0.1-0.8-0.2-1.2-0.4c-0.8-0.4-1.5-0.9-2-1.5c0,0,0,0,0,0c-1.1-1.1-1.7-2.7-1.7-4.3c0-3.5,2.9-6.4,6.4-6.4
		C129,117.9,131.9,120.8,131.9,124.3z"/>
	<path class="st6" d="M128.2,128l-1.1-0.5c-0.8-0.4-0.6-1-0.6-1h-0.8h0h-0.8c0,0,0.2,0.6-0.6,1l-0.9,0.5l2.3,0L128.2,128z"/>
	<path class="st6" d="M123.2,123c0,0.4-0.1,0.7-0.2,0.7s-0.3-0.3-0.3-0.6c0-0.4,0.1-0.7,0.3-0.7C123.2,122.4,123.2,122.7,123.2,123z
		"/>
	<path class="st7" d="M128.1,123c0,0.4,0.1,0.7,0.2,0.7s0.3-0.3,0.3-0.6c0-0.4-0.1-0.7-0.3-0.7C128.2,122.3,128.1,122.6,128.1,123z"
		/>
	<ellipse class="st8" cx="125.7" cy="123.1" rx="2.5" ry="3.6"/>
	<path class="st9" d="M125.7,119.5v7.2c-1.4,0-2.5-1.6-2.5-3.5C123.2,121.1,124.2,119.6,125.7,119.5z"/>
	<path class="st10" d="M125,122.4l-0.6-0.1c-0.1,0-0.2,0-0.3,0l-0.6,0.1c0,0-0.1,0-0.1,0c0,0,0,0,0-0.1l0,0c0-0.1,0.4-0.2,0.4-0.2
		c0.1,0,0.3-0.1,0.7,0c0,0,0.6,0.1,0.6,0.2l0,0C125.1,122.4,125.1,122.4,125,122.4C125.1,122.4,125.1,122.4,125,122.4z"/>
	<path class="st10" d="M127.8,122.4l-0.6-0.1c-0.1,0-0.2,0-0.3,0l-0.6,0.1c0,0-0.1,0-0.1,0c0,0,0,0,0-0.1l0,0c0-0.1,0.4-0.2,0.4-0.2
		c0.1,0,0.3-0.1,0.7,0c0,0,0.6,0.1,0.6,0.2l0,0C127.9,122.4,127.9,122.4,127.8,122.4C127.8,122.4,127.8,122.4,127.8,122.4z"/>
	<path class="st11" d="M124.9,123c0,0-0.3,0.3-0.6,0.3c-0.3,0-0.6-0.3-0.6-0.3s0.3-0.3,0.6-0.3C124.7,122.7,124.9,123,124.9,123z"/>
	<circle class="st12" cx="124.4" cy="123" r="0.2"/>
	<circle class="st2" cx="124.4" cy="123" r="0.1"/>
	<path class="st2" d="M125.7,126c0.5,0,0.6-0.4,0.7-0.6H125C125.1,125.6,125.4,126,125.7,126z"/>
	<path class="st13" d="M126.4,125.3C126.4,125.3,126.4,125.3,126.4,125.3l-1.4,0c0,0,0,0,0,0c0,0,0,0,0,0c0.1,0.4,0.5,0.7,0.7,0.7
		C126,126,126.3,125.8,126.4,125.3C126.4,125.3,126.4,125.3,126.4,125.3z M125.7,126c-0.2,0-0.6-0.2-0.7-0.6h1.4
		C126.2,125.7,125.9,126,125.7,126z"/>
	<g>
		<path class="st14" d="M126.3,125.5H125c0.1,0.2,0.2,0.3,0.3,0.4h0.7C126.1,125.8,126.2,125.6,126.3,125.5z"/>
	</g>
	<path class="st15" d="M125.8,124.3c0,0,0,0-0.1,0c-0.1,0-0.1,0-0.1,0c-0.1-0.1-0.2,0-0.2,0c0,0.1,0.2,0,0.2,0c0,0,0.1,0,0.1,0
		C125.7,124.4,125.7,124.4,125.8,124.3c0,0.1,0.2,0.1,0.2,0C125.9,124.3,125.9,124.2,125.8,124.3z"/>
	<path class="st10" d="M123.3,124.3c0,0-0.6-2.2,0.7-3.2c0,0,0.9,0.7,2,0.5c0,0,0.4-0.1,0.8-0.4c0,0,0.9-0.4,1.2,0.5
		c0.3,0.9,0.2,1.8,0.2,2.4c0,0,0.4-0.9,0.4-2.3c0,0,0.1,0.2,0.1,0.6c0,0,0.2-1.1-0.1-1.7c0,0-0.2-0.7-1-1c0,0-0.5-0.7-2.3-0.6
		c0,0,0-0.1,0.3-0.2c0,0-1.4-0.1-1.7,0.9c0,0-1.2,0.3-1,2.3l0.1-0.4C122.8,121.5,122.6,123.3,123.3,124.3z"/>
	<path class="st11" d="M126.4,123c0,0,0.3,0.3,0.6,0.3c0.3,0,0.6-0.3,0.6-0.3s-0.3-0.3-0.6-0.3C126.7,122.7,126.4,123,126.4,123z"/>
	<circle class="st12" cx="127" cy="123" r="0.2"/>
	<circle class="st2" cx="127.1" cy="123" r="0.1"/>
	<path class="st16" d="M124.9,126.7l2,0.7c0,0-0.5-0.3-0.4-0.9c0,0-0.7,0.4-1.6,0C124.9,126.5,124.9,126.6,124.9,126.7z"/>
	<path class="st17" d="M127.3,128.1l-0.3,1.2l0,0l0,0l0,0.1l0,0v0l-0.3,1.2c0,0-0.1,0-0.1,0c-0.1,0-0.3,0-0.4,0.1
		c-0.2,0-0.4,0-0.7,0c-0.1,0-0.1,0-0.2,0c-0.1,0-0.3,0-0.4,0c-0.1,0-0.1,0-0.1,0l-0.3-1.3v0l0,0l0-0.1v0l-0.3-1.2l0.2,0h0l0.9-0.1h0
		l0.4,0l0,0l0,0h0.1l0,0l0,0l0,0l0,0h0.1h0.4h0l0.9,0.1v0h0L127.3,128.1z"/>
	<polygon class="st18" points="125.7,128.1 124.3,129.5 123.8,127.5 124.5,127.3 	"/>
	<polygon class="st18" points="125.7,128.1 127.1,129.5 127.6,127.5 126.9,127.3 	"/>
	<path class="st19" d="M126,128.5c0,0-0.1,0-0.1,0h-0.3c-0.1,0-0.1,0-0.1,0l-0.2-0.4c0-0.1,0-0.1,0.1-0.1h0.7c0.1,0,0.2,0.1,0.1,0.1
		L126,128.5z"/>
	<path class="st19" d="M125.5,130.7c-0.1,0-0.1,0-0.2,0l0.2-2.2v0l0,0h0.6l0,0v0l0.2,2.1C126,130.7,125.7,130.7,125.5,130.7z"/>
	<path class="st20" d="M120.8,128.6c1-0.9,2.3-1.2,2.4-1.2c0,0,0,0,0,0l0.3,0.5l0,0.1l0.3,0.6l0.6,2c-0.1,0-0.3,0-0.4-0.1
		c0,0,0,0-0.1,0c-0.4-0.1-0.8-0.2-1.2-0.4C122.1,129.8,121.4,129.3,120.8,128.6z"/>
	<path class="st21" d="M126.9,130.5l0.6-1.9l0-0.6v0l0-0.4l0-0.2v0l0,0h0c0,0,0.3,0.1,0.7,0.2c0,0,0,0,0,0c0.5,0.2,1.2,0.5,1.8,0.9
		c0.1,0.1,0.1,0.1,0.2,0.2c-0.5,0.5-1,0.9-1.6,1.2c-0.3,0.2-0.7,0.3-1.1,0.5C127.3,130.4,127.1,130.5,126.9,130.5z"/>
	<polygon class="st17" points="125.7,128 127.1,129.4 127.6,127.4 126.8,127.2 	"/>
	<path class="st22" d="M128.2,127.6l0,0.4v0l0,0l-0.2,2h-0.8l0.2,0.4c-0.2,0.1-0.4,0.1-0.6,0.2c-0.1,0-0.1,0-0.2,0c0,0-0.1,0-0.1,0
		l0.3-1.4l0-0.1l0.2-1.1l0,0l0,0l0,0l0,0l0.1-0.5v0l0-0.1l0,0c0,0,0,0,0,0c0,0,0,0,0,0C127.4,127.4,128,127.5,128.2,127.6
		C128.2,127.6,128.2,127.6,128.2,127.6z"/>
	<polygon class="st17" points="125.7,128 124.3,129.4 123.8,127.3 124.7,127.2 	"/>
	<path class="st21" d="M120.8,128.6C120.8,128.6,120.8,128.6,120.8,128.6c1.1-0.9,2.5-1.2,2.5-1.2l0,0l0.3,0.5l0,0.1l0.3,0.6l0.6,2
		c0,0,0,0,0,0c-0.1,0-0.3,0-0.4-0.1c0,0,0,0-0.1,0c-0.4-0.1-0.8-0.2-1.2-0.4C122.1,129.8,121.4,129.3,120.8,128.6z"/>
	<path class="st22" d="M124.7,130.6c-0.1,0-0.1,0-0.2,0c0,0,0,0,0,0c0,0,0,0,0,0c-0.1,0-0.3,0-0.4-0.1c0,0,0,0-0.1,0l-0.1-0.2
		l0.3-0.4h-0.8l-0.2-2.5v0c0,0,0,0,0,0c0,0,0,0,0.1,0c0.4-0.1,0.8-0.1,0.8-0.1c0,0,0,0,0,0l0,0.1l0,0.1v0l0.1,0.4l0,0.1v0l0,0.1v0
		l0,0l0.2,1l0,0.1l0.3,1.5C124.9,130.7,124.8,130.7,124.7,130.6z"/>
	<path class="st23" d="M176.5,71c0,2-0.9,3.7-2.3,4.9c-1.1,0.9-2.5,1.5-4.1,1.5c-1.5,0-2.8-0.5-3.9-1.3c-1.5-1.2-2.4-3-2.4-5
		c0-3.5,2.9-6.4,6.4-6.4C173.7,64.7,176.5,67.5,176.5,71z"/>
	<polygon class="st24" points="169.7,74.6 168.4,74.6 168.8,75.1 170.2,76.5 172,74.7 	"/>
	<path class="st6" d="M171.1,72.8l-1.6,0c0,0,0.5,1.5-1.4,1.8l2.3,0.4l2.2-0.4C170.9,74.6,171.1,72.8,171.1,72.8z"/>
	<ellipse class="st25" cx="170.3" cy="70.1" rx="2.3" ry="2.9"/>
	<path class="st9" d="M170.2,67.2l0,5.8c-1.3,0-2.3-1.3-2.3-2.9C168,68.5,169,67.2,170.2,67.2z"/>
	<path class="st10" d="M171.3,68c0,0-1.7,0.8-2.6,0.9c0,0-0.7,0.1-0.6,0.9s0.3,1.7,0.3,1.9c0.1,0.2,0.4,1.8-0.1,2.3
		c0,0,0.2-1.5-0.3-1.9c0,0-0.8-1.2-0.8-2.5c0,0,0-2.2,1.2-3.2c0,0,1.5-1.3,3.6-0.2c0,0,1.1,0.4,1.6,2.1c0,0,0.3,0.7-0.4,2.3
		s-0.7,1.8-0.7,2.1c0,0-0.1,1,0.4,1.6c0,0-1.3-1.3-0.8-2.1c0.5-0.8,0.6-1.8,0.6-2C172.5,70,172.4,68.2,171.3,68z"/>
	<path class="st26" d="M169.5,73.1l1.9,1.1c0,0-0.5-0.4-0.4-1.3c0,0-0.8,0.4-1.6,0C169.5,72.9,169.5,73,169.5,73.1z"/>
	<path class="st27" d="M174.2,75.9c-1.1,0.9-2.5,1.5-4.1,1.5c-1.5,0-2.8-0.5-3.9-1.3l0.1-0.2c0,0,0,0,0-0.1c0.3-0.7,0.9-1.2,1.7-1.2
		l0.1,0l0.4,0.1l0.8,0.1c0.6,0.1,1.3,0.1,1.9,0l0.7-0.1l0.5-0.1h0l0.1,0c0.8,0,1.4,0.5,1.7,1.2C174.2,75.8,174.2,75.8,174.2,75.9
		L174.2,75.9z"/>
	<path class="st28" d="M169.7,69.9c0,0-0.2,0.3-0.5,0.3c-0.3,0-0.5-0.3-0.5-0.3s0.2-0.3,0.5-0.3C169.4,69.6,169.7,69.9,169.7,69.9z"
		/>
	<circle class="st12" cx="169.1" cy="69.9" r="0.2"/>
	<path class="st29" d="M169.2,70.3c0.2,0,0.3-0.2,0.4-0.2C169.5,70.1,169.4,70.3,169.2,70.3c-0.2,0-0.4-0.1-0.5-0.1
		C168.8,70.2,169,70.3,169.2,70.3z"/>
	<path class="st29" d="M168.4,69.6c0.1,0,0.2,0,0.2,0c0.1,0,0.2-0.1,0.2-0.1l0,0c0.1,0,0.1-0.1,0.2-0.1c0.3,0,0.6,0.3,0.6,0.4
		c0,0-0.1-0.1-0.2-0.2c-0.1-0.1-0.2-0.1-0.4-0.1c-0.3,0-0.5,0.3-0.5,0.4c0,0,0.1-0.2,0.1-0.2C168.6,69.7,168.5,69.8,168.4,69.6
		c0,0.1-0.1,0-0.1,0S168.3,69.6,168.4,69.6z"/>
	<path class="st28" d="M170.8,69.9c0,0,0.2,0.3,0.5,0.3c0.3,0,0.5-0.3,0.5-0.3s-0.2-0.3-0.5-0.3C171.1,69.6,170.8,69.9,170.8,69.9z"
		/>
	<circle class="st12" cx="171.4" cy="69.9" r="0.2"/>
	<path class="st29" d="M171.3,70.3c-0.2,0-0.3-0.2-0.4-0.2C171,70.1,171.1,70.3,171.3,70.3c0.2,0,0.4-0.1,0.5-0.1
		C171.7,70.2,171.5,70.3,171.3,70.3z"/>
	<path class="st29" d="M172.1,69.6c-0.1,0-0.2,0-0.2,0c-0.1,0-0.2-0.1-0.2-0.1l0,0c-0.1,0-0.1-0.1-0.2-0.1c-0.3,0-0.6,0.3-0.6,0.4
		c0,0,0.1-0.1,0.2-0.2c0.1-0.1,0.2-0.1,0.4-0.1c0.3,0,0.5,0.3,0.5,0.4c0,0-0.1-0.2-0.1-0.2C171.9,69.7,171.9,69.8,172.1,69.6
		c0,0.1,0.1,0,0.1,0S172.2,69.6,172.1,69.6z"/>
	<path class="st2" d="M170.3,72.5c0.3,0,0.6-0.2,0.7-0.6h-1.4C169.7,72.3,170,72.5,170.3,72.5z"/>
	<path class="st13" d="M171,71.8C171,71.8,171,71.8,171,71.8l-1.5,0c0,0,0,0,0,0c0,0,0,0,0,0c0.1,0.4,0.5,0.7,0.7,0.7
		C170.5,72.6,170.9,72.3,171,71.8C171,71.9,171,71.8,171,71.8z M170.3,72.5c-0.2,0-0.6-0.2-0.7-0.6h1.4
		C170.8,72.3,170.5,72.5,170.3,72.5z"/>
	<g>
		<path class="st14" d="M170.9,72h-1.3c0.1,0.2,0.2,0.3,0.3,0.4h0.7C170.7,72.3,170.8,72.2,170.9,72z"/>
	</g>
	<circle class="st2" cx="169.2" cy="69.9" r="0.1"/>
	<circle class="st2" cx="171.4" cy="69.9" r="0.1"/>
	<path class="st23" d="M176.4,106.6c0,2-0.9,3.7-2.3,4.9c-1.1,0.9-2.5,1.5-4.1,1.5c-1.5,0-2.8-0.5-3.9-1.3c-1.5-1.2-2.4-3-2.4-5
		c0-3.5,2.9-6.4,6.4-6.4C173.5,100.2,176.4,103.1,176.4,106.6z"/>
	<polygon class="st24" points="169.5,110.1 168.3,110.1 168.6,110.7 170.1,112.1 171.8,110.2 	"/>
	<path class="st6" d="M170.9,108.4l-1.6,0c0,0,0.5,1.5-1.4,1.8l2.3,0.4l2.2-0.4C170.7,110.1,170.9,108.4,170.9,108.4z"/>
	<ellipse class="st25" cx="170.1" cy="105.7" rx="2.3" ry="2.9"/>
	<path class="st9" d="M170.1,102.8l0,5.8c-1.3,0-2.3-1.3-2.3-2.9C167.8,104.1,168.9,102.8,170.1,102.8z"/>
	<path class="st10" d="M171.1,103.6c0,0-1.7,0.8-2.6,0.9c0,0-0.7,0.1-0.6,0.9c0.1,0.8,0.3,1.7,0.3,1.9c0.1,0.2,0.4,1.8-0.1,2.3
		c0,0,0.2-1.5-0.3-1.9c0,0-0.8-1.2-0.8-2.5c0,0,0-2.2,1.2-3.2c0,0,1.5-1.3,3.6-0.2c0,0,1.1,0.4,1.6,2.1c0,0,0.3,0.7-0.4,2.3
		c-0.7,1.6-0.7,1.8-0.7,2.1c0,0-0.1,1,0.4,1.6c0,0-1.3-1.3-0.8-2.1c0.5-0.8,0.6-1.8,0.6-2C172.4,105.6,172.3,103.7,171.1,103.6z"/>
	<path class="st26" d="M169.4,108.7l1.9,1.1c0,0-0.5-0.4-0.4-1.3c0,0-0.8,0.4-1.6,0C169.4,108.4,169.4,108.6,169.4,108.7z"/>
	<path class="st27" d="M174.1,111.5c-1.1,0.9-2.5,1.5-4.1,1.5c-1.5,0-2.8-0.5-3.9-1.3l0.1-0.2c0,0,0,0,0-0.1
		c0.3-0.7,0.9-1.2,1.7-1.2l0.1,0l0.4,0.1l0.8,0.1c0.6,0.1,1.3,0.1,1.9,0l0.7-0.1l0.5-0.1h0l0.1,0c0.8,0,1.4,0.5,1.7,1.2
		C174,111.4,174.1,111.4,174.1,111.5L174.1,111.5z"/>
	<path class="st28" d="M169.5,105.5c0,0-0.2,0.3-0.5,0.3c-0.3,0-0.5-0.3-0.5-0.3s0.2-0.3,0.5-0.3
		C169.3,105.2,169.5,105.5,169.5,105.5z"/>
	<circle class="st12" cx="169" cy="105.5" r="0.2"/>
	<path class="st29" d="M169,105.8c0.2,0,0.3-0.2,0.4-0.2C169.4,105.7,169.2,105.8,169,105.8c-0.2,0-0.4-0.1-0.5-0.1
		C168.7,105.8,168.8,105.8,169,105.8z"/>
	<path class="st29" d="M168.3,105.2c0.1,0,0.2,0,0.2,0c0.1,0,0.2-0.1,0.2-0.1l0,0c0.1,0,0.1-0.1,0.2-0.1c0.3,0,0.6,0.3,0.6,0.4
		c0,0-0.1-0.1-0.2-0.2c-0.1-0.1-0.2-0.1-0.4-0.1c-0.3,0-0.5,0.3-0.5,0.4c0,0,0.1-0.2,0.1-0.2C168.5,105.3,168.4,105.3,168.3,105.2
		c0,0.1-0.1,0-0.1,0S168.2,105.2,168.3,105.2z"/>
	<path class="st28" d="M170.7,105.5c0,0,0.2,0.3,0.5,0.3c0.3,0,0.5-0.3,0.5-0.3s-0.2-0.3-0.5-0.3
		C170.9,105.2,170.7,105.5,170.7,105.5z"/>
	<circle class="st12" cx="171.2" cy="105.5" r="0.2"/>
	<path class="st29" d="M171.2,105.8c-0.2,0-0.3-0.2-0.4-0.2C170.8,105.7,171,105.8,171.2,105.8c0.2,0,0.4-0.1,0.5-0.1
		C171.5,105.8,171.4,105.8,171.2,105.8z"/>
	<path class="st29" d="M171.9,105.2c-0.1,0-0.2,0-0.2,0c-0.1,0-0.2-0.1-0.2-0.1l0,0c-0.1,0-0.1-0.1-0.2-0.1c-0.3,0-0.6,0.3-0.6,0.4
		c0,0,0.1-0.1,0.2-0.2c0.1-0.1,0.2-0.1,0.4-0.1c0.3,0,0.5,0.3,0.5,0.4c0,0-0.1-0.2-0.1-0.2C171.7,105.3,171.8,105.3,171.9,105.2
		c0,0.1,0.1,0,0.1,0S172,105.2,171.9,105.2z"/>
	<path class="st2" d="M170.1,108.1c0.3,0,0.6-0.2,0.7-0.6h-1.4C169.5,107.8,169.9,108.1,170.1,108.1z"/>
	<path class="st13" d="M170.9,107.4C170.9,107.4,170.8,107.4,170.9,107.4l-1.5,0c0,0,0,0,0,0c0,0,0,0,0,0c0.1,0.4,0.5,0.7,0.7,0.7
		C170.4,108.1,170.7,107.9,170.9,107.4C170.9,107.4,170.9,107.4,170.9,107.4z M170.1,108.1c-0.2,0-0.6-0.2-0.7-0.6h1.4
		C170.7,107.8,170.4,108.1,170.1,108.1z"/>
	<g>
		<path class="st14" d="M170.8,107.6h-1.3c0.1,0.2,0.2,0.3,0.3,0.4h0.7C170.6,107.9,170.7,107.7,170.8,107.6z"/>
	</g>
	<circle class="st2" cx="169" cy="105.5" r="0.1"/>
	<circle class="st2" cx="171.3" cy="105.4" r="0.1"/>
	<path class="st23" d="M176.7,142.1c0,2-0.9,3.7-2.3,4.9c-1.1,0.9-2.5,1.5-4.1,1.5c-1.5,0-2.8-0.5-3.9-1.3c-1.5-1.2-2.4-3-2.4-5
		c0-3.5,2.9-6.4,6.4-6.4C173.9,135.8,176.7,138.6,176.7,142.1z"/>
	<polygon class="st24" points="169.9,145.7 168.6,145.7 169,146.2 170.4,147.6 172.2,145.8 	"/>
	<path class="st6" d="M171.3,143.9l-1.6,0c0,0,0.5,1.5-1.4,1.8l2.3,0.4l2.2-0.4C171.1,145.6,171.3,143.9,171.3,143.9z"/>
	<ellipse class="st25" cx="170.4" cy="141.2" rx="2.3" ry="2.9"/>
	<path class="st9" d="M170.4,138.3l0,5.8c-1.3,0-2.3-1.3-2.3-2.9C168.2,139.6,169.2,138.3,170.4,138.3z"/>
	<path class="st10" d="M171.4,139.1c0,0-1.7,0.8-2.6,0.9c0,0-0.7,0.1-0.6,0.9c0.1,0.8,0.3,1.7,0.3,1.9c0.1,0.2,0.4,1.8-0.1,2.3
		c0,0,0.2-1.5-0.3-1.9c0,0-0.8-1.2-0.8-2.5c0,0,0-2.2,1.2-3.2c0,0,1.5-1.3,3.6-0.2c0,0,1.1,0.4,1.6,2.1c0,0,0.3,0.7-0.4,2.3
		c-0.7,1.6-0.7,1.8-0.7,2.1c0,0-0.1,1,0.4,1.6c0,0-1.3-1.3-0.8-2.1c0.5-0.8,0.6-1.8,0.6-2C172.7,141.1,172.6,139.3,171.4,139.1z"/>
	<path class="st26" d="M169.7,144.2l1.9,1.1c0,0-0.5-0.4-0.4-1.3c0,0-0.8,0.4-1.6,0C169.7,144,169.7,144.1,169.7,144.2z"/>
	<path class="st27" d="M174.4,147c-1.1,0.9-2.5,1.5-4.1,1.5c-1.5,0-2.8-0.5-3.9-1.3l0.1-0.2c0,0,0,0,0-0.1c0.3-0.7,0.9-1.2,1.7-1.2
		l0.1,0l0.4,0.1l0.8,0.1c0.6,0.1,1.3,0.1,1.9,0l0.7-0.1l0.5-0.1h0l0.1,0c0.8,0,1.4,0.5,1.7,1.2C174.4,146.9,174.4,146.9,174.4,147
		L174.4,147z"/>
	<path class="st28" d="M169.9,141c0,0-0.2,0.3-0.5,0.3c-0.3,0-0.5-0.3-0.5-0.3s0.2-0.3,0.5-0.3C169.6,140.7,169.9,141,169.9,141z"/>
	<circle class="st12" cx="169.3" cy="141" r="0.2"/>
	<path class="st29" d="M169.4,141.3c0.2,0,0.3-0.2,0.4-0.2C169.7,141.2,169.6,141.3,169.4,141.3c-0.2,0-0.4-0.1-0.5-0.1
		C169,141.3,169.2,141.4,169.4,141.3z"/>
	<path class="st29" d="M168.6,140.7c0.1,0,0.2,0,0.2,0c0.1,0,0.2-0.1,0.2-0.1l0,0c0.1,0,0.1-0.1,0.2-0.1c0.3,0,0.6,0.3,0.6,0.4
		c0,0-0.1-0.1-0.2-0.2c-0.1-0.1-0.2-0.1-0.4-0.1c-0.3,0-0.5,0.3-0.5,0.4c0,0,0.1-0.2,0.1-0.2C168.8,140.8,168.7,140.8,168.6,140.7
		c0,0.1-0.1,0-0.1,0S168.5,140.7,168.6,140.7z"/>
	<path class="st28" d="M171,141c0,0,0.2,0.3,0.5,0.3c0.3,0,0.5-0.3,0.5-0.3s-0.2-0.3-0.5-0.3C171.2,140.7,171,141,171,141z"/>
	<circle class="st12" cx="171.5" cy="141" r="0.2"/>
	<path class="st29" d="M171.5,141.3c-0.2,0-0.3-0.2-0.4-0.2C171.2,141.2,171.3,141.3,171.5,141.3c0.2,0,0.4-0.1,0.5-0.1
		C171.9,141.3,171.7,141.4,171.5,141.3z"/>
	<path class="st29" d="M172.3,140.7c-0.1,0-0.2,0-0.2,0c-0.1,0-0.2-0.1-0.2-0.1l0,0c-0.1,0-0.1-0.1-0.2-0.1c-0.3,0-0.6,0.3-0.6,0.4
		c0,0,0.1-0.1,0.2-0.2c0.1-0.1,0.2-0.1,0.4-0.1c0.3,0,0.5,0.3,0.5,0.4c0,0-0.1-0.2-0.1-0.2C172,140.8,172.1,140.8,172.3,140.7
		c0,0.1,0.1,0,0.1,0S172.3,140.7,172.3,140.7z"/>
	<path class="st2" d="M170.4,143.6c0.3,0,0.6-0.2,0.7-0.6h-1.4C169.9,143.4,170.2,143.6,170.4,143.6z"/>
	<path class="st13" d="M171.2,142.9C171.2,142.9,171.2,142.9,171.2,142.9l-1.5,0c0,0,0,0,0,0c0,0,0,0,0,0c0.1,0.4,0.5,0.7,0.7,0.7
		C170.7,143.6,171.1,143.4,171.2,142.9C171.2,142.9,171.2,142.9,171.2,142.9z M170.4,143.6c-0.2,0-0.6-0.2-0.7-0.6h1.4
		C171,143.4,170.7,143.6,170.4,143.6z"/>
	<g>
		<path class="st14" d="M171.1,143.1h-1.3c0.1,0.2,0.2,0.3,0.3,0.4h0.7C170.9,143.4,171,143.2,171.1,143.1z"/>
	</g>
	<circle class="st2" cx="169.4" cy="141" r="0.1"/>
	<circle class="st2" cx="171.6" cy="141" r="0.1"/>
	<path class="st15" d="M170.4,71.2c0,0,0,0-0.1,0c-0.1,0-0.1,0-0.1,0c-0.1-0.1-0.2,0-0.2,0c0,0.1,0.2,0,0.2,0c0,0,0.1,0,0.1,0
		C170.3,71.3,170.3,71.3,170.4,71.2c0,0.1,0.2,0.1,0.2,0C170.5,71.2,170.5,71.1,170.4,71.2z"/>
	<path class="st15" d="M170.2,106.6c0,0,0,0-0.1,0c-0.1,0-0.1,0-0.1,0c-0.1-0.1-0.2,0-0.2,0c0,0.1,0.2,0,0.2,0c0,0,0.1,0,0.1,0
		C170.1,106.7,170.2,106.7,170.2,106.6c0,0.1,0.2,0.1,0.2,0C170.4,106.6,170.4,106.5,170.2,106.6z"/>
	<path class="st15" d="M170.5,142.1c0,0,0,0-0.1,0c-0.1,0-0.1,0-0.1,0c-0.1-0.1-0.2,0-0.2,0c0,0.1,0.2,0,0.2,0c0,0,0.1,0,0.1,0
		C170.5,142.2,170.5,142.2,170.5,142.1c0,0.1,0.2,0.1,0.2,0C170.7,142.1,170.7,142,170.5,142.1z"/>
	<path class="st30" d="M169.8,53.1h-28.6c-0.3,0-0.5-0.2-0.5-0.5l0,0c0-0.3,0.2-0.5,0.5-0.5h28.6c0.3,0,0.5,0.2,0.5,0.5l0,0
		C170.4,52.9,170.1,53.1,169.8,53.1z"/>
	<path class="st30" d="M169.8,55.2h-28.6c-0.3,0-0.5-0.2-0.5-0.5l0,0c0-0.3,0.2-0.5,0.5-0.5h28.6c0.3,0,0.5,0.2,0.5,0.5l0,0
		C170.4,55,170.1,55.2,169.8,55.2z"/>
	<path class="st30" d="M160.8,57.3h-19.6c-0.3,0-0.5-0.2-0.5-0.5v0c0-0.3,0.2-0.5,0.5-0.5h19.6c0.3,0,0.5,0.2,0.5,0.5l0,0
		C161.3,57.1,161.1,57.3,160.8,57.3z"/>
	<path class="st30" d="M149.5,68.2h-24.8c-0.3,0-0.5-0.2-0.5-0.5l0,0c0-0.3,0.2-0.5,0.5-0.5h24.8c0.3,0,0.5,0.2,0.5,0.5l0,0
		C150.1,67.9,149.8,68.2,149.5,68.2z"/>
	<path class="st30" d="M153.3,70.3h-28.6c-0.3,0-0.5-0.2-0.5-0.5l0,0c0-0.3,0.2-0.5,0.5-0.5h28.6c0.3,0,0.5,0.2,0.5,0.5l0,0
		C153.9,70.1,153.6,70.3,153.3,70.3z"/>
	<path class="st30" d="M145.4,72.4h-20.7c-0.3,0-0.5-0.2-0.5-0.5v0c0-0.3,0.2-0.5,0.5-0.5h20.7c0.3,0,0.5,0.2,0.5,0.5v0
		C146,72.2,145.7,72.4,145.4,72.4z"/>
	<path class="st30" d="M165.6,122.5h-24.8c-0.3,0-0.5-0.2-0.5-0.5l0,0c0-0.3,0.2-0.5,0.5-0.5h24.8c0.3,0,0.5,0.2,0.5,0.5l0,0
		C166.1,122.2,165.9,122.5,165.6,122.5z"/>
	<path class="st30" d="M169.4,124.6h-28.6c-0.3,0-0.5-0.2-0.5-0.5v0c0-0.3,0.2-0.5,0.5-0.5h28.6c0.3,0,0.5,0.2,0.5,0.5v0
		C170,124.4,169.7,124.6,169.4,124.6z"/>
	<path class="st30" d="M148.5,126.7h-7.7c-0.3,0-0.5-0.2-0.5-0.5v0c0-0.3,0.2-0.5,0.5-0.5h7.7c0.3,0,0.5,0.2,0.5,0.5l0,0
		C149,126.5,148.8,126.7,148.5,126.7z"/>
	<path class="st30" d="M153.7,141.3H125c-0.3,0-0.5-0.2-0.5-0.5v0c0-0.3,0.2-0.5,0.5-0.5h28.6c0.3,0,0.5,0.2,0.5,0.5v0
		C154.2,141.1,154,141.3,153.7,141.3z"/>
	<path class="st30" d="M153.7,143.5H125c-0.3,0-0.5-0.2-0.5-0.5l0,0c0-0.3,0.2-0.5,0.5-0.5h28.6c0.3,0,0.5,0.2,0.5,0.5l0,0
		C154.2,143.2,154,143.5,153.7,143.5z"/>
	<path class="st30" d="M128.8,145.6H125c-0.3,0-0.5-0.2-0.5-0.5l0,0c0-0.3,0.2-0.5,0.5-0.5h3.8c0.3,0,0.5,0.2,0.5,0.5l0,0
		C129.3,145.3,129.1,145.6,128.8,145.6z"/>
	<path class="st30" d="M170.1,87.9h-29.4c-0.3,0-0.5-0.2-0.5-0.5l0,0c0-0.3,0.2-0.5,0.5-0.5h29.4c0.3,0,0.5,0.2,0.5,0.5l0,0
		C170.7,87.6,170.4,87.9,170.1,87.9z"/>
	<path class="st30" d="M165.5,90h-24.8c-0.3,0-0.5-0.2-0.5-0.5v0c0-0.3,0.2-0.5,0.5-0.5h24.8c0.3,0,0.5,0.2,0.5,0.5v0
		C166.1,89.7,165.9,90,165.5,90z"/>
	<path class="st30" d="M153.7,105.3h-29.4c-0.3,0-0.5-0.2-0.5-0.5l0,0c0-0.3,0.2-0.5,0.5-0.5h29.4c0.3,0,0.5,0.2,0.5,0.5l0,0
		C154.2,105.1,154,105.3,153.7,105.3z"/>
	<path class="st30" d="M136.2,107.4h-11.8c-0.3,0-0.5-0.2-0.5-0.5l0,0c0-0.3,0.2-0.5,0.5-0.5h11.8c0.3,0,0.5,0.2,0.5,0.5l0,0
		C136.7,107.2,136.5,107.4,136.2,107.4z"/>
	<path class="st30" d="M162.2,92.1h-21.5c-0.3,0-0.5-0.2-0.5-0.5l0,0c0-0.3,0.2-0.5,0.5-0.5h21.5c0.3,0,0.5,0.2,0.5,0.5l0,0
		C162.8,91.8,162.5,92.1,162.2,92.1z"/>
</g>
</svg>
