<?xml version="1.0" encoding="utf-8"?>
<!-- Generator: Adobe Illustrator 21.1.0, SVG Export Plug-In . SVG Version: 6.00 Build 0)  -->
<svg version="1.1" id="Camada_1" xmlns="http://www.w3.org/2000/svg" xmlns:xlink="http://www.w3.org/1999/xlink" x="0px" y="0px"
	 viewBox="0 0 300 200" style="enable-background:new 0 0 300 200;" xml:space="preserve">
<style type="text/css">
	.st0{fill:#495968;}
	.st1{fill:#C7CAD1;}
	.st2{fill:#FFFFFF;}
	.st3{fill:none;stroke:#333333;stroke-width:8;stroke-miterlimit:10;}
	.st4{fill:none;stroke:#00D398;stroke-width:3;stroke-miterlimit:10;}
	.st5{fill:#999999;}
	.st6{fill:#F5FBEF;}
</style>
<g>
	
		<rect x="98.9" y="31" transform="matrix(0.9914 -0.1309 0.1309 0.9914 -11.4984 20.8544)" class="st0" width="108" height="133.9"/>
	
		<rect x="85.8" y="49.6" transform="matrix(6.505854e-02 -0.9979 0.9979 6.505854e-02 39.4855 249.2838)" class="st1" width="133.9" height="108"/>
	
		<rect x="92.2" y="37.9" transform="matrix(0.9933 -0.1156 0.1156 0.9933 -11.1394 17.6105)" class="st2" width="108" height="133.9"/>
	
		<rect x="96.4" y="52.9" transform="matrix(0.9933 -0.1156 0.1156 0.9933 -6.4502 12.5991)" class="st3" width="17.9" height="17.9"/>
	<polyline class="st4" points="99.8,60.7 103.6,65.8 111.2,57.5 	"/>
	
		<rect x="120.7" y="49.9" transform="matrix(0.9933 -0.1156 0.1156 0.9933 -4.8602 17.946)" class="st5" width="63.1" height="1.9"/>
	
		<rect x="121.3" y="55.5" transform="matrix(0.9933 -0.1156 0.1156 0.9933 -5.5032 18.059)" class="st5" width="63.1" height="1.9"/>
	<rect x="122" y="62.6" transform="matrix(0.9933 -0.1156 0.1156 0.9933 -6.4241 16.4528)" class="st5" width="33.1" height="1.9"/>
	
		<rect x="99.1" y="75.9" transform="matrix(0.9933 -0.1156 0.1156 0.9933 -9.0937 13.0634)" class="st3" width="17.9" height="17.9"/>
	<polyline class="st4" points="102.5,83.8 106.2,88.8 113.9,80.6 	"/>
	
		<rect x="123.3" y="72.9" transform="matrix(0.9933 -0.1156 0.1156 0.9933 -7.5038 18.4107)" class="st5" width="63.1" height="1.9"/>
	<rect x="124" y="78.5" transform="matrix(0.9933 -0.1156 0.1156 0.9933 -8.1468 18.5236)" class="st5" width="63.1" height="1.9"/>
	
		<rect x="124.7" y="85.7" transform="matrix(0.9933 -0.1156 0.1156 0.9933 -9.0675 16.9172)" class="st5" width="33.1" height="1.9"/>
	
		<rect x="101.7" y="98.9" transform="matrix(0.9933 -0.1157 0.1157 0.9933 -11.7384 13.5293)" class="st3" width="17.9" height="17.9"/>
	<polyline class="st4" points="105.2,106.8 108.9,111.8 116.6,103.6 	"/>
	
		<rect x="126" y="95.9" transform="matrix(0.9933 -0.1156 0.1156 0.9933 -10.1471 18.8746)" class="st5" width="63.1" height="1.9"/>
	
		<rect x="126.7" y="101.5" transform="matrix(0.9933 -0.1156 0.1156 0.9933 -10.7902 18.9878)" class="st5" width="63.1" height="1.9"/>
	
		<rect x="127.4" y="108.7" transform="matrix(0.9933 -0.1157 0.1157 0.9933 -11.7115 17.3825)" class="st5" width="33.1" height="1.9"/>
	
		<rect x="104.4" y="122" transform="matrix(0.9933 -0.1156 0.1156 0.9933 -14.3789 13.9902)" class="st3" width="17.9" height="17.9"/>
	<polyline class="st4" points="107.9,129.8 111.6,134.8 119.3,126.6 	"/>
	
		<rect x="128.7" y="119" transform="matrix(0.9933 -0.1156 0.1156 0.9933 -12.7904 19.3386)" class="st5" width="63.1" height="1.9"/>
	
		<rect x="129.4" y="124.5" transform="matrix(0.9933 -0.1157 0.1157 0.9933 -13.4341 19.4528)" class="st5" width="63.1" height="1.9"/>
	
		<rect x="130.1" y="131.7" transform="matrix(0.9933 -0.1156 0.1156 0.9933 -14.3543 17.8457)" class="st5" width="33.1" height="1.9"/>
	
		<rect x="107.1" y="145" transform="matrix(0.9933 -0.1157 0.1157 0.9933 -17.026 14.4582)" class="st3" width="17.9" height="17.9"/>
	<polyline class="st4" points="110,152.3 114,157.8 122.4,148.8 	"/>
	
		<rect x="131.4" y="142" transform="matrix(0.9933 -0.1157 0.1157 0.9933 -15.4347 19.8042)" class="st5" width="63.1" height="1.9"/>
	
		<rect x="132" y="147.6" transform="matrix(0.9933 -0.1156 0.1156 0.9933 -16.0766 19.9157)" class="st5" width="63.1" height="1.9"/>
	
		<rect x="132.8" y="154.7" transform="matrix(0.9933 -0.1157 0.1157 0.9933 -16.9997 18.3125)" class="st5" width="33.1" height="1.9"/>
</g>
<rect x="271" y="288" class="st6" width="1" height="8"/>
</svg>
