<?xml version="1.0" encoding="utf-8"?>
<!-- Generator: Adobe Illustrator 21.1.0, SVG Export Plug-In . SVG Version: 6.00 Build 0)  -->
<svg version="1.1" id="Camada_1" xmlns="http://www.w3.org/2000/svg" xmlns:xlink="http://www.w3.org/1999/xlink" x="0px" y="0px"
	 viewBox="0 0 300 200" style="enable-background:new 0 0 300 200;" xml:space="preserve">
<style type="text/css">
	.st0{fill:#F5FBEF;}
	.st1{fill:#B5BD86;}
	.st2{fill:#406325;}
	.st3{fill:#7DAB4E;}
	.st4{fill:#A7BD56;}
	.st5{fill:#DAC89D;}
	.st6{fill:#877C61;}
	.st7{fill:#598D2E;}
	.st8{display:none;}
	.st9{display:inline;fill:#406325;}
	.st10{display:inline;}
	.st11{display:inline;fill:#598D2E;}
	.st12{fill:#BAA97E;}
	.st13{enable-background:new    ;}
	.st14{fill:#FFD025;}
	.st15{fill:#FCCA0D;}
	.st16{fill:#D99A32;}
</style>
<rect x="-2.1" y="0.5" class="st0" width="300" height="200"/>
<rect x="271" y="288" class="st0" width="1" height="8"/>
<polygon class="st1" points="141.9,69.4 113.3,89.6 77.8,107.6 134,141 143,142 164.7,154 173.9,154.2 226.6,123.3 "/>
<g>
	<g>
		<path class="st2" d="M146.8,65.9l-26.2,15.5l0,7.5l52.7,30.9l26.2-15.5l0-7.5"/>
		<g>
			<path class="st3" d="M167.9,84.5c4.3,2.6,4.4,6.7,0.1,9.2c-4.3,2.5-11.3,2.6-15.7,0c-4.3-2.5-4.4-6.7-0.1-9.2
				C156.5,82,163.5,82,167.9,84.5z"/>
		</g>
		<g>
			<path class="st4" d="M187.9,93.3c-3.3,1.9-3.3,5.1,0,7.1l-8.7,5.2c-3.3-1.9-8.7-1.9-12,0L132.2,85c3.3-2,3.3-5.1,0-7.1l8.7-5.2
				c3.3,1.9,8.7,2,12,0L187.9,93.3z M152.2,93.8c4.3,2.6,11.4,2.5,15.7,0c4.3-2.5,4.3-6.7-0.1-9.2c-4.3-2.5-11.4-2.5-15.7,0
				C147.9,87.1,147.9,91.2,152.2,93.8"/>
		</g>
		<g>
			<path class="st3" d="M146.8,65.9l52.7,30.9l-26.2,15.5l-52.7-30.9L146.8,65.9z M179.2,105.5l8.7-5.2c-3.3-2-3.3-5.1,0-7.1
				l-35.1-20.6c-3.3,2-8.7,1.9-12,0l-8.7,5.2c3.3,1.9,3.3,5.1,0,7.1l35.1,20.6C170.5,103.6,175.9,103.6,179.2,105.5"/>
		</g>
		<g>
			<polygon class="st5" points="176.8,83.5 150.6,99 142.5,94.3 168.7,78.8 			"/>
		</g>
		<g>
			<polygon class="st6" points="150.5,99 150.5,106.5 142.5,101.8 142.5,94.3 			"/>
		</g>
		<polygon class="st7" points="173.3,112.3 173.3,119.9 199.4,104.4 199.4,96.9 		"/>
	</g>
	<g>
		<path class="st2" d="M147.5,57.3l-26.2,15.5l0,7.5l52.7,30.9l26.2-15.5l0-7.5"/>
		<g>
			<path class="st3" d="M168.5,75.9c4.3,2.6,4.4,6.7,0.1,9.2c-4.3,2.5-11.3,2.6-15.7,0c-4.3-2.5-4.4-6.7-0.1-9.2
				C157.2,73.4,164.2,73.4,168.5,75.9z"/>
		</g>
		<g>
			<path class="st4" d="M188.6,84.7c-3.3,1.9-3.3,5.1,0,7.1l-8.7,5.2c-3.3-1.9-8.7-1.9-12,0l-35.1-20.6c3.3-2,3.3-5.1,0-7.1l8.7-5.2
				c3.3,1.9,8.7,2,12,0L188.6,84.7z M152.9,85.1c4.3,2.6,11.4,2.5,15.7,0c4.3-2.5,4.3-6.7-0.1-9.2c-4.3-2.5-11.4-2.5-15.7,0
				C148.5,78.5,148.5,82.6,152.9,85.1"/>
		</g>
		<g>
			<path class="st3" d="M147.5,57.3l52.7,30.9l-26.2,15.5l-52.7-30.9L147.5,57.3z M179.9,96.9l8.7-5.2c-3.3-2-3.3-5.1,0-7.1
				l-35.1-20.6c-3.3,2-8.7,1.9-12,0l-8.7,5.2c3.3,1.9,3.3,5.1,0,7.1l35.1,20.6C171.2,95,176.6,95,179.9,96.9"/>
		</g>
		<g>
			<polygon class="st5" points="177.4,74.9 151.2,90.4 143.2,85.7 169.4,70.2 			"/>
		</g>
		<g>
			<polygon class="st6" points="151.2,90.4 151.2,97.9 143.1,93.2 143.2,85.7 			"/>
		</g>
		<polygon class="st7" points="173.9,103.7 173.9,111.3 200.1,95.8 200.1,88.2 		"/>
	</g>
	<g>
		<path class="st2" d="M146.2,49L120,64.5l0,7.5l52.7,30.9l26.2-15.5l0-7.5"/>
		<g>
			<path class="st3" d="M167.2,67.6c4.3,2.6,4.4,6.7,0.1,9.2c-4.3,2.5-11.3,2.6-15.7,0c-4.3-2.5-4.4-6.7-0.1-9.2
				C155.8,65.1,162.9,65.1,167.2,67.6z"/>
		</g>
		<g>
			<path class="st4" d="M187.3,76.4c-3.3,1.9-3.3,5.1,0,7.1l-8.7,5.2c-3.3-1.9-8.7-1.9-12,0l-35.1-20.6c3.3-2,3.3-5.1,0-7.1l8.7-5.2
				c3.3,1.9,8.7,2,12,0L187.3,76.4z M151.6,76.9c4.3,2.6,11.4,2.5,15.7,0c4.3-2.5,4.3-6.7-0.1-9.2c-4.3-2.5-11.4-2.5-15.7,0
				C147.2,70.2,147.2,74.3,151.6,76.9"/>
		</g>
		<g>
			<path class="st3" d="M146.2,49l52.7,30.9l-26.2,15.5L120,64.5L146.2,49z M178.6,88.6l8.7-5.2c-3.3-2-3.3-5.1,0-7.1l-35.1-20.6
				c-3.3,2-8.7,1.9-12,0l-8.7,5.2c3.3,1.9,3.3,5.1,0,7.1l35.1,20.6C169.9,86.7,175.3,86.7,178.6,88.6"/>
		</g>
		<g>
			<polygon class="st5" points="176.1,66.6 149.9,82.1 141.9,77.4 168.1,61.9 			"/>
		</g>
		<g>
			<polygon class="st6" points="149.9,82.1 149.8,89.6 141.8,84.9 141.9,77.4 			"/>
		</g>
		<polygon class="st7" points="172.6,95.4 172.6,103 198.8,87.5 198.8,79.9 		"/>
	</g>
	<g>
		<path class="st2" d="M146.2,41.1L120,56.6l0,7.5L172.6,95l26.2-15.5l0-7.5"/>
		<g>
			<path class="st3" d="M167.2,59.7c4.3,2.6,4.4,6.7,0.1,9.2c-4.3,2.5-11.3,2.6-15.7,0c-4.3-2.5-4.4-6.7-0.1-9.2
				C155.8,57.1,162.9,57.1,167.2,59.7z"/>
		</g>
		<g>
			<path class="st4" d="M187.3,68.5c-3.3,1.9-3.3,5.1,0,7.1l-8.7,5.2c-3.3-1.9-8.7-1.9-12,0l-35.1-20.6c3.3-2,3.3-5.1,0-7.1l8.7-5.2
				c3.3,1.9,8.7,2,12,0L187.3,68.5z M151.6,68.9c4.3,2.6,11.4,2.5,15.7,0c4.3-2.5,4.3-6.7-0.1-9.2c-4.3-2.5-11.4-2.5-15.7,0
				C147.2,62.2,147.2,66.3,151.6,68.9"/>
		</g>
		<g>
			<path class="st3" d="M146.2,41.1L198.8,72l-26.2,15.5L120,56.6L146.2,41.1z M178.6,80.7l8.7-5.2c-3.3-2-3.3-5.1,0-7.1l-35.1-20.6
				c-3.3,2-8.7,1.9-12,0l-8.7,5.2c3.3,1.9,3.3,5.1,0,7.1l35.1,20.6C169.9,78.7,175.3,78.7,178.6,80.7"/>
		</g>
		<g>
			<polygon class="st5" points="176.1,58.6 149.9,74.1 141.9,69.4 168.1,53.9 			"/>
		</g>
		<g>
			<polygon class="st6" points="149.9,74.1 149.8,81.7 141.8,77 141.9,69.4 			"/>
		</g>
		<polygon class="st7" points="172.6,87.5 172.6,95 198.8,79.5 198.8,72 		"/>
	</g>
	<g>
		<path class="st2" d="M147.5,31.8l-26.2,15.5l0,7.5l52.7,30.9l26.2-15.5l0-7.5"/>
		<g>
			<path class="st3" d="M168.5,50.4c4.3,2.6,4.4,6.7,0.1,9.2c-4.3,2.5-11.3,2.6-15.7,0c-4.3-2.5-4.4-6.7-0.1-9.2
				C157.2,47.8,164.2,47.8,168.5,50.4z"/>
		</g>
		<g>
			<path class="st4" d="M188.6,59.2c-3.3,1.9-3.3,5.1,0,7.1l-8.7,5.2c-3.3-1.9-8.7-1.9-12,0l-35.1-20.6c3.3-2,3.3-5.1,0-7.1l8.7-5.2
				c3.3,1.9,8.7,2,12,0L188.6,59.2z M152.9,59.6c4.3,2.6,11.4,2.5,15.7,0c4.3-2.5,4.3-6.7-0.1-9.2c-4.3-2.5-11.4-2.5-15.7,0
				C148.5,52.9,148.5,57.1,152.9,59.6"/>
		</g>
		<g>
			<path class="st3" d="M147.5,31.8l52.7,30.9l-26.2,15.5l-52.7-30.9L147.5,31.8z M179.9,71.4l8.7-5.2c-3.3-2-3.3-5.1,0-7.1
				l-35.1-20.6c-3.3,2-8.7,1.9-12,0l-8.7,5.2c3.3,1.9,3.3,5.1,0,7.1l35.1,20.6C171.2,69.4,176.6,69.4,179.9,71.4"/>
		</g>
		<g>
			<polygon class="st5" points="177.4,49.4 151.2,64.8 143.2,60.1 169.4,44.6 			"/>
		</g>
		<g>
			<polygon class="st6" points="151.2,64.8 151.2,72.4 143.1,67.7 143.2,60.1 			"/>
		</g>
		<polygon class="st7" points="173.9,78.2 173.9,85.7 200.1,70.2 200.1,62.7 		"/>
	</g>
	<g>
		<path class="st2" d="M148.8,23.4l-26.2,15.5l0,7.5l52.7,30.9l26.2-15.5l0-7.5"/>
		<g>
			<path class="st3" d="M169.8,42c4.3,2.6,4.4,6.7,0.1,9.2c-4.3,2.5-11.3,2.6-15.7,0c-4.3-2.5-4.4-6.7-0.1-9.2
				C158.5,39.4,165.5,39.4,169.8,42z"/>
		</g>
		<g>
			<path class="st4" d="M189.9,50.8c-3.3,1.9-3.3,5.1,0,7.1l-8.7,5.2c-3.3-1.9-8.7-1.9-12,0l-35.1-20.6c3.3-2,3.3-5.1,0-7.1l8.7-5.2
				c3.3,1.9,8.7,2,12,0L189.9,50.8z M154.2,51.2c4.3,2.6,11.4,2.5,15.7,0c4.3-2.5,4.3-6.7-0.1-9.2c-4.3-2.5-11.4-2.5-15.7,0
				C149.8,44.5,149.8,48.7,154.2,51.2"/>
		</g>
		<g>
			<path class="st3" d="M148.8,23.4l52.7,30.9l-26.2,15.5l-52.7-30.9L148.8,23.4z M181.2,63l8.7-5.2c-3.3-2-3.3-5.1,0-7.1
				l-35.1-20.6c-3.3,2-8.7,1.9-12,0l-8.7,5.2c3.3,1.9,3.3,5.1,0,7.1L169.2,63C172.5,61,177.9,61,181.2,63"/>
		</g>
		<g>
			<polygon class="st5" points="178.7,41 152.5,56.4 144.5,51.7 170.7,36.3 			"/>
		</g>
		<g>
			<polygon class="st6" points="152.5,56.4 152.5,64 144.4,59.3 144.5,51.7 			"/>
		</g>
		<polygon class="st7" points="175.2,69.8 175.2,77.3 201.4,61.9 201.4,54.3 		"/>
	</g>
	<g>
		<path class="st2" d="M146.2,15L120,30.5l0,7.5l52.7,30.9l26.2-15.5l0-7.5"/>
		<g>
			<path class="st3" d="M167.2,33.6c4.3,2.6,4.4,6.7,0.1,9.2c-4.3,2.5-11.3,2.6-15.7,0c-4.3-2.5-4.4-6.7-0.1-9.2
				C155.8,31,162.9,31,167.2,33.6z"/>
		</g>
		<g>
			<path class="st4" d="M187.3,42.4c-3.3,1.9-3.3,5.1,0,7.1l-8.7,5.2c-3.3-1.9-8.7-1.9-12,0L131.5,34c3.3-2,3.3-5.1,0-7.1l8.7-5.2
				c3.3,1.9,8.7,2,12,0L187.3,42.4z M151.6,42.8c4.3,2.6,11.4,2.5,15.7,0c4.3-2.5,4.3-6.7-0.1-9.2c-4.3-2.5-11.4-2.5-15.7,0
				C147.2,36.1,147.2,40.3,151.6,42.8"/>
		</g>
		<g>
			<path class="st3" d="M146.2,15l52.7,30.9l-26.2,15.5L120,30.5L146.2,15z M178.6,54.6l8.7-5.2c-3.3-2-3.3-5.1,0-7.1l-35.1-20.6
				c-3.3,2-8.7,1.9-12,0l-8.7,5.2c3.3,1.9,3.3,5.1,0,7.1l35.1,20.6C169.9,52.6,175.3,52.6,178.6,54.6"/>
		</g>
		<g>
			<polygon class="st5" points="176.1,32.6 149.9,48 141.9,43.3 168.1,27.9 			"/>
		</g>
		<g>
			<polygon class="st6" points="149.9,48 149.8,55.6 141.8,50.9 141.9,43.3 			"/>
		</g>
		<polygon class="st7" points="172.6,61.4 172.6,68.9 198.8,53.5 198.8,45.9 		"/>
	</g>
</g>
<g>
	<g>
		<path class="st2" d="M116.6,83L90.4,98.5l0,7.5L143,137l26.2-15.5l0-7.5"/>
		<g>
			<path class="st3" d="M137.7,101.6c4.3,2.6,4.4,6.7,0.1,9.2c-4.3,2.5-11.3,2.6-15.7,0c-4.3-2.5-4.4-6.7-0.1-9.2
				C126.3,99.1,133.3,99.1,137.7,101.6z"/>
		</g>
		<g>
			<path class="st4" d="M157.7,110.4c-3.3,1.9-3.3,5.1,0,7.1l-8.7,5.2c-3.3-1.9-8.7-1.9-12,0L102,102c3.3-2,3.3-5.1,0-7.1l8.7-5.2
				c3.3,1.9,8.7,2,12,0L157.7,110.4z M122,110.8c4.3,2.6,11.4,2.5,15.7,0c4.3-2.5,4.3-6.7-0.1-9.2c-4.3-2.5-11.4-2.5-15.7,0
				C117.7,104.2,117.7,108.3,122,110.8"/>
		</g>
		<g>
			<path class="st3" d="M116.6,83l52.7,30.9l-26.2,15.5L90.4,98.5L116.6,83z M149,122.6l8.7-5.2c-3.3-2-3.3-5.1,0-7.1l-35.1-20.6
				c-3.3,2-8.7,1.9-12,0l-8.7,5.2c3.3,1.9,3.3,5.1,0,7.1l35.1,20.6C140.3,120.7,145.7,120.7,149,122.6"/>
		</g>
		<g>
			<polygon class="st5" points="146.6,100.6 120.4,116.1 112.3,111.4 138.5,95.9 			"/>
		</g>
		<g>
			<polygon class="st6" points="120.3,116.1 120.3,123.6 112.3,118.9 112.3,111.4 			"/>
		</g>
		<polygon class="st7" points="143.1,129.4 143.1,137 169.2,121.5 169.2,113.9 		"/>
	</g>
	<g>
		<path class="st2" d="M116,74.7L89.8,90.2l0,7.5l52.7,30.9l26.2-15.5l0-7.5"/>
		<g>
			<path class="st3" d="M137,93.3c4.3,2.6,4.4,6.7,0.1,9.2c-4.3,2.5-11.3,2.6-15.7,0c-4.3-2.5-4.4-6.7-0.1-9.2
				C125.6,90.8,132.7,90.8,137,93.3z"/>
		</g>
		<g>
			<path class="st4" d="M157.1,102.1c-3.3,1.9-3.3,5.1,0,7.1l-8.7,5.2c-3.3-1.9-8.7-1.9-12,0l-35.1-20.6c3.3-2,3.3-5.1,0-7.1
				l8.7-5.2c3.3,1.9,8.7,2,12,0L157.1,102.1z M121.4,102.5c4.3,2.6,11.4,2.5,15.7,0c4.3-2.5,4.3-6.7-0.1-9.2
				c-4.3-2.5-11.4-2.5-15.7,0C117,95.9,117,100,121.4,102.5"/>
		</g>
		<g>
			<path class="st3" d="M116,74.7l52.7,30.9l-26.2,15.5L89.8,90.2L116,74.7z M148.4,114.3l8.7-5.2c-3.3-2-3.3-5.1,0-7.1L122,81.5
				c-3.3,2-8.7,1.9-12,0l-8.7,5.2c3.3,1.9,3.3,5.1,0,7.1l35.1,20.6C139.7,112.4,145.1,112.4,148.4,114.3"/>
		</g>
		<g>
			<polygon class="st5" points="145.9,92.3 119.7,107.8 111.7,103.1 137.9,87.6 			"/>
		</g>
		<g>
			<polygon class="st6" points="119.7,107.8 119.6,115.3 111.6,110.6 111.7,103.1 			"/>
		</g>
		<polygon class="st7" points="142.4,121.1 142.4,128.7 168.6,113.2 168.6,105.6 		"/>
	</g>
	<g>
		<path class="st2" d="M116,66.1L89.8,81.6l0,7.5l52.7,30.9l26.2-15.5l0-7.5"/>
		<g>
			<path class="st3" d="M137,84.7c4.3,2.6,4.4,6.7,0.1,9.2c-4.3,2.5-11.3,2.6-15.7,0c-4.3-2.5-4.4-6.7-0.1-9.2
				C125.6,82.1,132.7,82.1,137,84.7z"/>
		</g>
		<g>
			<path class="st4" d="M157.1,93.5c-3.3,1.9-3.3,5.1,0,7.1l-8.7,5.2c-3.3-1.9-8.7-1.9-12,0l-35.1-20.6c3.3-2,3.3-5.1,0-7.1l8.7-5.2
				c3.3,1.9,8.7,2,12,0L157.1,93.5z M121.4,93.9c4.3,2.6,11.4,2.5,15.7,0c4.3-2.5,4.3-6.7-0.1-9.2c-4.3-2.5-11.4-2.5-15.7,0
				C117,87.2,117,91.4,121.4,93.9"/>
		</g>
		<g>
			<path class="st3" d="M116,66.1L168.6,97l-26.2,15.5L89.8,81.6L116,66.1z M148.4,105.7l8.7-5.2c-3.3-2-3.3-5.1,0-7.1L122,72.9
				c-3.3,2-8.7,1.9-12,0l-8.7,5.2c3.3,1.9,3.3,5.1,0,7.1l35.1,20.6C139.7,103.8,145.1,103.8,148.4,105.7"/>
		</g>
		<g>
			<polygon class="st5" points="145.9,83.7 119.7,99.2 111.7,94.4 137.9,79 			"/>
		</g>
		<g>
			<polygon class="st6" points="119.7,99.2 119.6,106.7 111.6,102 111.7,94.5 			"/>
		</g>
		<polygon class="st7" points="142.4,112.5 142.4,120 168.6,104.6 168.6,97 		"/>
	</g>
	<g>
		<path class="st2" d="M118.3,57.2L92,72.6l0,7.5l52.7,30.9l26.2-15.5l0-7.5"/>
		<g>
			<path class="st3" d="M139.3,75.7c4.3,2.6,4.4,6.7,0.1,9.2c-4.3,2.5-11.3,2.6-15.7,0c-4.3-2.5-4.4-6.7-0.1-9.2
				C127.9,73.2,135,73.2,139.3,75.7z"/>
		</g>
		<g>
			<path class="st4" d="M159.4,84.5c-3.3,1.9-3.3,5.1,0,7.1l-8.7,5.2c-3.3-1.9-8.7-1.9-12,0l-35.1-20.6c3.3-2,3.3-5.1,0-7.1l8.7-5.2
				c3.3,1.9,8.7,2,12,0L159.4,84.5z M123.7,85c4.3,2.6,11.4,2.5,15.7,0c4.3-2.5,4.3-6.7-0.1-9.2c-4.3-2.5-11.4-2.5-15.7,0
				C119.3,78.3,119.3,82.4,123.7,85"/>
		</g>
		<g>
			<path class="st3" d="M118.3,57.2l52.7,30.9l-26.2,15.5L92,72.6L118.3,57.2z M150.7,96.8l8.7-5.2c-3.3-2-3.3-5.1,0-7.1L124.3,64
				c-3.3,2-8.7,1.9-12,0l-8.7,5.2c3.3,1.9,3.3,5.1,0,7.1l35.1,20.6C142,94.8,147.3,94.8,150.7,96.8"/>
		</g>
		<g>
			<polygon class="st5" points="148.2,74.7 122,90.2 114,85.5 140.2,70 			"/>
		</g>
		<g>
			<polygon class="st6" points="122,90.2 121.9,97.8 113.9,93 113.9,85.5 			"/>
		</g>
		<polygon class="st7" points="144.7,103.6 144.7,111.1 170.9,95.6 170.9,88.1 		"/>
	</g>
	<g class="st8">
		<path class="st9" d="M117.3,48.9L91.1,64.4l0,7.5l52.7,30.9l26.2-15.5l0-7.5"/>
		<g class="st10">
			<path class="st3" d="M138.3,67.4c4.3,2.6,4.4,6.7,0.1,9.2c-4.3,2.5-11.3,2.6-15.7,0c-4.3-2.5-4.4-6.7-0.1-9.2
				C126.9,64.9,134,64.9,138.3,67.4z"/>
		</g>
		<g class="st10">
			<path class="st4" d="M158.4,76.2c-3.3,1.9-3.3,5.1,0,7.1l-8.7,5.2c-3.3-1.9-8.7-1.9-12,0l-35.1-20.6c3.3-2,3.3-5.1,0-7.1l8.7-5.2
				c3.3,1.9,8.7,2,12,0L158.4,76.2z M122.7,76.7c4.3,2.6,11.4,2.5,15.7,0c4.3-2.5,4.3-6.7-0.1-9.2c-4.3-2.5-11.4-2.5-15.7,0
				C118.3,70,118.3,74.1,122.7,76.7"/>
		</g>
		<g class="st10">
			<path class="st3" d="M117.3,48.9l52.7,30.9l-26.2,15.5L91.1,64.4L117.3,48.9z M149.7,88.5l8.7-5.2c-3.3-2-3.3-5.1,0-7.1
				l-35.1-20.6c-3.3,2-8.7,1.9-12,0l-8.7,5.2c3.3,1.9,3.3,5.1,0,7.1l35.1,20.6C141,86.5,146.4,86.5,149.7,88.5"/>
		</g>
		<g class="st10">
			<polygon class="st5" points="147.2,66.4 121,81.9 113,77.2 139.2,61.7 			"/>
		</g>
		<g class="st10">
			<polygon class="st6" points="121,81.9 120.9,89.5 112.9,84.8 113,77.2 			"/>
		</g>
		<polygon class="st11" points="143.7,95.3 143.7,102.8 169.9,87.3 169.9,79.8 		"/>
	</g>
</g>
<g>
	<g>
		<path class="st7" d="M147.7,129.3l0,7.4l26.2,15.2l52.7-30.4l0-7.4l-26.2-15.2"/>
		<g>
			<path class="st3" d="M179.3,117.2c-4.3,2.5-4.4,6.6-0.1,9.1c4.3,2.5,11.3,2.5,15.7,0c4.3-2.5,4.4-6.6,0.1-9.1
				C190.7,114.7,183.7,114.7,179.3,117.2z"/>
		</g>
		<g>
			<path class="st4" d="M194.3,105.6c3.3,1.9,8.7,1.9,12,0l8.7,5.1c-3.3,1.9-3.3,5,0,6.9l-35.1,20.3c-3.3-1.9-8.7-1.9-12,0l-8.7-5.1
				c3.3-1.9,3.3-5,0-6.9L194.3,105.6z M194.9,126.3c4.3-2.5,4.4-6.6,0.1-9.1c-4.3-2.5-11.3-2.5-15.7,0c-4.3,2.5-4.4,6.6-0.1,9.1
				C183.6,128.8,190.6,128.8,194.9,126.3"/>
		</g>
		<g>
			<path class="st3" d="M226.6,114.2l-52.7,30.4l-26.2-15.2l52.7-30.4L226.6,114.2z M167.9,137.9c3.3-1.9,8.7-1.9,12,0l35.1-20.3
				c-3.3-1.9-3.3-5,0-6.9l-8.7-5.1c-3.3,1.9-8.7,1.9-12,0l-35.1,20.3c3.3,1.9,3.3,5,0,6.9L167.9,137.9"/>
		</g>
		<g>
			<polygon class="st5" points="170.4,116.2 196.6,131.4 204.6,126.8 178.4,111.6 			"/>
		</g>
		<g>
			<polygon class="st12" points="196.6,131.4 196.7,138.9 204.7,134.2 204.7,126.8 			"/>
		</g>
		<polygon class="st2" points="173.9,144.6 173.9,152 147.7,136.7 147.7,129.3 		"/>
	</g>
	<g>
		<path class="st7" d="M150.6,119.9l0,7.3l25.6,14.9l51.5-29.7l0-7.3l-25.6-14.9"/>
		<g>
			<path class="st3" d="M181.5,108.1c-4.2,2.5-4.3,6.4,0,8.9c4.2,2.5,11.1,2.5,15.3,0c4.2-2.5,4.3-6.4,0-8.9
				C192.7,105.6,185.8,105.6,181.5,108.1z"/>
		</g>
		<g>
			<path class="st4" d="M196.2,96.7c3.2,1.9,8.5,1.9,11.7,0l8.5,5c-3.2,1.9-3.3,4.9,0,6.8l-34.3,19.8c-3.2-1.9-8.5-1.9-11.7,0
				l-8.5-5c3.2-1.9,3.3-4.9,0-6.8L196.2,96.7z M196.8,116.9c4.2-2.5,4.3-6.4,0.1-8.9c-4.2-2.5-11.1-2.5-15.3,0
				c-4.2,2.5-4.3,6.4,0,8.9C185.7,119.4,192.6,119.4,196.8,116.9"/>
		</g>
		<g>
			<path class="st3" d="M227.7,105.1l-51.5,29.7l-25.6-14.9l51.5-29.7L227.7,105.1z M170.4,128.3c3.2-1.9,8.5-1.9,11.7,0l34.3-19.8
				c-3.2-1.9-3.2-4.9,0-6.8l-8.5-5c-3.2,1.9-8.5,1.9-11.7,0l-34.3,19.8c3.2,1.9,3.2,4.9,0,6.8L170.4,128.3"/>
		</g>
		<g>
			<polygon class="st5" points="172.8,107.1 198.5,122 206.3,117.4 180.7,102.6 			"/>
		</g>
		<g>
			<polygon class="st12" points="198.5,122 198.5,129.2 206.4,124.7 206.3,117.5 			"/>
		</g>
		<polygon class="st2" points="176.3,134.8 176.3,142.1 150.7,127.2 150.7,119.9 		"/>
	</g>
	<g>
		<path class="st7" d="M152,110.4l0,7l24.8,14.4l49.8-28.7l0-7l-24.8-14.4"/>
		<g>
			<path class="st3" d="M181.9,98.9c-4.1,2.4-4.1,6.2,0,8.6c4.1,2.4,10.7,2.4,14.8,0c4.1-2.4,4.1-6.2,0-8.6
				C192.6,96.5,186,96.5,181.9,98.9z"/>
		</g>
		<g>
			<path class="st4" d="M196.1,87.9c3.1,1.8,8.2,1.8,11.3,0l8.3,4.8c-3.1,1.8-3.2,4.8,0,6.6l-33.2,19.1c-3.1-1.8-8.2-1.8-11.3,0
				l-8.3-4.8c3.1-1.8,3.2-4.8,0-6.6L196.1,87.9z M196.7,107.5c4.1-2.4,4.1-6.2,0-8.6c-4.1-2.4-10.7-2.4-14.8,0
				c-4.1,2.4-4.1,6.2,0,8.6C185.9,109.9,192.6,109.9,196.7,107.5"/>
		</g>
		<g>
			<path class="st3" d="M226.6,96l-49.8,28.7L152,110.4l49.8-28.7L226.6,96z M171.2,118.5c3.1-1.8,8.2-1.8,11.3,0l33.2-19.1
				c-3.1-1.8-3.1-4.8,0-6.6l-8.3-4.8c-3.1,1.8-8.2,1.8-11.3,0l-33.2,19.1c3.1,1.8,3.1,4.8,0,6.6L171.2,118.5"/>
		</g>
		<g>
			<polygon class="st5" points="173.5,98 198.3,112.4 205.8,108 181.1,93.6 			"/>
		</g>
		<g>
			<polygon class="st12" points="198.3,112.4 198.3,119.4 205.9,115 205.9,108 			"/>
		</g>
		<polygon class="st2" points="176.8,124.8 176.8,131.8 152.1,117.4 152.1,110.4 		"/>
	</g>
</g>
<path class="st1" d="M113.3,140.5c-6.6-3.3-17.3-3.3-23.8,0c-6.6,3.3-6.5,8.8,0.1,12.1c6.6,3.3,17.3,3.3,23.8,0
	C119.9,149.2,119.9,143.8,113.3,140.5z"/>
<path class="st1" d="M94.3,131c-6.3-3.3-16.5-3.3-22.8,0c-6.3,3.3-6.2,8.8,0.1,12.1c6.3,3.3,16.5,3.3,22.8,0
	C100.6,139.7,100.6,134.3,94.3,131z M70.4,136L70.4,136c0-0.1,0-0.1,0.1-0.2C70.5,135.8,70.5,135.9,70.4,136z"/>
<g>
	<g>
		<g class="st13">
			<g>
				<path class="st14" d="M76.4,131.7c-1.7,1-2.7,2.2-3.1,3.5c0-1,0-2,0-3c0.4-1.3,1.4-2.5,3.1-3.5c4.4-2.6,11.7-2.6,16.1,0
					c2.2,1.3,3.4,3,3.4,4.8c0,1,0,2,0,3c0-1.7-1.1-3.4-3.4-4.8C88.1,129.1,80.9,129.1,76.4,131.7z"/>
			</g>
			<g>
				<path class="st14" d="M73.3,135.2c-0.1,0.4-0.2,0.8-0.2,1.3l0-3c0-0.4,0.1-0.8,0.2-1.3c0,0.5,0,1,0,1.5c0,0.1,0,0.3,0,0.4
					c0,0.2,0,0.4,0,0.6c0,0.1,0,0.3,0,0.4C73.3,135.1,73.3,135.1,73.3,135.2z"/>
			</g>
			<g>
				<path class="st15" d="M95.9,133.5l0,3c0,1.7-1.1,3.4-3.3,4.7c-4.4,2.6-11.7,2.6-16.1,0c-2.3-1.3-3.4-3.1-3.4-4.8l0-3
					c0,1.7,1.1,3.5,3.4,4.8c4.5,2.6,11.7,2.6,16.1,0C94.8,136.9,95.9,135.2,95.9,133.5z"/>
			</g>
			<g>
				<path class="st14" d="M95.9,136.5C95.9,136.5,95.9,136.5,95.9,136.5c0-1,0-2,0-3c0,0,0,0,0,0C95.9,134.4,95.9,135.6,95.9,136.5z
					"/>
			</g>
			<g>
				<path class="st15" d="M92.6,128.7c4.5,2.6,4.5,6.9,0.1,9.5c-4.4,2.6-11.7,2.6-16.1,0c-4.5-2.6-4.5-6.9-0.1-9.5
					C80.9,126.1,88.1,126.1,92.6,128.7z"/>
			</g>
			<path class="st16" d="M76.4,130.4c4.4-2.6,11.7-2.6,16.1,0c1.9,1.1,3,2.5,3.3,3.9c0.4-2-0.7-4.1-3.3-5.6
				c-4.5-2.6-11.7-2.6-16.1,0c-2.6,1.5-3.6,3.6-3.2,5.6C73.5,132.9,74.6,131.5,76.4,130.4z"/>
			<g>
				<path class="st16" d="M99.1,133.5l0,3c0,2.2-1.4,4.3-4.2,6c-5.7,3.3-14.9,3.3-20.5,0c-2.9-1.7-4.3-3.9-4.3-6.1l0-3
					c0,2.2,1.4,4.4,4.3,6.1c5.7,3.3,14.9,3.3,20.5,0C97.7,137.9,99.1,135.7,99.1,133.5z"/>
			</g>
			<g>
				<path class="st14" d="M94.8,127.4c5.7,3.3,5.7,8.8,0.1,12.1c-5.7,3.3-14.9,3.3-20.5,0c-5.7-3.3-5.7-8.8-0.1-12.1
					C79.9,124.1,89.1,124.1,94.8,127.4z M76.5,138.3c4.5,2.6,11.7,2.6,16.1,0c4.4-2.6,4.4-6.9-0.1-9.5c-4.5-2.6-11.7-2.6-16.1,0
					C72,131.4,72,135.6,76.5,138.3"/>
			</g>
		</g>
	</g>
	<g>
		<g class="st13">
			<g>
				<path class="st14" d="M76.4,128.4c-1.7,1-2.7,2.2-3.1,3.5c0-1,0-2,0-3c0.4-1.3,1.4-2.5,3.1-3.5c4.4-2.6,11.7-2.6,16.1,0
					c2.2,1.3,3.4,3,3.4,4.8c0,1,0,2,0,3c0-1.7-1.1-3.4-3.4-4.8C88.1,125.7,80.9,125.7,76.4,128.4z"/>
			</g>
			<g>
				<path class="st14" d="M73.3,131.8c-0.1,0.4-0.2,0.8-0.2,1.3l0-3c0-0.4,0.1-0.8,0.2-1.3c0,0.5,0,1,0,1.5c0,0.1,0,0.3,0,0.4
					c0,0.2,0,0.4,0,0.6c0,0.1,0,0.3,0,0.4C73.3,131.7,73.3,131.8,73.3,131.8z"/>
			</g>
			<g>
				<path class="st15" d="M95.9,130.2l0,3c0,1.7-1.1,3.4-3.3,4.7c-4.4,2.6-11.7,2.6-16.1,0c-2.3-1.3-3.4-3.1-3.4-4.8l0-3
					c0,1.7,1.1,3.5,3.4,4.8c4.5,2.6,11.7,2.6,16.1,0C94.8,133.6,95.9,131.9,95.9,130.2z"/>
			</g>
			<g>
				<path class="st14" d="M95.9,133.1C95.9,133.1,95.9,133.1,95.9,133.1c0-1,0-2,0-3c0,0,0,0,0,0C95.9,131.1,95.9,132.3,95.9,133.1z
					"/>
			</g>
			<g>
				<path class="st15" d="M92.6,125.4c4.5,2.6,4.5,6.9,0.1,9.5c-4.4,2.6-11.7,2.6-16.1,0c-4.5-2.6-4.5-6.9-0.1-9.5
					C80.9,122.8,88.1,122.8,92.6,125.4z"/>
			</g>
			<path class="st16" d="M76.4,127c4.4-2.6,11.7-2.6,16.1,0c1.9,1.1,3,2.5,3.3,3.9c0.4-2-0.7-4.1-3.3-5.6c-4.5-2.6-11.7-2.6-16.1,0
				c-2.6,1.5-3.6,3.6-3.2,5.6C73.5,129.5,74.6,128.1,76.4,127z"/>
			<g>
				<path class="st16" d="M99.1,130.2l0,3c0,2.2-1.4,4.3-4.2,6c-5.7,3.3-14.9,3.3-20.5,0c-2.9-1.7-4.3-3.9-4.3-6.1l0-3
					c0,2.2,1.4,4.4,4.3,6.1c5.7,3.3,14.9,3.3,20.5,0C97.7,134.5,99.1,132.4,99.1,130.2z"/>
			</g>
			<g>
				<path class="st14" d="M94.8,124.1c5.7,3.3,5.7,8.8,0.1,12.1c-5.7,3.3-14.9,3.3-20.5,0c-5.7-3.3-5.7-8.8-0.1-12.1
					C79.9,120.7,89.1,120.7,94.8,124.1z M76.5,134.9c4.5,2.6,11.7,2.6,16.1,0c4.4-2.6,4.4-6.9-0.1-9.5c-4.5-2.6-11.7-2.6-16.1,0
					C72,128,72,132.3,76.5,134.9"/>
			</g>
		</g>
	</g>
	<g>
		<g class="st13">
			<g>
				<path class="st14" d="M75.8,125c-1.7,1-2.7,2.2-3.1,3.5c0-1,0-2,0-3c0.4-1.3,1.4-2.5,3.1-3.5c4.4-2.6,11.7-2.6,16.1,0
					c2.2,1.3,3.4,3,3.4,4.8c0,1,0,2,0,3c0-1.7-1.1-3.4-3.4-4.8C87.4,122.4,80.2,122.4,75.8,125z"/>
			</g>
			<g>
				<path class="st14" d="M72.7,128.5c-0.1,0.4-0.2,0.8-0.2,1.3l0-3c0-0.4,0.1-0.8,0.2-1.3c0,0.5,0,1,0,1.5c0,0.1,0,0.3,0,0.4
					c0,0.2,0,0.4,0,0.6c0,0.1,0,0.3,0,0.4C72.7,128.3,72.7,128.4,72.7,128.5z"/>
			</g>
			<g>
				<path class="st15" d="M95.3,126.8l0,3c0,1.7-1.1,3.4-3.3,4.7c-4.4,2.6-11.7,2.6-16.1,0c-2.3-1.3-3.4-3.1-3.4-4.8l0-3
					c0,1.7,1.1,3.5,3.4,4.8c4.5,2.6,11.7,2.6,16.1,0C94.2,130.2,95.3,128.5,95.3,126.8z"/>
			</g>
			<g>
				<path class="st14" d="M95.3,129.8C95.3,129.8,95.3,129.8,95.3,129.8c0-1,0-2,0-3c0,0,0,0,0,0C95.3,127.7,95.3,128.9,95.3,129.8z
					"/>
			</g>
			<g>
				<path class="st15" d="M91.9,122c4.5,2.6,4.5,6.9,0.1,9.5c-4.4,2.6-11.7,2.6-16.1,0c-4.5-2.6-4.5-6.9-0.1-9.5
					C80.2,119.4,87.5,119.4,91.9,122z"/>
			</g>
			<path class="st16" d="M75.8,123.7c4.4-2.6,11.7-2.6,16.1,0c1.9,1.1,3,2.5,3.3,3.9c0.4-2-0.7-4.1-3.3-5.6
				c-4.5-2.6-11.7-2.6-16.1,0c-2.6,1.5-3.6,3.6-3.2,5.6C72.9,126.2,73.9,124.8,75.8,123.7z"/>
			<g>
				<path class="st16" d="M98.4,126.8l0,3c0,2.2-1.4,4.3-4.2,6c-5.7,3.3-14.9,3.3-20.5,0c-2.9-1.7-4.3-3.9-4.3-6.1l0-3
					c0,2.2,1.4,4.4,4.3,6.1c5.7,3.3,14.9,3.3,20.5,0C97,131.2,98.4,129,98.4,126.8z"/>
			</g>
			<g>
				<path class="st14" d="M94.1,120.7c5.7,3.3,5.7,8.8,0.1,12.1c-5.7,3.3-14.9,3.3-20.5,0c-5.7-3.3-5.7-8.8-0.1-12.1
					C79.2,117.4,88.4,117.4,94.1,120.7z M75.8,131.5c4.5,2.6,11.7,2.6,16.1,0c4.4-2.6,4.4-6.9-0.1-9.5c-4.5-2.6-11.7-2.6-16.1,0
					C71.3,124.7,71.4,128.9,75.8,131.5"/>
			</g>
		</g>
	</g>
</g>
<g>
	<g>
		<g class="st13">
			<g>
				<path class="st14" d="M96.8,141.5c-1.7,1-2.7,2.2-3.1,3.5c0-1,0-2,0-3c0.4-1.3,1.4-2.5,3.1-3.5c4.4-2.6,11.7-2.6,16.1,0
					c2.2,1.3,3.4,3,3.4,4.8c0,1,0,2,0,3c0-1.7-1.1-3.4-3.4-4.8C108.5,138.8,101.3,138.8,96.8,141.5z"/>
			</g>
			<g>
				<path class="st14" d="M93.7,144.9c-0.1,0.4-0.2,0.8-0.2,1.3l0-3c0-0.4,0.1-0.8,0.2-1.3c0,0.5,0,1,0,1.5c0,0.1,0,0.3,0,0.4
					c0,0.2,0,0.4,0,0.6c0,0.1,0,0.3,0,0.4C93.7,144.8,93.7,144.9,93.7,144.9z"/>
			</g>
			<g>
				<path class="st15" d="M116.3,143.3l0,3c0,1.7-1.1,3.4-3.3,4.7c-4.4,2.6-11.7,2.6-16.1,0c-2.3-1.3-3.4-3.1-3.4-4.8l0-3
					c0,1.7,1.1,3.5,3.4,4.8c4.5,2.6,11.7,2.6,16.1,0C115.2,146.7,116.3,145,116.3,143.3z"/>
			</g>
			<g>
				<path class="st14" d="M116.3,146.2C116.3,146.2,116.3,146.2,116.3,146.2c0-1,0-2,0-3c0,0,0,0,0,0
					C116.3,144.2,116.3,145.3,116.3,146.2z"/>
			</g>
			<g>
				<path class="st15" d="M113,138.5c4.5,2.6,4.5,6.9,0.1,9.5c-4.4,2.6-11.7,2.6-16.1,0c-4.5-2.6-4.5-6.9-0.1-9.5
					C101.3,135.9,108.5,135.9,113,138.5z"/>
			</g>
			<path class="st16" d="M96.8,140.1c4.4-2.6,11.7-2.6,16.1,0c1.9,1.1,3,2.5,3.3,3.9c0.4-2-0.7-4.1-3.3-5.6
				c-4.5-2.6-11.7-2.6-16.1,0c-2.6,1.5-3.6,3.6-3.2,5.6C93.9,142.6,95,141.2,96.8,140.1z"/>
			<g>
				<path class="st16" d="M119.4,143.3l0,3c0,2.2-1.4,4.3-4.2,6c-5.7,3.3-14.9,3.3-20.5,0c-2.9-1.7-4.3-3.9-4.3-6.1l0-3
					c0,2.2,1.4,4.4,4.3,6.1c5.7,3.3,14.9,3.3,20.5,0C118,147.6,119.4,145.5,119.4,143.3z"/>
			</g>
			<g>
				<path class="st14" d="M115.2,137.2c5.7,3.3,5.7,8.8,0.1,12.1c-5.7,3.3-14.9,3.3-20.5,0c-5.7-3.3-5.7-8.8-0.1-12.1
					C100.3,133.8,109.5,133.8,115.2,137.2z M96.9,148c4.5,2.6,11.7,2.6,16.1,0c4.4-2.6,4.4-6.9-0.1-9.5c-4.5-2.6-11.7-2.6-16.1,0
					C92.4,141.1,92.4,145.4,96.9,148"/>
			</g>
		</g>
	</g>
	<g>
		<g class="st13">
			<g>
				<path class="st14" d="M96.8,138.1c-1.7,1-2.7,2.2-3.1,3.5c0-1,0-2,0-3c0.4-1.3,1.4-2.5,3.1-3.5c4.4-2.6,11.7-2.6,16.1,0
					c2.2,1.3,3.4,3,3.4,4.8c0,1,0,2,0,3c0-1.7-1.1-3.4-3.4-4.8C108.5,135.5,101.3,135.5,96.8,138.1z"/>
			</g>
			<g>
				<path class="st14" d="M93.7,141.6c-0.1,0.4-0.2,0.8-0.2,1.3l0-3c0-0.4,0.1-0.8,0.2-1.3c0,0.5,0,1,0,1.5c0,0.1,0,0.3,0,0.4
					c0,0.2,0,0.4,0,0.6c0,0.1,0,0.3,0,0.4C93.7,141.4,93.7,141.5,93.7,141.6z"/>
			</g>
			<g>
				<path class="st15" d="M116.3,139.9l0,3c0,1.7-1.1,3.4-3.3,4.7c-4.4,2.6-11.7,2.6-16.1,0c-2.3-1.3-3.4-3.1-3.4-4.8l0-3
					c0,1.7,1.1,3.5,3.4,4.8c4.5,2.6,11.7,2.6,16.1,0C115.2,143.3,116.3,141.6,116.3,139.9z"/>
			</g>
			<g>
				<path class="st14" d="M116.3,142.9C116.3,142.9,116.3,142.9,116.3,142.9c0-1,0-2,0-3c0,0,0,0,0,0
					C116.3,140.8,116.3,142,116.3,142.9z"/>
			</g>
			<g>
				<path class="st15" d="M113,135.1c4.5,2.6,4.5,6.9,0.1,9.5c-4.4,2.6-11.7,2.6-16.1,0c-4.5-2.6-4.5-6.9-0.1-9.5
					C101.3,132.5,108.5,132.5,113,135.1z"/>
			</g>
			<path class="st16" d="M96.8,136.8c4.4-2.6,11.7-2.6,16.1,0c1.9,1.1,3,2.5,3.3,3.9c0.4-2-0.7-4.1-3.3-5.6
				c-4.5-2.6-11.7-2.6-16.1,0c-2.6,1.5-3.6,3.6-3.2,5.6C93.9,139.3,95,137.9,96.8,136.8z"/>
			<g>
				<path class="st16" d="M119.4,139.9l0,3c0,2.2-1.4,4.3-4.2,6c-5.7,3.3-14.9,3.3-20.5,0c-2.9-1.7-4.3-3.9-4.3-6.1l0-3
					c0,2.2,1.4,4.4,4.3,6.1c5.7,3.3,14.9,3.3,20.5,0C118,144.3,119.4,142.1,119.4,139.9z"/>
			</g>
			<g>
				<path class="st14" d="M115.2,133.8c5.7,3.3,5.7,8.8,0.1,12.1c-5.7,3.3-14.9,3.3-20.5,0c-5.7-3.3-5.7-8.8-0.1-12.1
					C100.3,130.5,109.5,130.5,115.2,133.8z M96.9,144.6c4.5,2.6,11.7,2.6,16.1,0c4.4-2.6,4.4-6.9-0.1-9.5c-4.5-2.6-11.7-2.6-16.1,0
					C92.4,137.7,92.4,142,96.9,144.6"/>
			</g>
		</g>
	</g>
	<g>
		<g class="st13">
			<g>
				<path class="st14" d="M96.2,134.7c-1.7,1-2.7,2.2-3.1,3.5c0-1,0-2,0-3c0.4-1.3,1.4-2.5,3.1-3.5c4.4-2.6,11.7-2.6,16.1,0
					c2.2,1.3,3.4,3,3.4,4.8c0,1,0,2,0,3c0-1.7-1.1-3.4-3.4-4.8C107.8,132.1,100.6,132.1,96.2,134.7z"/>
			</g>
			<g>
				<path class="st14" d="M93,138.2c-0.1,0.4-0.2,0.8-0.2,1.3l0-3c0-0.4,0.1-0.8,0.2-1.3c0,0.5,0,1,0,1.5c0,0.1,0,0.3,0,0.4
					c0,0.2,0,0.4,0,0.6c0,0.1,0,0.3,0,0.4C93,138.1,93,138.2,93,138.2z"/>
			</g>
			<g>
				<path class="st15" d="M115.7,136.5l0,3c0,1.7-1.1,3.4-3.3,4.7c-4.4,2.6-11.7,2.6-16.1,0c-2.3-1.3-3.4-3.1-3.4-4.8l0-3
					c0,1.7,1.1,3.5,3.4,4.8c4.5,2.6,11.7,2.6,16.1,0C114.6,140,115.7,138.3,115.7,136.5z"/>
			</g>
			<g>
				<path class="st14" d="M115.7,139.5C115.7,139.5,115.7,139.5,115.7,139.5c0-1,0-2,0-3c0,0,0,0,0,0
					C115.7,137.4,115.7,138.6,115.7,139.5z"/>
			</g>
			<g>
				<path class="st15" d="M112.3,131.8c4.5,2.6,4.5,6.9,0.1,9.5c-4.4,2.6-11.7,2.6-16.1,0c-4.5-2.6-4.5-6.9-0.1-9.5
					C100.6,129.1,107.8,129.1,112.3,131.8z"/>
			</g>
			<path class="st16" d="M96.2,133.4c4.4-2.6,11.7-2.6,16.1,0c1.9,1.1,3,2.5,3.3,3.9c0.4-2-0.7-4.1-3.3-5.6
				c-4.5-2.6-11.7-2.6-16.1,0c-2.6,1.5-3.6,3.6-3.2,5.6C93.2,135.9,94.3,134.5,96.2,133.4z"/>
			<g>
				<path class="st16" d="M118.8,136.6l0,3c0,2.2-1.4,4.3-4.2,6c-5.7,3.3-14.9,3.3-20.5,0c-2.9-1.7-4.3-3.9-4.3-6.1l0-3
					c0,2.2,1.4,4.4,4.3,6.1c5.7,3.3,14.9,3.3,20.5,0C117.4,140.9,118.8,138.7,118.8,136.6z"/>
			</g>
			<g>
				<path class="st14" d="M114.5,130.5c5.7,3.3,5.7,8.8,0.1,12.1c-5.7,3.3-14.9,3.3-20.5,0c-5.7-3.3-5.7-8.8-0.1-12.1
					C99.6,127.1,108.8,127.1,114.5,130.5z M96.2,141.3c4.5,2.6,11.7,2.6,16.1,0c4.4-2.6,4.4-6.9-0.1-9.5c-4.5-2.6-11.7-2.6-16.1,0
					C91.7,134.4,91.7,138.6,96.2,141.3"/>
			</g>
		</g>
	</g>
	<g>
		<g class="st13">
			<g>
				<path class="st14" d="M97.5,131.4c-1.7,1-2.7,2.2-3.1,3.5c0-1,0-2,0-3c0.4-1.3,1.4-2.5,3.1-3.5c4.4-2.6,11.7-2.6,16.1,0
					c2.2,1.3,3.4,3,3.4,4.8c0,1,0,2,0,3c0-1.7-1.1-3.4-3.4-4.8C109.1,128.7,101.9,128.7,97.5,131.4z"/>
			</g>
			<g>
				<path class="st14" d="M94.3,134.8c-0.1,0.4-0.2,0.8-0.2,1.3l0-3c0-0.4,0.1-0.8,0.2-1.3c0,0.5,0,1,0,1.5c0,0.1,0,0.3,0,0.4
					c0,0.2,0,0.4,0,0.6c0,0.1,0,0.3,0,0.4C94.3,134.7,94.4,134.8,94.3,134.8z"/>
			</g>
			<g>
				<path class="st15" d="M117,133.2l0,3c0,1.7-1.1,3.4-3.3,4.7c-4.4,2.6-11.7,2.6-16.1,0c-2.3-1.3-3.4-3.1-3.4-4.8l0-3
					c0,1.7,1.1,3.5,3.4,4.8c4.5,2.6,11.7,2.6,16.1,0C115.9,136.6,117,134.9,117,133.2z"/>
			</g>
			<g>
				<path class="st14" d="M117,136.2C117,136.1,117,136.1,117,136.2c0-1,0-2,0-3c0,0,0,0,0,0C117,134.1,117,135.3,117,136.2z"/>
			</g>
			<g>
				<path class="st15" d="M113.6,128.4c4.5,2.6,4.5,6.9,0.1,9.5c-4.4,2.6-11.7,2.6-16.1,0c-4.5-2.6-4.5-6.9-0.1-9.5
					C101.9,125.8,109.1,125.8,113.6,128.4z"/>
			</g>
			<path class="st16" d="M97.5,130.1c4.4-2.6,11.7-2.6,16.1,0c1.9,1.1,3,2.5,3.3,3.9c0.4-2-0.7-4.1-3.3-5.6
				c-4.5-2.6-11.7-2.6-16.1,0c-2.6,1.5-3.6,3.6-3.2,5.6C94.5,132.5,95.6,131.2,97.5,130.1z"/>
			<g>
				<path class="st16" d="M120.1,133.2l0,3c0,2.2-1.4,4.3-4.2,6c-5.7,3.3-14.9,3.3-20.5,0c-2.9-1.7-4.3-3.9-4.3-6.1l0-3
					c0,2.2,1.4,4.4,4.3,6.1c5.7,3.3,14.9,3.3,20.5,0C118.7,137.5,120.1,135.4,120.1,133.2z"/>
			</g>
			<g>
				<path class="st14" d="M115.8,127.1c5.7,3.3,5.7,8.8,0.1,12.1c-5.7,3.3-14.9,3.3-20.5,0c-5.7-3.3-5.7-8.8-0.1-12.1
					C100.9,123.8,110.1,123.8,115.8,127.1z M97.5,137.9c4.5,2.6,11.7,2.6,16.1,0c4.4-2.6,4.4-6.9-0.1-9.5c-4.5-2.6-11.7-2.6-16.1,0
					C93,131,93,135.3,97.5,137.9"/>
			</g>
		</g>
	</g>
	<g>
		<g class="st13">
			<g>
				<path class="st14" d="M96.2,128c-1.7,1-2.7,2.2-3.1,3.5c0-1,0-2,0-3c0.4-1.3,1.4-2.5,3.1-3.5c4.4-2.6,11.7-2.6,16.1,0
					c2.2,1.3,3.4,3,3.4,4.8c0,1,0,2,0,3c0-1.7-1.1-3.4-3.4-4.8C107.8,125.4,100.6,125.4,96.2,128z"/>
			</g>
			<g>
				<path class="st14" d="M93,131.5c-0.1,0.4-0.2,0.8-0.2,1.3l0-3c0-0.4,0.1-0.8,0.2-1.3c0,0.5,0,1,0,1.5c0,0.1,0,0.3,0,0.4
					c0,0.2,0,0.4,0,0.6c0,0.1,0,0.3,0,0.4C93,131.4,93,131.4,93,131.5z"/>
			</g>
			<g>
				<path class="st15" d="M115.7,129.8l0,3c0,1.7-1.1,3.4-3.3,4.7c-4.4,2.6-11.7,2.6-16.1,0c-2.3-1.3-3.4-3.1-3.4-4.8l0-3
					c0,1.7,1.1,3.5,3.4,4.8c4.5,2.6,11.7,2.6,16.1,0C114.6,133.2,115.7,131.5,115.7,129.8z"/>
			</g>
			<g>
				<path class="st14" d="M115.7,132.8C115.7,132.8,115.7,132.8,115.7,132.8c0-1,0-2,0-3c0,0,0,0,0,0
					C115.7,130.7,115.7,131.9,115.7,132.8z"/>
			</g>
			<g>
				<path class="st15" d="M112.3,125c4.5,2.6,4.5,6.9,0.1,9.5c-4.4,2.6-11.7,2.6-16.1,0c-4.5-2.6-4.5-6.9-0.1-9.5
					C100.6,122.4,107.8,122.4,112.3,125z"/>
			</g>
			<path class="st16" d="M96.2,126.7c4.4-2.6,11.7-2.6,16.1,0c1.9,1.1,3,2.5,3.3,3.9c0.4-2-0.7-4.1-3.3-5.6
				c-4.5-2.6-11.7-2.6-16.1,0c-2.6,1.5-3.6,3.6-3.2,5.6C93.2,129.2,94.3,127.8,96.2,126.7z"/>
			<g>
				<path class="st16" d="M118.8,129.8l0,3c0,2.2-1.4,4.3-4.2,6c-5.7,3.3-14.9,3.3-20.5,0c-2.9-1.7-4.3-3.9-4.3-6.1l0-3
					c0,2.2,1.4,4.4,4.3,6.1c5.7,3.3,14.9,3.3,20.5,0C117.4,134.2,118.8,132,118.8,129.8z"/>
			</g>
			<g>
				<path class="st14" d="M114.5,123.7c5.7,3.3,5.7,8.8,0.1,12.1c-5.7,3.3-14.9,3.3-20.5,0c-5.7-3.3-5.7-8.8-0.1-12.1
					C99.6,120.4,108.8,120.4,114.5,123.7z M96.2,134.5c4.5,2.6,11.7,2.6,16.1,0c4.4-2.6,4.4-6.9-0.1-9.5c-4.5-2.6-11.7-2.6-16.1,0
					C91.7,127.7,91.7,131.9,96.2,134.5"/>
			</g>
		</g>
	</g>
	<g>
		<g class="st13">
			<g>
				<path class="st14" d="M96.8,124.7c-1.7,1-2.7,2.2-3.1,3.5c0-1,0-2,0-3c0.4-1.3,1.4-2.5,3.1-3.5c4.4-2.6,11.7-2.6,16.1,0
					c2.2,1.3,3.4,3,3.4,4.8c0,1,0,2,0,3c0-1.7-1.1-3.4-3.4-4.8C108.5,122,101.3,122,96.8,124.7z"/>
			</g>
			<g>
				<path class="st14" d="M93.7,128.1c-0.1,0.4-0.2,0.8-0.2,1.3l0-3c0-0.4,0.1-0.8,0.2-1.3c0,0.5,0,1,0,1.5c0,0.1,0,0.3,0,0.4
					c0,0.2,0,0.4,0,0.6c0,0.1,0,0.3,0,0.4C93.7,128,93.7,128.1,93.7,128.1z"/>
			</g>
			<g>
				<path class="st15" d="M116.3,126.5l0,3c0,1.7-1.1,3.4-3.3,4.7c-4.4,2.6-11.7,2.6-16.1,0c-2.3-1.3-3.4-3.1-3.4-4.8l0-3
					c0,1.7,1.1,3.5,3.4,4.8c4.5,2.6,11.7,2.6,16.1,0C115.2,129.9,116.3,128.2,116.3,126.5z"/>
			</g>
			<g>
				<path class="st14" d="M116.3,129.4C116.3,129.4,116.3,129.4,116.3,129.4c0-1,0-2,0-3c0,0,0,0,0,0
					C116.3,127.4,116.3,128.5,116.3,129.4z"/>
			</g>
			<g>
				<path class="st15" d="M113,121.7c4.5,2.6,4.5,6.9,0.1,9.5c-4.4,2.6-11.7,2.6-16.1,0c-4.5-2.6-4.5-6.9-0.1-9.5
					C101.3,119.1,108.5,119.1,113,121.7z"/>
			</g>
			<path class="st16" d="M96.8,123.3c4.4-2.6,11.7-2.6,16.1,0c1.9,1.1,3,2.5,3.3,3.9c0.4-2-0.7-4.1-3.3-5.6
				c-4.5-2.6-11.7-2.6-16.1,0c-2.6,1.5-3.6,3.6-3.2,5.6C93.9,125.8,95,124.4,96.8,123.3z"/>
			<g>
				<path class="st16" d="M119.4,126.5l0,3c0,2.2-1.4,4.3-4.2,6c-5.7,3.3-14.9,3.3-20.5,0c-2.9-1.7-4.3-3.9-4.3-6.1l0-3
					c0,2.2,1.4,4.4,4.3,6.1c5.7,3.3,14.9,3.3,20.5,0C118,130.8,119.4,128.6,119.4,126.5z"/>
			</g>
			<g>
				<path class="st14" d="M115.2,120.4c5.7,3.3,5.7,8.8,0.1,12.1c-5.7,3.3-14.9,3.3-20.5,0c-5.7-3.3-5.7-8.8-0.1-12.1
					C100.3,117,109.5,117,115.2,120.4z M96.9,131.2c4.5,2.6,11.7,2.6,16.1,0c4.4-2.6,4.4-6.9-0.1-9.5c-4.5-2.6-11.7-2.6-16.1,0
					C92.4,124.3,92.4,128.6,96.9,131.2"/>
			</g>
		</g>
	</g>
	<g>
		<g class="st13">
			<g>
				<path class="st14" d="M97.5,121.6c-1.7,1-2.7,2.2-3.1,3.5c0-1,0-2,0-3c0.4-1.3,1.4-2.5,3.1-3.5c4.4-2.6,11.7-2.6,16.1,0
					c2.2,1.3,3.4,3,3.4,4.8c0,1,0,2,0,3c0-1.7-1.1-3.4-3.4-4.8C109.1,119,101.9,119,97.5,121.6z"/>
			</g>
			<g>
				<path class="st14" d="M94.3,125.1c-0.1,0.4-0.2,0.8-0.2,1.3l0-3c0-0.4,0.1-0.8,0.2-1.3c0,0.5,0,1,0,1.5c0,0.1,0,0.3,0,0.4
					c0,0.2,0,0.4,0,0.6c0,0.1,0,0.3,0,0.4C94.3,125,94.4,125,94.3,125.1z"/>
			</g>
			<g>
				<path class="st15" d="M117,123.4l0,3c0,1.7-1.1,3.4-3.3,4.7c-4.4,2.6-11.7,2.6-16.1,0c-2.3-1.3-3.4-3.1-3.4-4.8l0-3
					c0,1.7,1.1,3.5,3.4,4.8c4.5,2.6,11.7,2.6,16.1,0C115.9,126.8,117,125.1,117,123.4z"/>
			</g>
			<g>
				<path class="st14" d="M117,126.4C117,126.4,117,126.4,117,126.4c0-1,0-2,0-3c0,0,0,0,0,0C117,124.3,117,125.5,117,126.4z"/>
			</g>
			<g>
				<path class="st15" d="M113.6,118.6c4.5,2.6,4.5,6.9,0.1,9.5c-4.4,2.6-11.7,2.6-16.1,0c-4.5-2.6-4.5-6.9-0.1-9.5
					C101.9,116,109.1,116,113.6,118.6z"/>
			</g>
			<path class="st16" d="M97.5,120.3c4.4-2.6,11.7-2.6,16.1,0c1.9,1.1,3,2.5,3.3,3.9c0.4-2-0.7-4.1-3.3-5.6
				c-4.5-2.6-11.7-2.6-16.1,0c-2.6,1.5-3.6,3.6-3.2,5.6C94.5,122.8,95.6,121.4,97.5,120.3z"/>
			<g>
				<path class="st16" d="M120.1,123.4l0,3c0,2.2-1.4,4.3-4.2,6c-5.7,3.3-14.9,3.3-20.5,0c-2.9-1.7-4.3-3.9-4.3-6.1l0-3
					c0,2.2,1.4,4.4,4.3,6.1c5.7,3.3,14.9,3.3,20.5,0C118.7,127.8,120.1,125.6,120.1,123.4z"/>
			</g>
			<g>
				<path class="st14" d="M115.8,117.4c5.7,3.3,5.7,8.8,0.1,12.1c-5.7,3.3-14.9,3.3-20.5,0c-5.7-3.3-5.7-8.8-0.1-12.1
					C100.9,114,110.1,114,115.8,117.4z M97.5,128.2c4.5,2.6,11.7,2.6,16.1,0c4.4-2.6,4.4-6.9-0.1-9.5c-4.5-2.6-11.7-2.6-16.1,0
					C93,121.3,93,125.5,97.5,128.2"/>
			</g>
		</g>
	</g>
	<g>
		<g class="st13">
			<g>
				<path class="st14" d="M96.2,117.9c-1.7,1-2.7,2.2-3.1,3.5c0-1,0-2,0-3c0.4-1.3,1.4-2.5,3.1-3.5c4.4-2.6,11.7-2.6,16.1,0
					c2.2,1.3,3.4,3,3.4,4.8c0,1,0,2,0,3c0-1.7-1.1-3.4-3.4-4.8C107.8,115.3,100.6,115.3,96.2,117.9z"/>
			</g>
			<g>
				<path class="st14" d="M93,121.4c-0.1,0.4-0.2,0.8-0.2,1.3l0-3c0-0.4,0.1-0.8,0.2-1.3c0,0.5,0,1,0,1.5c0,0.1,0,0.3,0,0.4
					c0,0.2,0,0.4,0,0.6c0,0.1,0,0.3,0,0.4C93,121.3,93,121.3,93,121.4z"/>
			</g>
			<g>
				<path class="st15" d="M115.7,119.7l0,3c0,1.7-1.1,3.4-3.3,4.7c-4.4,2.6-11.7,2.6-16.1,0c-2.3-1.3-3.4-3.1-3.4-4.8l0-3
					c0,1.7,1.1,3.5,3.4,4.8c4.5,2.6,11.7,2.6,16.1,0C114.6,123.2,115.7,121.5,115.7,119.7z"/>
			</g>
			<g>
				<path class="st14" d="M115.7,122.7C115.7,122.7,115.7,122.7,115.7,122.7c0-1,0-2,0-3c0,0,0,0,0,0
					C115.7,120.6,115.7,121.8,115.7,122.7z"/>
			</g>
			<g>
				<path class="st15" d="M112.3,115c4.5,2.6,4.5,6.9,0.1,9.5c-4.4,2.6-11.7,2.6-16.1,0c-4.5-2.6-4.5-6.9-0.1-9.5
					C100.6,112.3,107.8,112.3,112.3,115z"/>
			</g>
			<path class="st16" d="M96.2,116.6c4.4-2.6,11.7-2.6,16.1,0c1.9,1.1,3,2.5,3.3,3.9c0.4-2-0.7-4.1-3.3-5.6
				c-4.5-2.6-11.7-2.6-16.1,0c-2.6,1.5-3.6,3.6-3.2,5.6C93.2,119.1,94.3,117.7,96.2,116.6z"/>
			<g>
				<path class="st16" d="M118.8,119.8l0,3c0,2.2-1.4,4.3-4.2,6c-5.7,3.3-14.9,3.3-20.5,0c-2.9-1.7-4.3-3.9-4.3-6.1l0-3
					c0,2.2,1.4,4.4,4.3,6.1c5.7,3.3,14.9,3.3,20.5,0C117.4,124.1,118.8,121.9,118.8,119.8z"/>
			</g>
			<g>
				<path class="st14" d="M114.5,113.7c5.7,3.3,5.7,8.8,0.1,12.1c-5.7,3.3-14.9,3.3-20.5,0c-5.7-3.3-5.7-8.8-0.1-12.1
					C99.6,110.3,108.8,110.3,114.5,113.7z M96.2,124.5c4.5,2.6,11.7,2.6,16.1,0c4.4-2.6,4.4-6.9-0.1-9.5c-4.5-2.6-11.7-2.6-16.1,0
					C91.7,117.6,91.7,121.8,96.2,124.5"/>
			</g>
		</g>
	</g>
	<g>
		<g class="st13">
			<g>
				<path class="st14" d="M97.5,114.6c-1.7,1-2.7,2.2-3.1,3.5c0-1,0-2,0-3c0.4-1.3,1.4-2.5,3.1-3.5c4.4-2.6,11.7-2.6,16.1,0
					c2.2,1.3,3.4,3,3.4,4.8c0,1,0,2,0,3c0-1.7-1.1-3.4-3.4-4.8C109.1,111.9,101.9,111.9,97.5,114.6z"/>
			</g>
			<g>
				<path class="st14" d="M94.3,118c-0.1,0.4-0.2,0.8-0.2,1.3l0-3c0-0.4,0.1-0.8,0.2-1.3c0,0.5,0,1,0,1.5c0,0.1,0,0.3,0,0.4
					c0,0.2,0,0.4,0,0.6c0,0.1,0,0.3,0,0.4C94.3,117.9,94.4,118,94.3,118z"/>
			</g>
			<g>
				<path class="st15" d="M117,116.4l0,3c0,1.7-1.1,3.4-3.3,4.7c-4.4,2.6-11.7,2.6-16.1,0c-2.3-1.3-3.4-3.1-3.4-4.8l0-3
					c0,1.7,1.1,3.5,3.4,4.8c4.5,2.6,11.7,2.6,16.1,0C115.9,119.8,117,118.1,117,116.4z"/>
			</g>
			<g>
				<path class="st14" d="M117,119.4C117,119.3,117,119.3,117,119.4c0-1,0-2,0-3c0,0,0,0,0,0C117,117.3,117,118.5,117,119.4z"/>
			</g>
			<g>
				<path class="st15" d="M113.6,111.6c4.5,2.6,4.5,6.9,0.1,9.5c-4.4,2.6-11.7,2.6-16.1,0c-4.5-2.6-4.5-6.9-0.1-9.5
					C101.9,109,109.1,109,113.6,111.6z"/>
			</g>
			<path class="st16" d="M97.5,113.3c4.4-2.6,11.7-2.6,16.1,0c1.9,1.1,3,2.5,3.3,3.9c0.4-2-0.7-4.1-3.3-5.6
				c-4.5-2.6-11.7-2.6-16.1,0c-2.6,1.5-3.6,3.6-3.2,5.6C94.5,115.7,95.6,114.3,97.5,113.3z"/>
			<g>
				<path class="st16" d="M120.1,116.4l0,3c0,2.2-1.4,4.3-4.2,6c-5.7,3.3-14.9,3.3-20.5,0c-2.9-1.7-4.3-3.9-4.3-6.1l0-3
					c0,2.2,1.4,4.4,4.3,6.1c5.7,3.3,14.9,3.3,20.5,0C118.7,120.7,120.1,118.6,120.1,116.4z"/>
			</g>
			<g>
				<path class="st14" d="M115.8,110.3c5.7,3.3,5.7,8.8,0.1,12.1c-5.7,3.3-14.9,3.3-20.5,0c-5.7-3.3-5.7-8.8-0.1-12.1
					C100.9,107,110.1,107,115.8,110.3z M97.5,121.1c4.5,2.6,11.7,2.6,16.1,0c4.4-2.6,4.4-6.9-0.1-9.5c-4.5-2.6-11.7-2.6-16.1,0
					C93,114.2,93,118.5,97.5,121.1"/>
			</g>
		</g>
	</g>
	<g>
		<g class="st13">
			<g>
				<path class="st14" d="M96.5,111.2c-1.7,1-2.7,2.2-3.1,3.5c0-1,0-2,0-3c0.4-1.3,1.4-2.5,3.1-3.5c4.4-2.6,11.7-2.6,16.1,0
					c2.2,1.3,3.4,3,3.4,4.8c0,1,0,2,0,3c0-1.7-1.1-3.4-3.4-4.8C108.2,108.6,100.9,108.6,96.5,111.2z"/>
			</g>
			<g>
				<path class="st14" d="M93.4,114.7c-0.1,0.4-0.2,0.8-0.2,1.3l0-3c0-0.4,0.1-0.8,0.2-1.3c0,0.5,0,1,0,1.5c0,0.1,0,0.3,0,0.4
					c0,0.2,0,0.4,0,0.6c0,0.1,0,0.3,0,0.4C93.4,114.6,93.4,114.6,93.4,114.7z"/>
			</g>
			<g>
				<path class="st15" d="M116,113l0,3c0,1.7-1.1,3.4-3.3,4.7c-4.4,2.6-11.7,2.6-16.1,0c-2.3-1.3-3.4-3.1-3.4-4.8l0-3
					c0,1.7,1.1,3.5,3.4,4.8c4.5,2.6,11.7,2.6,16.1,0C114.9,116.4,116,114.7,116,113z"/>
			</g>
			<g>
				<path class="st14" d="M116,116C116,116,116,116,116,116c0-1,0-2,0-3c0,0,0,0,0,0C116,113.9,116,115.1,116,116z"/>
			</g>
			<g>
				<path class="st15" d="M112.6,108.2c4.5,2.6,4.5,6.9,0.1,9.5c-4.4,2.6-11.7,2.6-16.1,0c-4.5-2.6-4.5-6.9-0.1-9.5
					C100.9,105.6,108.2,105.6,112.6,108.2z"/>
			</g>
			<path class="st16" d="M96.5,109.9c4.4-2.6,11.7-2.6,16.1,0c1.9,1.1,3,2.5,3.3,3.9c0.4-2-0.7-4.1-3.3-5.6
				c-4.5-2.6-11.7-2.6-16.1,0c-2.6,1.5-3.6,3.6-3.2,5.6C93.6,112.4,94.6,111,96.5,109.9z"/>
			<g>
				<path class="st16" d="M119.1,113l0,3c0,2.2-1.4,4.3-4.2,6c-5.7,3.3-14.9,3.3-20.5,0c-2.9-1.7-4.3-3.9-4.3-6.1l0-3
					c0,2.2,1.4,4.4,4.3,6.1c5.7,3.3,14.9,3.3,20.5,0C117.7,117.4,119.1,115.2,119.1,113z"/>
			</g>
			<g>
				<path class="st14" d="M114.8,106.9c5.7,3.3,5.7,8.8,0.1,12.1c-5.7,3.3-14.9,3.3-20.5,0c-5.7-3.3-5.7-8.8-0.1-12.1
					C99.9,103.6,109.1,103.6,114.8,106.9z M96.5,117.7c4.5,2.6,11.7,2.6,16.1,0c4.4-2.6,4.4-6.9-0.1-9.5c-4.5-2.6-11.7-2.6-16.1,0
					C92,110.9,92.1,115.1,96.5,117.7"/>
			</g>
		</g>
	</g>
	<g>
		<g class="st13">
			<g>
				<path class="st14" d="M96.8,107.8c-1.7,1-2.7,2.2-3.1,3.5c0-1,0-2,0-3c0.4-1.3,1.4-2.5,3.1-3.5c4.4-2.6,11.7-2.6,16.1,0
					c2.2,1.3,3.4,3,3.4,4.8c0,1,0,2,0,3c0-1.7-1.1-3.4-3.4-4.8C108.5,105.2,101.3,105.2,96.8,107.8z"/>
			</g>
			<g>
				<path class="st14" d="M93.7,111.3c-0.1,0.4-0.2,0.8-0.2,1.3l0-3c0-0.4,0.1-0.8,0.2-1.3c0,0.5,0,1,0,1.5c0,0.1,0,0.3,0,0.4
					c0,0.2,0,0.4,0,0.6c0,0.1,0,0.3,0,0.4C93.7,111.2,93.7,111.3,93.7,111.3z"/>
			</g>
			<g>
				<path class="st15" d="M116.3,109.7l0,3c0,1.7-1.1,3.4-3.3,4.7c-4.4,2.6-11.7,2.6-16.1,0c-2.3-1.3-3.4-3.1-3.4-4.8l0-3
					c0,1.7,1.1,3.5,3.4,4.8c4.5,2.6,11.7,2.6,16.1,0C115.2,113.1,116.3,111.4,116.3,109.7z"/>
			</g>
			<g>
				<path class="st14" d="M116.3,112.6C116.3,112.6,116.3,112.6,116.3,112.6c0-1,0-2,0-3c0,0,0,0,0,0
					C116.3,110.6,116.3,111.7,116.3,112.6z"/>
			</g>
			<g>
				<path class="st15" d="M113,104.9c4.5,2.6,4.5,6.9,0.1,9.5c-4.4,2.6-11.7,2.6-16.1,0c-4.5-2.6-4.5-6.9-0.1-9.5
					C101.3,102.2,108.5,102.2,113,104.9z"/>
			</g>
			<path class="st16" d="M96.8,106.5c4.4-2.6,11.7-2.6,16.1,0c1.9,1.1,3,2.5,3.3,3.9c0.4-2-0.7-4.1-3.3-5.6
				c-4.5-2.6-11.7-2.6-16.1,0c-2.6,1.5-3.6,3.6-3.2,5.6C93.9,109,95,107.6,96.8,106.5z"/>
			<g>
				<path class="st16" d="M119.4,109.7l0,3c0,2.2-1.4,4.3-4.2,6c-5.7,3.3-14.9,3.3-20.5,0c-2.9-1.7-4.3-3.9-4.3-6.1l0-3
					c0,2.2,1.4,4.4,4.3,6.1c5.7,3.3,14.9,3.3,20.5,0C118,114,119.4,111.8,119.4,109.7z"/>
			</g>
			<g>
				<path class="st14" d="M115.2,103.6c5.7,3.3,5.7,8.8,0.1,12.1c-5.7,3.3-14.9,3.3-20.5,0c-5.7-3.3-5.7-8.8-0.1-12.1
					C100.3,100.2,109.5,100.2,115.2,103.6z M96.9,114.4c4.5,2.6,11.7,2.6,16.1,0c4.4-2.6,4.4-6.9-0.1-9.5c-4.5-2.6-11.7-2.6-16.1,0
					C92.4,107.5,92.4,111.8,96.9,114.4"/>
			</g>
		</g>
	</g>
</g>
<path class="st1" d="M134.7,154.3c-6.3-3.3-16.5-3.3-22.8,0c-6.3,3.3-6.2,8.8,0.1,12.1c6.3,3.3,16.5,3.3,22.8,0
	C141.1,163.1,141,157.7,134.7,154.3z M110.9,159.3L110.9,159.3c0-0.1,0-0.1,0.1-0.2C110.9,159.2,110.9,159.3,110.9,159.3z"/>
<g>
	<g>
		<g class="st13">
			<g>
				<path class="st14" d="M116.8,155.2c-1.7,1-2.7,2.2-3.1,3.5c0-1,0-2,0-3c0.4-1.3,1.4-2.5,3.1-3.5c4.4-2.6,11.7-2.6,16.1,0
					c2.2,1.3,3.4,3,3.4,4.8c0,1,0,2,0,3c0-1.7-1.1-3.4-3.4-4.8C128.5,152.6,121.2,152.6,116.8,155.2z"/>
			</g>
			<g>
				<path class="st14" d="M113.7,158.7c-0.1,0.4-0.2,0.8-0.2,1.3l0-3c0-0.4,0.1-0.8,0.2-1.3c0,0.5,0,1,0,1.5c0,0.1,0,0.3,0,0.4
					c0,0.2,0,0.4,0,0.6c0,0.1,0,0.3,0,0.4C113.7,158.6,113.7,158.7,113.7,158.7z"/>
			</g>
			<g>
				<path class="st15" d="M136.3,157.1l0,3c0,1.7-1.1,3.4-3.3,4.7c-4.4,2.6-11.7,2.6-16.1,0c-2.3-1.3-3.4-3.1-3.4-4.8l0-3
					c0,1.7,1.1,3.5,3.4,4.8c4.5,2.6,11.7,2.6,16.1,0C135.2,160.5,136.3,158.8,136.3,157.1z"/>
			</g>
			<g>
				<path class="st14" d="M136.3,160C136.3,160,136.3,160,136.3,160c0-1,0-2,0-3c0,0,0,0,0,0C136.3,157.9,136.3,159.1,136.3,160z"/>
			</g>
			<g>
				<path class="st15" d="M133,152.3c4.5,2.6,4.5,6.9,0.1,9.5c-4.4,2.6-11.7,2.6-16.1,0c-4.5-2.6-4.5-6.9-0.1-9.5
					C121.3,149.6,128.5,149.6,133,152.3z"/>
			</g>
			<path class="st16" d="M116.8,153.9c4.4-2.6,11.7-2.6,16.1,0c1.9,1.1,3,2.5,3.3,3.9c0.4-2-0.7-4.1-3.3-5.6
				c-4.5-2.6-11.7-2.6-16.1,0c-2.6,1.5-3.6,3.6-3.2,5.6C113.9,156.4,115,155,116.8,153.9z"/>
			<g>
				<path class="st16" d="M139.4,157.1l0,3c0,2.2-1.4,4.3-4.2,6c-5.7,3.3-14.9,3.3-20.5,0c-2.9-1.7-4.3-3.9-4.3-6.1l0-3
					c0,2.2,1.4,4.4,4.3,6.1c5.7,3.3,14.9,3.3,20.5,0C138,161.4,139.4,159.2,139.4,157.1z"/>
			</g>
			<g>
				<path class="st14" d="M135.2,151c5.7,3.3,5.7,8.8,0.1,12.1c-5.7,3.3-14.9,3.3-20.5,0c-5.7-3.3-5.7-8.8-0.1-12.1
					C120.3,147.6,129.5,147.6,135.2,151z M116.9,161.8c4.5,2.6,11.7,2.6,16.1,0c4.4-2.6,4.4-6.9-0.1-9.5c-4.5-2.6-11.7-2.6-16.1,0
					C112.4,154.9,112.4,159.2,116.9,161.8"/>
			</g>
		</g>
	</g>
	<g>
		<g class="st13">
			<g>
				<path class="st14" d="M116.8,151.9c-1.7,1-2.7,2.2-3.1,3.5c0-1,0-2,0-3c0.4-1.3,1.4-2.5,3.1-3.5c4.4-2.6,11.7-2.6,16.1,0
					c2.2,1.3,3.4,3,3.4,4.8c0,1,0,2,0,3c0-1.7-1.1-3.4-3.4-4.8C128.5,149.3,121.2,149.3,116.8,151.9z"/>
			</g>
			<g>
				<path class="st14" d="M113.7,155.4c-0.1,0.4-0.2,0.8-0.2,1.3l0-3c0-0.4,0.1-0.8,0.2-1.3c0,0.5,0,1,0,1.5c0,0.1,0,0.3,0,0.4
					c0,0.2,0,0.4,0,0.6c0,0.1,0,0.3,0,0.4C113.7,155.2,113.7,155.3,113.7,155.4z"/>
			</g>
			<g>
				<path class="st15" d="M136.3,153.7l0,3c0,1.7-1.1,3.4-3.3,4.7c-4.4,2.6-11.7,2.6-16.1,0c-2.3-1.3-3.4-3.1-3.4-4.8l0-3
					c0,1.7,1.1,3.5,3.4,4.8c4.5,2.6,11.7,2.6,16.1,0C135.2,157.1,136.3,155.4,136.3,153.7z"/>
			</g>
			<g>
				<path class="st14" d="M136.3,156.7C136.3,156.7,136.3,156.6,136.3,156.7c0-1,0-2,0-3c0,0,0,0,0,0
					C136.3,154.6,136.3,155.8,136.3,156.7z"/>
			</g>
			<g>
				<path class="st15" d="M133,148.9c4.5,2.6,4.5,6.9,0.1,9.5c-4.4,2.6-11.7,2.6-16.1,0c-4.5-2.6-4.5-6.9-0.1-9.5
					C121.3,146.3,128.5,146.3,133,148.9z"/>
			</g>
			<path class="st16" d="M116.8,150.6c4.4-2.6,11.7-2.6,16.1,0c1.9,1.1,3,2.5,3.3,3.9c0.4-2-0.7-4.1-3.3-5.6
				c-4.5-2.6-11.7-2.6-16.1,0c-2.6,1.5-3.6,3.6-3.2,5.6C113.9,153,115,151.7,116.8,150.6z"/>
			<g>
				<path class="st16" d="M139.4,153.7l0,3c0,2.2-1.4,4.3-4.2,6c-5.7,3.3-14.9,3.3-20.5,0c-2.9-1.7-4.3-3.9-4.3-6.1l0-3
					c0,2.2,1.4,4.4,4.3,6.1c5.7,3.3,14.9,3.3,20.5,0C138,158.1,139.4,155.9,139.4,153.7z"/>
			</g>
			<g>
				<path class="st14" d="M135.2,147.6c5.7,3.3,5.7,8.8,0.1,12.1c-5.7,3.3-14.9,3.3-20.5,0c-5.7-3.3-5.7-8.8-0.1-12.1
					C120.3,144.3,129.5,144.3,135.2,147.6z M116.9,158.4c4.5,2.6,11.7,2.6,16.1,0c4.4-2.6,4.4-6.9-0.1-9.5c-4.5-2.6-11.7-2.6-16.1,0
					C112.4,151.5,112.4,155.8,116.9,158.4"/>
			</g>
		</g>
	</g>
	<g>
		<g class="st13">
			<g>
				<path class="st14" d="M116.1,148.5c-1.7,1-2.7,2.2-3.1,3.5c0-1,0-2,0-3c0.4-1.3,1.4-2.5,3.1-3.5c4.4-2.6,11.7-2.6,16.1,0
					c2.2,1.3,3.4,3,3.4,4.8c0,1,0,2,0,3c0-1.7-1.1-3.4-3.4-4.8C127.8,145.9,120.6,145.9,116.1,148.5z"/>
			</g>
			<g>
				<path class="st14" d="M113,152c-0.1,0.4-0.2,0.8-0.2,1.3l0-3c0-0.4,0.1-0.8,0.2-1.3c0,0.5,0,1,0,1.5c0,0.1,0,0.3,0,0.4
					c0,0.2,0,0.4,0,0.6c0,0.1,0,0.3,0,0.4C113,151.9,113,151.9,113,152z"/>
			</g>
			<g>
				<path class="st15" d="M135.7,150.3l0,3c0,1.7-1.1,3.4-3.3,4.7c-4.4,2.6-11.7,2.6-16.1,0c-2.3-1.3-3.4-3.1-3.4-4.8l0-3
					c0,1.7,1.1,3.5,3.4,4.8c4.5,2.6,11.7,2.6,16.1,0C134.6,153.8,135.7,152,135.7,150.3z"/>
			</g>
			<g>
				<path class="st14" d="M135.7,153.3C135.7,153.3,135.7,153.3,135.7,153.3c0-1,0-2,0-3c0,0,0,0,0,0
					C135.7,151.2,135.7,152.4,135.7,153.3z"/>
			</g>
			<g>
				<path class="st15" d="M132.3,145.5c4.5,2.6,4.5,6.9,0.1,9.5c-4.4,2.6-11.7,2.6-16.1,0c-4.5-2.6-4.5-6.9-0.1-9.5
					C120.6,142.9,127.8,142.9,132.3,145.5z"/>
			</g>
			<path class="st16" d="M116.2,147.2c4.4-2.6,11.7-2.6,16.1,0c1.9,1.1,3,2.5,3.3,3.9c0.4-2-0.7-4.1-3.3-5.6
				c-4.5-2.6-11.7-2.6-16.1,0c-2.6,1.5-3.6,3.6-3.2,5.6C113.2,149.7,114.3,148.3,116.2,147.2z"/>
			<g>
				<path class="st16" d="M138.8,150.3l0,3c0,2.2-1.4,4.3-4.2,6c-5.7,3.3-14.9,3.3-20.5,0c-2.9-1.7-4.3-3.9-4.3-6.1l0-3
					c0,2.2,1.4,4.4,4.3,6.1c5.7,3.3,14.9,3.3,20.5,0C137.4,154.7,138.8,152.5,138.8,150.3z"/>
			</g>
			<g>
				<path class="st14" d="M134.5,144.3c5.7,3.3,5.7,8.8,0.1,12.1c-5.7,3.3-14.9,3.3-20.5,0c-5.7-3.3-5.7-8.8-0.1-12.1
					C119.6,140.9,128.8,140.9,134.5,144.3z M116.2,155.1c4.5,2.6,11.7,2.6,16.1,0c4.4-2.6,4.4-6.9-0.1-9.5c-4.5-2.6-11.7-2.6-16.1,0
					C111.7,148.2,111.7,152.4,116.2,155.1"/>
			</g>
		</g>
	</g>
	<g>
		<g class="st13">
			<g>
				<path class="st14" d="M117.5,145.2c-1.7,1-2.7,2.2-3.1,3.5c0-1,0-2,0-3c0.4-1.3,1.4-2.5,3.1-3.5c4.4-2.6,11.7-2.6,16.1,0
					c2.2,1.3,3.4,3,3.4,4.8c0,1,0,2,0,3c0-1.7-1.1-3.4-3.4-4.8C129.1,142.5,121.9,142.5,117.5,145.2z"/>
			</g>
			<g>
				<path class="st14" d="M114.3,148.6c-0.1,0.4-0.2,0.8-0.2,1.3l0-3c0-0.4,0.1-0.8,0.2-1.3c0,0.5,0,1,0,1.5c0,0.1,0,0.3,0,0.4
					c0,0.2,0,0.4,0,0.6c0,0.1,0,0.3,0,0.4C114.3,148.5,114.3,148.6,114.3,148.6z"/>
			</g>
			<g>
				<path class="st15" d="M137,147l0,3c0,1.7-1.1,3.4-3.3,4.7c-4.4,2.6-11.7,2.6-16.1,0c-2.3-1.3-3.4-3.1-3.4-4.8l0-3
					c0,1.7,1.1,3.5,3.4,4.8c4.5,2.6,11.7,2.6,16.1,0C135.9,150.4,137,148.7,137,147z"/>
			</g>
			<g>
				<path class="st14" d="M137,149.9C137,149.9,137,149.9,137,149.9c0-1,0-2,0-3c0,0,0,0,0,0C137,147.9,137,149.1,137,149.9z"/>
			</g>
			<g>
				<path class="st15" d="M133.6,142.2c4.5,2.6,4.5,6.9,0.1,9.5c-4.4,2.6-11.7,2.6-16.1,0c-4.5-2.6-4.5-6.9-0.1-9.5
					C121.9,139.6,129.1,139.6,133.6,142.2z"/>
			</g>
			<path class="st16" d="M117.5,143.8c4.4-2.6,11.7-2.6,16.1,0c1.9,1.1,3,2.5,3.3,3.9c0.4-2-0.7-4.1-3.3-5.6
				c-4.5-2.6-11.7-2.6-16.1,0c-2.6,1.5-3.6,3.6-3.2,5.6C114.5,146.3,115.6,144.9,117.5,143.8z"/>
			<g>
				<path class="st16" d="M140.1,147l0,3c0,2.2-1.4,4.3-4.2,6c-5.7,3.3-14.9,3.3-20.5,0c-2.9-1.7-4.3-3.9-4.3-6.1l0-3
					c0,2.2,1.4,4.4,4.3,6.1c5.7,3.3,14.9,3.3,20.5,0C138.7,151.3,140.1,149.2,140.1,147z"/>
			</g>
			<g>
				<path class="st14" d="M135.8,140.9c5.7,3.3,5.7,8.8,0.1,12.1c-5.7,3.3-14.9,3.3-20.5,0c-5.7-3.3-5.7-8.8-0.1-12.1
					C120.9,137.6,130.1,137.6,135.8,140.9z M117.5,151.7c4.5,2.6,11.7,2.6,16.1,0c4.4-2.6,4.4-6.9-0.1-9.5c-4.5-2.6-11.7-2.6-16.1,0
					C113,144.8,113,149.1,117.5,151.7"/>
			</g>
		</g>
	</g>
	<g>
		<g class="st13">
			<g>
				<path class="st14" d="M116.1,141.8c-1.7,1-2.7,2.2-3.1,3.5c0-1,0-2,0-3c0.4-1.3,1.4-2.5,3.1-3.5c4.4-2.6,11.7-2.6,16.1,0
					c2.2,1.3,3.4,3,3.4,4.8c0,1,0,2,0,3c0-1.7-1.1-3.4-3.4-4.8C127.8,139.2,120.6,139.2,116.1,141.8z"/>
			</g>
			<g>
				<path class="st14" d="M113,145.3c-0.1,0.4-0.2,0.8-0.2,1.3l0-3c0-0.4,0.1-0.8,0.2-1.3c0,0.5,0,1,0,1.5c0,0.1,0,0.3,0,0.4
					c0,0.2,0,0.4,0,0.6c0,0.1,0,0.3,0,0.4C113,145.2,113,145.2,113,145.3z"/>
			</g>
			<g>
				<path class="st15" d="M135.7,143.6l0,3c0,1.7-1.1,3.4-3.3,4.7c-4.4,2.6-11.7,2.6-16.1,0c-2.3-1.3-3.4-3.1-3.4-4.8l0-3
					c0,1.7,1.1,3.5,3.4,4.8c4.5,2.6,11.7,2.6,16.1,0C134.6,147,135.7,145.3,135.7,143.6z"/>
			</g>
			<g>
				<path class="st14" d="M135.7,146.6C135.7,146.6,135.7,146.6,135.7,146.6c0-1,0-2,0-3c0,0,0,0,0,0
					C135.7,144.5,135.7,145.7,135.7,146.6z"/>
			</g>
			<g>
				<path class="st15" d="M132.3,138.8c4.5,2.6,4.5,6.9,0.1,9.5c-4.4,2.6-11.7,2.6-16.1,0c-4.5-2.6-4.5-6.9-0.1-9.5
					C120.6,136.2,127.8,136.2,132.3,138.8z"/>
			</g>
			<path class="st16" d="M116.2,140.5c4.4-2.6,11.7-2.6,16.1,0c1.9,1.1,3,2.5,3.3,3.9c0.4-2-0.7-4.1-3.3-5.6
				c-4.5-2.6-11.7-2.6-16.1,0c-2.6,1.5-3.6,3.6-3.2,5.6C113.2,143,114.3,141.6,116.2,140.5z"/>
			<g>
				<path class="st16" d="M140.7,141.2l0,3c0,2.2-1.4,4.3-4.2,6c-5.7,3.3-14.9,3.3-20.5,0c-2.9-1.7-4.3-3.9-4.3-6.1l0-3
					c0,2.2,1.4,4.4,4.3,6.1c5.7,3.3,14.9,3.3,20.5,0C139.3,145.5,140.7,143.4,140.7,141.2z"/>
			</g>
			<g>
				<path class="st14" d="M134.5,137.5c5.7,3.3,5.7,8.8,0.1,12.1c-5.7,3.3-14.9,3.3-20.5,0c-5.7-3.3-5.7-8.8-0.1-12.1
					C119.6,134.2,128.8,134.2,134.5,137.5z M116.2,148.3c4.5,2.6,11.7,2.6,16.1,0c4.4-2.6,4.4-6.9-0.1-9.5c-4.5-2.6-11.7-2.6-16.1,0
					C111.7,141.5,111.7,145.7,116.2,148.3"/>
			</g>
		</g>
	</g>
</g>
<path class="st1" d="M105.7,162.2c-6.3-3.3-16.5-3.3-22.8,0c-6.3,3.3-6.2,8.8,0.1,12.1c6.3,3.3,16.5,3.3,22.8,0
	C112,170.9,112,165.5,105.7,162.2z"/>
<g>
	<g>
		<g class="st13">
			<g>
				<path class="st14" d="M87.7,163.5c-1.7,1-2.7,2.2-3.1,3.5c0-1,0-2,0-3c0.4-1.3,1.4-2.5,3.1-3.5c4.4-2.6,11.7-2.6,16.1,0
					c2.2,1.3,3.4,3,3.4,4.8c0,1,0,2,0,3c0-1.7-1.1-3.4-3.4-4.8C99.4,160.8,92.2,160.8,87.7,163.5z"/>
			</g>
			<g>
				<path class="st14" d="M84.6,166.9c-0.1,0.4-0.2,0.8-0.2,1.3l0-3c0-0.4,0.1-0.8,0.2-1.3c0,0.5,0,1,0,1.5c0,0.1,0,0.3,0,0.4
					c0,0.2,0,0.4,0,0.6c0,0.1,0,0.3,0,0.4C84.6,166.8,84.6,166.9,84.6,166.9z"/>
			</g>
			<g>
				<path class="st15" d="M107.3,165.3l0,3c0,1.7-1.1,3.4-3.3,4.7c-4.4,2.6-11.7,2.6-16.1,0c-2.3-1.3-3.4-3.1-3.4-4.8l0-3
					c0,1.7,1.1,3.5,3.4,4.8c4.5,2.6,11.7,2.6,16.1,0C106.2,168.7,107.3,167,107.3,165.3z"/>
			</g>
			<g>
				<path class="st14" d="M107.3,168.2C107.3,168.2,107.3,168.2,107.3,168.2c0-1,0-2,0-3c0,0,0,0,0,0
					C107.3,166.2,107.3,167.3,107.3,168.2z"/>
			</g>
			<g>
				<path class="st15" d="M103.9,160.5c4.5,2.6,4.5,6.9,0.1,9.5c-4.4,2.6-11.7,2.6-16.1,0c-4.5-2.6-4.5-6.9-0.1-9.5
					C92.2,157.9,99.4,157.9,103.9,160.5z"/>
			</g>
			<path class="st16" d="M87.7,162.1c4.4-2.6,11.7-2.6,16.1,0c1.9,1.1,3,2.5,3.3,3.9c0.4-2-0.7-4.1-3.3-5.6
				c-4.5-2.6-11.7-2.6-16.1,0c-2.6,1.5-3.6,3.6-3.2,5.6C84.8,164.6,85.9,163.2,87.7,162.1z"/>
			<g>
				<path class="st16" d="M110.4,165.3l0,3c0,2.2-1.4,4.3-4.2,6c-5.7,3.3-14.9,3.3-20.5,0c-2.9-1.7-4.3-3.9-4.3-6.1l0-3
					c0,2.2,1.4,4.4,4.3,6.1c5.7,3.3,14.9,3.3,20.5,0C109,169.6,110.4,167.4,110.4,165.3z"/>
			</g>
			<g>
				<path class="st14" d="M106.1,159.2c5.7,3.3,5.7,8.8,0.1,12.1c-5.7,3.3-14.9,3.3-20.5,0c-5.7-3.3-5.7-8.8-0.1-12.1
					C91.2,155.8,100.4,155.8,106.1,159.2z M87.8,170c4.5,2.6,11.7,2.6,16.1,0c4.4-2.6,4.4-6.9-0.1-9.5c-4.5-2.6-11.7-2.6-16.1,0
					C83.3,163.1,83.3,167.4,87.8,170"/>
			</g>
		</g>
	</g>
	<g>
		<g class="st13">
			<g>
				<path class="st14" d="M86.8,159.4c-1.7,1-2.7,2.2-3.1,3.5c0-1,0-2,0-3c0.4-1.3,1.4-2.5,3.1-3.5c4.4-2.6,11.7-2.6,16.1,0
					c2.2,1.3,3.4,3,3.4,4.8c0,1,0,2,0,3c0-1.7-1.1-3.4-3.4-4.8C98.4,156.7,91.2,156.7,86.8,159.4z"/>
			</g>
			<g>
				<path class="st14" d="M83.6,162.8c-0.1,0.4-0.2,0.8-0.2,1.3l0-3c0-0.4,0.1-0.8,0.2-1.3c0,0.5,0,1,0,1.5c0,0.1,0,0.3,0,0.4
					c0,0.2,0,0.4,0,0.6c0,0.1,0,0.3,0,0.4C83.6,162.7,83.7,162.8,83.6,162.8z"/>
			</g>
			<g>
				<path class="st15" d="M106.3,161.2l0,3c0,1.7-1.1,3.4-3.3,4.7c-4.4,2.6-11.7,2.6-16.1,0c-2.3-1.3-3.4-3.1-3.4-4.8l0-3
					c0,1.7,1.1,3.5,3.4,4.8c4.5,2.6,11.7,2.6,16.1,0C105.2,164.6,106.3,162.9,106.3,161.2z"/>
			</g>
			<g>
				<path class="st14" d="M106.3,164.1C106.3,164.1,106.3,164.1,106.3,164.1c0-1,0-2,0-3c0,0,0,0,0,0
					C106.3,162.1,106.3,163.3,106.3,164.1z"/>
			</g>
			<g>
				<path class="st15" d="M102.9,156.4c4.5,2.6,4.5,6.9,0.1,9.5c-4.4,2.6-11.7,2.6-16.1,0c-4.5-2.6-4.5-6.9-0.1-9.5
					C91.2,153.8,98.4,153.8,102.9,156.4z"/>
			</g>
			<path class="st16" d="M86.8,158c4.4-2.6,11.7-2.6,16.1,0c1.9,1.1,3,2.5,3.3,3.9c0.4-2-0.7-4.1-3.3-5.6c-4.5-2.6-11.7-2.6-16.1,0
				c-2.6,1.5-3.6,3.6-3.2,5.6C83.8,160.5,84.9,159.1,86.8,158z"/>
			<g>
				<path class="st16" d="M109.4,161.2l0,3c0,2.2-1.4,4.3-4.2,6c-5.7,3.3-14.9,3.3-20.5,0c-2.9-1.7-4.3-3.9-4.3-6.1l0-3
					c0,2.2,1.4,4.4,4.3,6.1c5.7,3.3,14.9,3.3,20.5,0C108,165.5,109.4,163.4,109.4,161.2z"/>
			</g>
			<g>
				<path class="st14" d="M105.1,155.1c5.7,3.3,5.7,8.8,0.1,12.1c-5.7,3.3-14.9,3.3-20.5,0c-5.7-3.3-5.7-8.8-0.1-12.1
					C90.2,151.8,99.4,151.8,105.1,155.1z M86.8,165.9c4.5,2.6,11.7,2.6,16.1,0c4.4-2.6,4.4-6.9-0.1-9.5c-4.5-2.6-11.7-2.6-16.1,0
					C82.3,159,82.4,163.3,86.8,165.9"/>
			</g>
		</g>
	</g>
</g>
</svg>
